0
SECTION
2
HEADER
9
$INSUNITS
70
4
9
$ACADVER
1
AC1014
9
$HANDSEED
5
FFFF
0
ENDSEC
0
SECTION
2
TABLES
0
TABLE
2
VPORT
5
8
100
AcDbSymbolTable
0
ENDTAB
0
TABLE
2
LTYPE
5
5
100
AcDbSymbolTable
0
LTYPE
5
14
100
AcDbSymbolTableRecord
100
AcDbLinetypeTableRecord
2
BYBLOCK
70
0
0
LTYPE
5
15
100
AcDbSymbolTableRecord
100
AcDbLinetypeTableRecord
2
BYLAYER
70
0
0
ENDTAB
0
TABLE
2
LAYER
5
2
100
AcDbSymbolTable
70
2
0
LAYER
5
50
100
AcDbSymbolTableRecord
100
AcDbLayerTableRecord
2
0
70
0
6
CONTINUOUS
0
ENDTAB
0
TABLE
2
STYLE
5
3
100
AcDbSymbolTable
70
1
0
STYLE
5
11
100
AcDbSymbolTableRecord
100
AcDbTextStyleTableRecord
2
STANDARD
70
0
0
ENDTAB
0
TABLE
2
VIEW
5
6
100
AcDbSymbolTable
70
0
0
ENDTAB
0
TABLE
2
UCS
5
7
100
AcDbSymbolTable
70
0
0
ENDTAB
0
TABLE
2
APPID
5
9
100
AcDbSymbolTable
70
2
0
APPID
5
12
100
AcDbSymbolTableRecord
100
AcDbRegAppTableRecord
2
ACAD
70
0
0
ENDTAB
0
TABLE
2
DIMSTYLE
5
A
100
AcDbSymbolTable
70
1
0
ENDTAB
0
TABLE
2
BLOCK_RECORD
5
1
100
AcDbSymbolTable
70
1
0
BLOCK_RECORD
5
1F
100
AcDbSymbolTableRecord
100
AcDbBlockTableRecord
2
*MODEL_SPACE
0
BLOCK_RECORD
5
1B
100
AcDbSymbolTableRecord
100
AcDbBlockTableRecord
2
*PAPER_SPACE
0
ENDTAB
0
ENDSEC
0
SECTION
2
BLOCKS
0
BLOCK
5
20
100
AcDbEntity
100
AcDbBlockBegin
2
*MODEL_SPACE
0
ENDBLK
5
21
100
AcDbEntity
100
AcDbBlockEnd
0
BLOCK
5
1C
100
AcDbEntity
100
AcDbBlockBegin
2
*PAPER_SPACE
0
ENDBLK
5
1D
100
AcDbEntity
100
AcDbBlockEnd
0
ENDSEC
0
SECTION
2
ENTITIES
0
LWPOLYLINE
5
100
100
AcDbEntity
8
0
100
AcDbPolyline
90
152
70
1
43
0.0
10
2.3749999999999916
20
91.574999999999989
42
0.99999999999999989
10
0.47499999999999154
20
91.575000000000003
10
0.47499999999999981
20
72.125
42
-0.99999999999999989
10
-0.52500000000000013
20
72.125
10
-0.52499999999999991
20
92.725064000000003
42
0.41421356237309503
10
-2.5249999999999999
20
94.725064000000003
10
-31.762499999999992
20
94.725064000000003
42
-0.41421356237309503
10
-32.962499999999991
20
95.925063999999992
10
-32.962499999999991
20
96.725000000000009
42
-0.41421356237309503
10
-31.762499999999999
20
97.925000000000011
10
-4.625000000000008
20
97.925000000000011
42
0.41421356237309542
10
-3.7250000000000085
20
98.825000000000003
10
-3.7250000000000072
20
99.825000000000017
42
0.41421356237309631
10
-4.6250000000000115
20
100.72500000000002
10
-66.100000000000009
20
100.72500000000002
42
0.41421356237309503
10
-67
20
99.825000000000017
10
-67
20
98.825000000000003
42
0.41421356237309503
10
-66.100000000000009
20
97.925000000000011
10
-38.962499999999991
20
97.925000000000011
42
-0.41421356237309503
10
-37.762499999999989
20
96.725000000000009
10
-37.762500000000003
20
95.925063999999992
42
-0.41421356237309503
10
-38.962499999999999
20
94.725064000000003
10
-103.4375
20
94.725064000000003
42
-0.41421356237309503
10
-104.63749999999999
20
95.925063999999992
10
-104.63749999999999
20
96.725000000000009
42
-0.41421356237309503
10
-103.4375
20
97.925000000000011
10
-76.299999999999983
20
97.925000000000011
42
0.41421356237309503
10
-75.399999999999991
20
98.825000000000003
10
-75.399999999999991
20
99.825000000000017
42
0.41421356237309503
10
-76.299999999999983
20
100.72500000000002
10
-137.77500000000001
20
100.72500000000002
42
0.41421356237309503
10
-138.67500000000001
20
99.825000000000017
10
-138.67500000000001
20
98.825000000000003
42
0.41421356237309503
10
-137.77500000000001
20
97.925000000000011
10
-110.63749999999999
20
97.925000000000011
42
-0.41421356237309503
10
-109.4375
20
96.725000000000009
10
-109.4375
20
95.925063999999992
42
-0.41421356237309503
10
-110.63749999999999
20
94.725064000000003
10
-175.11250000000001
20
94.725063999999989
42
-0.41421356237309503
10
-176.3125
20
95.925063999999992
10
-176.3125
20
96.725000000000009
42
-0.41421356237309503
10
-175.11250000000001
20
97.925000000000011
10
-147.97499999999999
20
97.925000000000011
42
0.41421356237309503
10
-147.07499999999999
20
98.825000000000003
10
-147.07499999999999
20
99.825000000000017
42
0.41421356237309503
10
-147.97499999999999
20
100.72500000000002
10
-209.44999999999996
20
100.72500000000002
42
0.41421356237309503
10
-210.34999999999997
20
99.825000000000017
10
-210.34999999999997
20
98.825000000000003
42
0.41421356237309503
10
-209.44999999999996
20
97.925000000000011
10
-182.3125
20
97.925000000000026
42
-0.41421356237309503
10
-181.11249999999998
20
96.725000000000009
10
-181.11249999999998
20
95.925063999999992
42
-0.41421356237309503
10
-182.3125
20
94.725064000000003
10
-246.78750000000002
20
94.725063999999989
42
-0.41421356237309076
10
-247.98750000000001
20
95.925063999999978
10
-247.98750000000007
20
96.725000000000009
42
-0.41421356237309503
10
-246.78750000000005
20
97.925000000000011
10
-219.65000000000003
20
97.925000000000011
42
0.41421356237309503
10
-218.75000000000003
20
98.825000000000003
10
-218.75000000000003
20
99.825000000000017
42
0.41421356237309503
10
-219.65000000000003
20
100.72500000000002
10
-281.12499999999994
20
100.72500000000002
42
0.41421356237309503
10
-282.02499999999992
20
99.825000000000017
10
-282.02499999999992
20
98.825000000000003
42
0.41421356237309503
10
-281.12499999999994
20
97.925000000000011
10
-253.98749999999995
20
97.925000000000026
42
-0.41421356237309503
10
-252.78749999999997
20
96.725000000000009
10
-252.78749999999997
20
95.925063999999992
42
-0.41421356237309503
10
-253.98749999999995
20
94.725064000000003
10
-283.22500000000002
20
94.725064000000003
42
0.41421356237309503
10
-285.22500000000002
20
92.725064000000003
10
-285.22500000000002
20
72.125
42
-0.99999999999999989
10
-286.22500000000008
20
72.125
10
-286.22500000000002
20
91.57499999999996
42
0.99999999999999989
10
-288.125
20
91.57499999999996
10
-288.12499999999994
20
3.6750000000000318
42
0.99999999999999989
10
-286.22499999999997
20
3.6749999999999963
10
-286.22500000000008
20
23.124999999999993
42
-0.99999999999999989
10
-285.22500000000002
20
23.125
10
-285.22500000000002
20
2.5249999999999986
42
0.41421356237309498
10
-283.22500000000002
20
0.5249999999999988
10
-253.98750000000001
20
0.5250000000000089
42
-0.41421356237309048
10
-252.78749999999999
20
-0.67499999999998228
10
-252.78749999999997
20
-1.4749999999999983
42
-0.41421356237309537
10
-253.98749999999995
20
-2.6749999999999998
10
-281.12499999999994
20
-2.6749999999999998
42
0.41421356237309503
10
-282.02499999999992
20
-3.5749999999999993
10
-282.02499999999992
20
-4.575000000000002
42
0.41421356237309503
10
-281.12499999999994
20
-5.4749999999999996
10
-219.65000000000003
20
-5.4750000000000014
42
0.41421356237309503
10
-218.75000000000003
20
-4.5750000000000011
10
-218.75000000000003
20
-3.5749999999999993
42
0.41421356237309503
10
-219.65000000000003
20
-2.6750000000000007
10
-246.78750000000005
20
-2.6750000000000096
42
-0.41421356237309498
10
-247.98750000000007
20
-1.4749999999999996
10
-247.98750000000007
20
-0.67500000000000016
42
-0.41421356237309476
10
-246.78750000000005
20
0.5249999999999988
10
-182.31250000000003
20
0.5250000000000089
42
-0.41421356237309481
10
-181.11250000000001
20
-0.67500000000000004
10
-181.11249999999998
20
-1.4749999999999996
42
-0.41421356237309503
10
-182.3125
20
-2.6749999999999998
10
-209.44999999999996
20
-2.6749999999999998
42
0.41421356237309503
10
-210.34999999999997
20
-3.5749999999999993
10
-210.34999999999997
20
-4.575000000000002
42
0.41421356237309503
10
-209.44999999999996
20
-5.4749999999999996
10
-147.97499999999999
20
-5.4750000000000014
42
0.41421356237309503
10
-147.07499999999999
20
-4.5750000000000011
10
-147.07499999999999
20
-3.5749999999999993
42
0.41421356237309503
10
-147.97499999999999
20
-2.6750000000000007
10
-175.11250000000001
20
-2.6750000000000096
42
-0.41421356237309498
10
-176.3125
20
-1.4749999999999996
10
-176.3125
20
-0.67500000000000016
42
-0.41421356237309476
10
-175.11250000000001
20
0.5249999999999988
10
-110.63749999999999
20
0.52499999999999114
42
-0.41421356237309481
10
-109.4375
20
-0.67500000000000004
10
-109.4375
20
-1.4749999999999996
42
-0.41421356237309498
10
-110.63749999999999
20
-2.6749999999999998
10
-137.77500000000001
20
-2.6750000000000003
42
0.41421356237309503
10
-138.67500000000001
20
-3.5750000000000002
10
-138.67500000000001
20
-4.575000000000002
42
0.41421356237309503
10
-137.77500000000001
20
-5.4749999999999996
10
-76.299999999999983
20
-5.4750000000000014
42
0.41421356237309503
10
-75.399999999999991
20
-4.5750000000000011
10
-75.399999999999991
20
-3.5749999999999993
42
0.41421356237309503
10
-76.299999999999983
20
-2.6750000000000007
10
-103.4375
20
-2.6749999999999918
42
-0.41421356237309498
10
-104.63749999999999
20
-1.4749999999999996
10
-104.63749999999999
20
-0.67500000000000027
42
-0.41421356237309481
10
-103.4375
20
0.52499999999999891
10
-38.962500000000006
20
0.52500000000000002
42
-0.41421356237309481
10
-37.762500000000003
20
-0.67500000000000449
10
-37.762499999999996
20
-1.4749999999999996
42
-0.41421356237309498
10
-38.962499999999999
20
-2.6749999999999998
10
-66.100000000000009
20
-2.6750000000000003
42
0.41421356237309503
10
-67
20
-3.5750000000000002
10
-67
20
-4.575000000000002
42
0.41421356237309503
10
-66.100000000000009
20
-5.4749999999999996
10
-4.6250000000000036
20
-5.4750000000000014
42
0.41421356237309398
10
-3.7250000000000072
20
-4.5750000000000011
10
-3.7250000000000072
20
-3.5749999999999993
42
0.41421356237309431
10
-4.6250000000000036
20
-2.6750000000000007
10
-31.762500000000003
20
-2.6750000000000007
42
-0.41421356237309498
10
-32.962500000000006
20
-1.4749999999999996
10
-32.962500000000013
20
-0.67499999999999583
42
-0.41421356237309809
10
-31.762499999999996
20
0.5249999999999988
10
-2.5249999999999995
20
0.5249999999999988
42
0.41421356237309498
10
-0.52499999999999991
20
2.524999999999999
10
-0.52499999999999247
20
23.124999999999996
42
-0.99999999999999989
10
0.47500000000000758
20
23.124999999999996
10
0.47500000000000764
20
3.6750000000000052
42
0.99999999999999989
10
2.3750000000000075
20
3.6749999999999798
0
LINE
5
101
100
AcDbEntity
8
0
100
AcDbLine
10
-286.22500000000002
20
27.124999999999989
30
9.5367355401609899e-08
11
-286.22500000000002
21
68.124999999999986
31
9.5367235219967483e-08
0
ARC
5
102
100
AcDbEntity
8
0
100
AcDbCircle
10
-285.72500000000002
20
68.124999999999986
30
9.5367426733439231e-08
40
0.50000000000000711
210
0
220
0
230
1
100
AcDbArc
50
0
51
180
0
LINE
5
103
100
AcDbEntity
8
0
100
AcDbLine
10
-285.22500000000002
20
68.124999999999986
30
9.5367426733439231e-08
11
-285.22500000000002
21
58.375
31
9.536743117433133e-08
0
LINE
5
104
100
AcDbEntity
8
0
100
AcDbLine
10
-285.22500000000002
20
55.875
30
9.536743117433133e-08
11
-285.22500000000002
21
27.124999999999986
31
9.536743117433133e-08
0
ARC
5
105
100
AcDbEntity
8
0
100
AcDbCircle
10
-285.72500000000002
20
27.124999999999989
30
9.5367435615223428e-08
40
0.49999999999997158
210
-1.6042722705834423e-13
220
0
230
1
100
AcDbArc
50
180
51
360
0
ARC
5
106
100
AcDbEntity
8
0
100
AcDbCircle
10
-278.63799999999998
20
2.5399999999999991
30
9.536743117433133e-08
40
1.5240000000021772
210
0
220
0
230
1
100
AcDbArc
50
-244.46866288627587
51
72.096812554846821
0
ARC
5
107
100
AcDbEntity
8
0
100
AcDbCircle
10
-0.025000000000000036
20
27.124999999999989
30
9.5367435615223428e-08
40
0.5
210
0
220
0
230
1
100
AcDbArc
50
-180
51
0
0
LINE
5
108
100
AcDbEntity
8
0
100
AcDbLine
10
-0.52500000000000002
20
27.124999999999989
30
9.5367435615223428e-08
11
-0.52500000000000002
21
55.875
31
9.536743117433133e-08
0
LINE
5
109
100
AcDbEntity
8
0
100
AcDbLine
10
-0.52499999999999991
20
58.375
30
9.536743117433133e-08
11
-0.52500000000000013
21
68.124999999999986
31
9.536743117433133e-08
0
ARC
5
110
100
AcDbEntity
8
0
100
AcDbCircle
10
-0.024999999999992594
20
68.124999999999986
30
9.5367426733439231e-08
40
0.49999999999999994
210
0
220
0
230
1
100
AcDbArc
50
0
51
180
0
LINE
5
111
100
AcDbEntity
8
0
100
AcDbLine
10
0.47500000000000736
20
68.124999999999986
30
9.5367426733439231e-08
11
0.47499999999999998
21
27.125
31
9.5367435615223428e-08
0
LINE
5
112
100
AcDbEntity
8
0
100
AcDbLine
10
-285.22500000000002
20
55.875
30
9.536743117433133e-08
11
-285.22500000000002
21
58.375
31
9.536743117433133e-08
0
LINE
5
113
100
AcDbEntity
8
0
100
AcDbLine
10
-0.52500000000000002
20
55.875
30
9.536743117433133e-08
11
-0.52499999999999991
21
58.375
31
9.536743117433133e-08
0
ENDSEC
0
SECTION
2
OBJECTS
0
DICTIONARY
5
C
100
AcDbDictionary
3
ACAD_GROUP
350
D
3
ACAD_MLINESTYLE
350
17
0
DICTIONARY
5
D
100
AcDbDictionary
0
DICTIONARY
5
1A
330
C
100
AcDbDictionary
0
DICTIONARY
5
17
100
AcDbDictionary
0
ENDSEC
0
EOF
