%TF.GenerationSoftware,KiCad,Pcbnew,(6.0.10)*%
%TF.CreationDate,2023-01-19T12:44:57+01:00*%
%TF.ProjectId,SST60,53535436-302e-46b6-9963-61645f706362,0.1*%
%TF.SameCoordinates,Original*%
%TF.FileFunction,Profile,NP*%
%FSLAX46Y46*%
G04 Gerber Fmt 4.6, Leading zero omitted, Abs format (unit mm)*
G04 Created by KiCad (PCBNEW (6.0.10)) date 2023-01-19 12:44:57*
%MOMM*%
%LPD*%
G01*
G04 APERTURE LIST*
%TA.AperFunction,Profile*%
%ADD10C,0.200000*%
%TD*%
G04 APERTURE END LIST*
D10*
%TO.C,H1*%
X275303015Y-40212507D02*
X265880011Y-40212507D01*
X87271010Y-134412500D02*
X123929007Y-134412500D01*
X218050009Y-132087499D02*
X218318014Y-132087499D01*
X54897005Y-134412500D02*
X76241003Y-134412500D01*
X32275008Y-95412496D02*
X35168005Y-95412496D01*
X44350008Y-132087499D02*
X47925005Y-132087499D01*
X130930014Y-132087499D02*
X131200003Y-132087499D01*
X316975012Y-97612500D02*
X314082007Y-97612500D01*
X314082007Y-95412496D02*
X316975012Y-95412496D01*
X308015997Y-134412500D02*
X314975012Y-134412500D01*
X225321005Y-134412500D02*
X261979010Y-134412500D01*
X39234007Y-40212507D02*
X34275008Y-40212507D01*
X254820013Y-40212507D02*
X225321005Y-40212507D01*
X65805006Y-40212507D02*
X45466006Y-40212507D01*
X301784003Y-40212507D02*
X283445013Y-40212507D01*
X218304007Y-42537504D02*
X218050009Y-42537504D01*
X314975012Y-40212507D02*
X308015997Y-40212507D01*
X32275008Y-42212507D02*
X32275008Y-95412496D01*
X273009009Y-134412500D02*
X294353003Y-134412500D01*
X134316000Y-134412500D02*
X214934012Y-134412500D01*
X316975012Y-132412500D02*
X316975012Y-97612500D01*
X214934012Y-40212507D02*
X134316000Y-40212507D01*
X34275008Y-134412500D02*
X41234007Y-134412500D01*
X131200003Y-42537504D02*
X130974005Y-42537504D01*
X83370009Y-40212507D02*
X73947005Y-40212507D01*
X35168005Y-97612500D02*
X32275008Y-97612500D01*
X301442999Y-132087499D02*
X304900000Y-132087499D01*
X123929007Y-40212507D02*
X94430006Y-40212507D01*
X316975012Y-95412496D02*
X316975012Y-42212507D01*
X32275008Y-97612500D02*
X32275008Y-132412500D01*
X134316000Y-134412500D02*
G75*
G03*
X131200003Y-132087499I-3115094J-924340D01*
G01*
X300797001Y-131819499D02*
G75*
G03*
X294924017Y-133841501I-2372251J-2649861D01*
G01*
X314082007Y-95412500D02*
G75*
G03*
X314082007Y-97612500I-7J-1100000D01*
G01*
X261979010Y-134412510D02*
G75*
G03*
X262535010Y-133856500I-510J556510D01*
G01*
X300796997Y-131819503D02*
G75*
G03*
X301442999Y-132087499I647003J647003D01*
G01*
X255391013Y-40783506D02*
G75*
G03*
X265308997Y-40783506I4958992J770504D01*
G01*
X214934033Y-40212501D02*
G75*
G03*
X218050009Y-42537504I3115067J924301D01*
G01*
X86715009Y-133856500D02*
G75*
G03*
X76797011Y-133856500I-4958999J-770498D01*
G01*
X272453010Y-133856500D02*
G75*
G03*
X262535010Y-133856500I-4959000J-770497D01*
G01*
X83941007Y-40783506D02*
G75*
G03*
X93859007Y-40783506I4959000J770510D01*
G01*
X124500006Y-40783506D02*
G75*
G03*
X130410010Y-42771497I3500403J627401D01*
G01*
X54326006Y-133841501D02*
G75*
G03*
X48359007Y-131907499I-3499969J-626468D01*
G01*
X218817032Y-42749469D02*
G75*
G03*
X218304007Y-42537504I-511732J-511731D01*
G01*
X34275008Y-40212507D02*
G75*
G03*
X32275008Y-42212507I723J-2000723D01*
G01*
X76241003Y-134412500D02*
G75*
G03*
X76797011Y-133856500I-518J556526D01*
G01*
X314975012Y-134412512D02*
G75*
G03*
X316975012Y-132412500I-712J2000712D01*
G01*
X123929007Y-134412500D02*
G75*
G03*
X124500006Y-133841501I824J570175D01*
G01*
X294353003Y-134412517D02*
G75*
G03*
X294924017Y-133841501I797J570217D01*
G01*
X66376005Y-40783506D02*
G75*
G03*
X65805006Y-40212507I-570161J838D01*
G01*
X44350008Y-132087499D02*
G75*
G03*
X41234007Y-134412500I-899J-3249351D01*
G01*
X308016036Y-134412489D02*
G75*
G03*
X304900000Y-132087499I-3115136J-924411D01*
G01*
X275873999Y-40783506D02*
G75*
G03*
X282873999Y-40783506I3500000J626656D01*
G01*
X73947005Y-40212507D02*
G75*
G03*
X73376005Y-40783506I-839J-570161D01*
G01*
X316974993Y-42212507D02*
G75*
G03*
X314975012Y-40212507I-2000693J-693D01*
G01*
X224750000Y-133841501D02*
G75*
G03*
X225321005Y-134412500I570200J-799D01*
G01*
X86715010Y-133856500D02*
G75*
G03*
X87271010Y-134412500I556511J511D01*
G01*
X32275008Y-132412500D02*
G75*
G03*
X34275008Y-134412500I2000729J729D01*
G01*
X218817008Y-42749493D02*
G75*
G03*
X224750006Y-40783506I2432972J2593083D01*
G01*
X225321005Y-40212506D02*
G75*
G03*
X224750006Y-40783506I-805J-570194D01*
G01*
X66376005Y-40783506D02*
G75*
G03*
X73376005Y-40783506I3500000J626656D01*
G01*
X218318014Y-132087518D02*
G75*
G03*
X218807013Y-131884500I-2614J696718D01*
G01*
X130445013Y-131886499D02*
G75*
G03*
X130930014Y-132087499I484827J484219D01*
G01*
X47925005Y-132087499D02*
G75*
G03*
X48359007Y-131907499I-858J615285D01*
G01*
X218050009Y-132087503D02*
G75*
G03*
X214934012Y-134412500I-959J-3249267D01*
G01*
X35168005Y-97612500D02*
G75*
G03*
X35168005Y-95412496I1J1100002D01*
G01*
X283445013Y-40212499D02*
G75*
G03*
X282873999Y-40783506I-813J-570201D01*
G01*
X131200003Y-42537505D02*
G75*
G03*
X134316000Y-40212507I891J3249358D01*
G01*
X265880011Y-40212497D02*
G75*
G03*
X265308997Y-40783506I-811J-570203D01*
G01*
X83941008Y-40783506D02*
G75*
G03*
X83370009Y-40212507I-570161J838D01*
G01*
X255390993Y-40783506D02*
G75*
G03*
X254820013Y-40212507I-570193J806D01*
G01*
X272453000Y-133856500D02*
G75*
G03*
X273009009Y-134412500I556500J500D01*
G01*
X275873993Y-40783506D02*
G75*
G03*
X275303015Y-40212507I-569993J1006D01*
G01*
X124500006Y-40783506D02*
G75*
G03*
X123929007Y-40212507I-570161J838D01*
G01*
X94430006Y-40212507D02*
G75*
G03*
X93859007Y-40783506I-838J-570161D01*
G01*
X39234007Y-40212507D02*
G75*
G03*
X45466006Y-40212507I3115999J925560D01*
G01*
X54326006Y-133841501D02*
G75*
G03*
X54897005Y-134412500I570175J-824D01*
G01*
X301784003Y-40212507D02*
G75*
G03*
X308015997Y-40212507I3115997J925555D01*
G01*
X224749970Y-133841507D02*
G75*
G03*
X218807013Y-131884500I-3499870J-626093D01*
G01*
X130445013Y-131886499D02*
G75*
G03*
X124500006Y-133841501I-2444801J-2582202D01*
G01*
X130974005Y-42537504D02*
G75*
G03*
X130410010Y-42771497I1388J-800042D01*
G01*
%TD*%
M02*
