%TF.GenerationSoftware,KiCad,Pcbnew,(6.0.11)*%
%TF.CreationDate,2023-02-10T12:31:59+01:00*%
%TF.ProjectId,plate,706c6174-652e-46b6-9963-61645f706362,rev?*%
%TF.SameCoordinates,Original*%
%TF.FileFunction,Profile,NP*%
%FSLAX46Y46*%
G04 Gerber Fmt 4.6, Leading zero omitted, Abs format (unit mm)*
G04 Created by KiCad (PCBNEW (6.0.11)) date 2023-02-10 12:31:59*
%MOMM*%
%LPD*%
G01*
G04 APERTURE LIST*
%TA.AperFunction,Profile*%
%ADD10C,0.200000*%
%TD*%
G04 APERTURE END LIST*
D10*
X23439372Y-33264400D02*
G75*
G03*
X23439372Y-33264400I-1250000J0D01*
G01*
X271097372Y-134964400D02*
G75*
G03*
X271097372Y-134964400I-1250000J0D01*
G01*
X147268372Y-33264400D02*
G75*
G03*
X147268372Y-33264400I-1250000J0D01*
G01*
X23439372Y-134964400D02*
G75*
G03*
X23439372Y-134964400I-1250000J0D01*
G01*
X147268372Y-134964400D02*
G75*
G03*
X147268372Y-134964400I-1250000J0D01*
G01*
X271097372Y-33264400D02*
G75*
G03*
X271097372Y-33264400I-1250000J0D01*
G01*
X32247200Y-74589400D02*
G75*
G03*
X32247200Y-74589400I-525000J0D01*
G01*
X260847200Y-74589400D02*
G75*
G03*
X260847200Y-74589400I-525000J0D01*
G01*
X237034700Y-112689400D02*
G75*
G03*
X237034700Y-112689400I-525000J0D01*
G01*
X37009700Y-93639400D02*
G75*
G03*
X37009700Y-93639400I-525000J0D01*
G01*
X22722200Y-55539400D02*
G75*
G03*
X22722200Y-55539400I-525000J0D01*
G01*
X46534700Y-112689400D02*
G75*
G03*
X46534700Y-112689400I-525000J0D01*
G01*
X246559700Y-93639400D02*
G75*
G03*
X246559700Y-93639400I-525000J0D01*
G01*
X251322200Y-55539400D02*
G75*
G03*
X251322200Y-55539400I-525000J0D01*
G01*
X179884700Y-112689400D02*
G75*
G03*
X179884700Y-112689400I-525000J0D01*
G01*
X103684700Y-112689400D02*
G75*
G03*
X103684700Y-112689400I-525000J0D01*
G01*
X113209700Y-93639400D02*
G75*
G03*
X113209700Y-93639400I-525000J0D01*
G01*
X189409700Y-93639400D02*
G75*
G03*
X189409700Y-93639400I-525000J0D01*
G01*
X222747200Y-74589400D02*
G75*
G03*
X222747200Y-74589400I-525000J0D01*
G01*
X146547200Y-74589400D02*
G75*
G03*
X146547200Y-74589400I-525000J0D01*
G01*
X70347200Y-74589400D02*
G75*
G03*
X70347200Y-74589400I-525000J0D01*
G01*
X41772200Y-55539400D02*
G75*
G03*
X41772200Y-55539400I-525000J0D01*
G01*
X117972200Y-55539400D02*
G75*
G03*
X117972200Y-55539400I-525000J0D01*
G01*
X194172200Y-55539400D02*
G75*
G03*
X194172200Y-55539400I-525000J0D01*
G01*
X213222200Y-55539400D02*
G75*
G03*
X213222200Y-55539400I-525000J0D01*
G01*
X137022200Y-55539400D02*
G75*
G03*
X137022200Y-55539400I-525000J0D01*
G01*
X60822200Y-55539400D02*
G75*
G03*
X60822200Y-55539400I-525000J0D01*
G01*
X127497200Y-74589400D02*
G75*
G03*
X127497200Y-74589400I-525000J0D01*
G01*
X203697200Y-74589400D02*
G75*
G03*
X203697200Y-74589400I-525000J0D01*
G01*
X208459700Y-93639400D02*
G75*
G03*
X208459700Y-93639400I-525000J0D01*
G01*
X132259700Y-93639400D02*
G75*
G03*
X132259700Y-93639400I-525000J0D01*
G01*
X56059700Y-93639400D02*
G75*
G03*
X56059700Y-93639400I-525000J0D01*
G01*
X84634700Y-112689400D02*
G75*
G03*
X84634700Y-112689400I-525000J0D01*
G01*
X160834700Y-112689400D02*
G75*
G03*
X160834700Y-112689400I-525000J0D01*
G01*
X198934700Y-112689400D02*
G75*
G03*
X198934700Y-112689400I-525000J0D01*
G01*
X122734700Y-112689400D02*
G75*
G03*
X122734700Y-112689400I-525000J0D01*
G01*
X65584700Y-112689400D02*
G75*
G03*
X65584700Y-112689400I-525000J0D01*
G01*
X94159700Y-93639400D02*
G75*
G03*
X94159700Y-93639400I-525000J0D01*
G01*
X170359700Y-93639400D02*
G75*
G03*
X170359700Y-93639400I-525000J0D01*
G01*
X241797200Y-74589400D02*
G75*
G03*
X241797200Y-74589400I-525000J0D01*
G01*
X165597200Y-74589400D02*
G75*
G03*
X165597200Y-74589400I-525000J0D01*
G01*
X89397200Y-74589400D02*
G75*
G03*
X89397200Y-74589400I-525000J0D01*
G01*
X98922200Y-55539400D02*
G75*
G03*
X98922200Y-55539400I-525000J0D01*
G01*
X175122200Y-55539400D02*
G75*
G03*
X175122200Y-55539400I-525000J0D01*
G01*
X232272200Y-55539400D02*
G75*
G03*
X232272200Y-55539400I-525000J0D01*
G01*
X156072200Y-55539400D02*
G75*
G03*
X156072200Y-55539400I-525000J0D01*
G01*
X79872200Y-55539400D02*
G75*
G03*
X79872200Y-55539400I-525000J0D01*
G01*
X51297200Y-74589400D02*
G75*
G03*
X51297200Y-74589400I-525000J0D01*
G01*
X108447200Y-74589400D02*
G75*
G03*
X108447200Y-74589400I-525000J0D01*
G01*
X184647200Y-74589400D02*
G75*
G03*
X184647200Y-74589400I-525000J0D01*
G01*
X227509700Y-93639400D02*
G75*
G03*
X227509700Y-93639400I-525000J0D01*
G01*
X151309700Y-93639400D02*
G75*
G03*
X151309700Y-93639400I-525000J0D01*
G01*
X75109700Y-93639400D02*
G75*
G03*
X75109700Y-93639400I-525000J0D01*
G01*
X141784700Y-112689400D02*
G75*
G03*
X141784700Y-112689400I-525000J0D01*
G01*
X217984700Y-112689400D02*
G75*
G03*
X217984700Y-112689400I-525000J0D01*
G01*
X92372200Y-115714400D02*
G75*
G03*
X91872200Y-115214400I-500001J-1D01*
G01*
X85872200Y-115214400D02*
X91872200Y-115214400D01*
X85872200Y-115214400D02*
G75*
G03*
X85372200Y-115714400I1J-500001D01*
G01*
X85372200Y-128714400D02*
X85372200Y-115714400D01*
X85372200Y-128714400D02*
G75*
G03*
X85872200Y-129214400I500001J1D01*
G01*
X91872200Y-129214400D02*
X85872200Y-129214400D01*
X91872200Y-129214400D02*
G75*
G03*
X92372200Y-128714400I-1J500001D01*
G01*
X92372200Y-115714400D02*
X92372200Y-128714400D01*
X199672200Y-128714400D02*
G75*
G03*
X200172200Y-129214400I500001J1D01*
G01*
X206172200Y-129214400D02*
X200172200Y-129214400D01*
X206172200Y-129214400D02*
G75*
G03*
X206672200Y-128714400I-1J500001D01*
G01*
X206672200Y-115714400D02*
X206672200Y-128714400D01*
X206672200Y-115714400D02*
G75*
G03*
X206172200Y-115214400I-500001J-1D01*
G01*
X200172200Y-115214400D02*
X206172200Y-115214400D01*
X200172200Y-115214400D02*
G75*
G03*
X199672200Y-115714400I1J-500001D01*
G01*
X199672200Y-128714400D02*
X199672200Y-115714400D01*
X150518330Y-131739400D02*
G75*
G03*
X148518330Y-133739359I0J-2000000D01*
G01*
X148518305Y-134982707D02*
X148518330Y-133739359D01*
X143518509Y-134938196D02*
G75*
G03*
X148518305Y-134982707I2499863J-26204D01*
G01*
X143518457Y-133739314D02*
X143518509Y-134938196D01*
X143518457Y-133739314D02*
G75*
G03*
X141518457Y-131739400I-1999999J-85D01*
G01*
X26689330Y-131739400D02*
X141518457Y-131739400D01*
X26689330Y-131739400D02*
G75*
G03*
X24689330Y-133739359I0J-2000000D01*
G01*
X24689305Y-134982707D02*
X24689330Y-133739359D01*
X19689509Y-134938196D02*
G75*
G03*
X24689305Y-134982707I2499863J-26204D01*
G01*
X19689457Y-133739314D02*
X19689509Y-134938196D01*
X19689457Y-133739314D02*
G75*
G03*
X17689457Y-131739400I-1999999J-85D01*
G01*
X5147200Y-131739400D02*
X17689457Y-131739400D01*
X3147200Y-129739400D02*
G75*
G03*
X5147200Y-131739400I1999999J-1D01*
G01*
X3147200Y-38489400D02*
X3147200Y-129739400D01*
X5147200Y-36489400D02*
G75*
G03*
X3147200Y-38489400I-1J-1999999D01*
G01*
X17689457Y-36489400D02*
X5147200Y-36489400D01*
X17689457Y-36489400D02*
G75*
G03*
X19689457Y-34489486I1J1999999D01*
G01*
X19689509Y-33290604D02*
X19689457Y-34489486D01*
X24689305Y-33246093D02*
G75*
G03*
X19689509Y-33290604I-2499933J-18307D01*
G01*
X24689330Y-34489441D02*
X24689305Y-33246093D01*
X24689330Y-34489441D02*
G75*
G03*
X26689330Y-36489400I2000000J41D01*
G01*
X141518457Y-36489400D02*
X26689330Y-36489400D01*
X141518457Y-36489400D02*
G75*
G03*
X143518457Y-34489486I1J1999999D01*
G01*
X143518509Y-33290604D02*
X143518457Y-34489486D01*
X148518305Y-33246093D02*
G75*
G03*
X143518509Y-33290604I-2499933J-18307D01*
G01*
X148518330Y-34489441D02*
X148518305Y-33246093D01*
X148518330Y-34489441D02*
G75*
G03*
X150518330Y-36489400I2000000J41D01*
G01*
X265347457Y-36489400D02*
X150518330Y-36489400D01*
X265347457Y-36489400D02*
G75*
G03*
X267347457Y-34489486I1J1999999D01*
G01*
X267347509Y-33290604D02*
X267347457Y-34489486D01*
X272347305Y-33246093D02*
G75*
G03*
X267347509Y-33290604I-2499933J-18307D01*
G01*
X272347330Y-34489441D02*
X272347305Y-33246093D01*
X272347330Y-34489441D02*
G75*
G03*
X274347330Y-36489400I2000000J41D01*
G01*
X286897200Y-36489400D02*
X274347330Y-36489400D01*
X288897200Y-38489400D02*
G75*
G03*
X286897200Y-36489400I-1999999J1D01*
G01*
X288897200Y-129739400D02*
X288897200Y-38489400D01*
X286897200Y-131739400D02*
G75*
G03*
X288897200Y-129739400I1J1999999D01*
G01*
X274347330Y-131739400D02*
X286897200Y-131739400D01*
X274347330Y-131739400D02*
G75*
G03*
X272347330Y-133739359I0J-2000000D01*
G01*
X272347305Y-134982707D02*
X272347330Y-133739359D01*
X267347509Y-134938196D02*
G75*
G03*
X272347305Y-134982707I2499863J-26204D01*
G01*
X267347457Y-133739314D02*
X267347509Y-134938196D01*
X267347457Y-133739314D02*
G75*
G03*
X265347457Y-131739400I-1999999J-85D01*
G01*
X150518330Y-131739400D02*
X265347457Y-131739400D01*
X21672200Y-39514400D02*
X21672200Y-52514400D01*
X22172200Y-39014400D02*
G75*
G03*
X21672200Y-39514400I1J-500001D01*
G01*
X22222200Y-39014400D02*
X22172200Y-39014400D01*
X22722200Y-39514400D02*
G75*
G03*
X22222200Y-39014400I-500001J-1D01*
G01*
X22722200Y-52514400D02*
X22722200Y-39514400D01*
X22222200Y-53014400D02*
G75*
G03*
X22722200Y-52514400I-1J500001D01*
G01*
X22172200Y-53014400D02*
X22222200Y-53014400D01*
X21672200Y-52514400D02*
G75*
G03*
X22172200Y-53014400I500001J1D01*
G01*
X37009700Y-77614400D02*
G75*
G03*
X36509700Y-77114400I-500001J-1D01*
G01*
X36459700Y-77114400D02*
X36509700Y-77114400D01*
X36459700Y-77114400D02*
G75*
G03*
X35959700Y-77614400I1J-500001D01*
G01*
X35959700Y-90614400D02*
X35959700Y-77614400D01*
X35959700Y-90614400D02*
G75*
G03*
X36459700Y-91114400I500001J1D01*
G01*
X36509700Y-91114400D02*
X36459700Y-91114400D01*
X36509700Y-91114400D02*
G75*
G03*
X37009700Y-90614400I-1J500001D01*
G01*
X37009700Y-77614400D02*
X37009700Y-90614400D01*
X236484700Y-110164400D02*
X236534700Y-110164400D01*
X235984700Y-109664400D02*
G75*
G03*
X236484700Y-110164400I500001J1D01*
G01*
X235984700Y-96664400D02*
X235984700Y-109664400D01*
X236484700Y-96164400D02*
G75*
G03*
X235984700Y-96664400I1J-500001D01*
G01*
X236534700Y-96164400D02*
X236484700Y-96164400D01*
X237034700Y-96664400D02*
G75*
G03*
X236534700Y-96164400I-500001J-1D01*
G01*
X237034700Y-109664400D02*
X237034700Y-96664400D01*
X236534700Y-110164400D02*
G75*
G03*
X237034700Y-109664400I-1J500001D01*
G01*
X260297200Y-72064400D02*
X260347200Y-72064400D01*
X259797200Y-71564400D02*
G75*
G03*
X260297200Y-72064400I500001J1D01*
G01*
X259797200Y-58564400D02*
X259797200Y-71564400D01*
X260297200Y-58064400D02*
G75*
G03*
X259797200Y-58564400I1J-500001D01*
G01*
X260347200Y-58064400D02*
X260297200Y-58064400D01*
X260847200Y-58564400D02*
G75*
G03*
X260347200Y-58064400I-500001J-1D01*
G01*
X260847200Y-71564400D02*
X260847200Y-58564400D01*
X260347200Y-72064400D02*
G75*
G03*
X260847200Y-71564400I-1J500001D01*
G01*
X251322200Y-52514400D02*
X251322200Y-39514400D01*
X250822200Y-53014400D02*
G75*
G03*
X251322200Y-52514400I-1J500001D01*
G01*
X250772200Y-53014400D02*
X250822200Y-53014400D01*
X250272200Y-52514400D02*
G75*
G03*
X250772200Y-53014400I500001J1D01*
G01*
X250272200Y-39514400D02*
X250272200Y-52514400D01*
X250772200Y-39014400D02*
G75*
G03*
X250272200Y-39514400I1J-500001D01*
G01*
X250822200Y-39014400D02*
X250772200Y-39014400D01*
X251322200Y-39514400D02*
G75*
G03*
X250822200Y-39014400I-500001J-1D01*
G01*
X246559700Y-77614400D02*
G75*
G03*
X246059700Y-77114400I-500001J-1D01*
G01*
X246009700Y-77114400D02*
X246059700Y-77114400D01*
X246009700Y-77114400D02*
G75*
G03*
X245509700Y-77614400I1J-500001D01*
G01*
X245509700Y-90614400D02*
X245509700Y-77614400D01*
X245509700Y-90614400D02*
G75*
G03*
X246009700Y-91114400I500001J1D01*
G01*
X246059700Y-91114400D02*
X246009700Y-91114400D01*
X246059700Y-91114400D02*
G75*
G03*
X246559700Y-90614400I-1J500001D01*
G01*
X246559700Y-77614400D02*
X246559700Y-90614400D01*
X46534700Y-109664400D02*
X46534700Y-96664400D01*
X46034700Y-110164400D02*
G75*
G03*
X46534700Y-109664400I-1J500001D01*
G01*
X45984700Y-110164400D02*
X46034700Y-110164400D01*
X45484700Y-109664400D02*
G75*
G03*
X45984700Y-110164400I500001J1D01*
G01*
X45484700Y-96664400D02*
X45484700Y-109664400D01*
X45984700Y-96164400D02*
G75*
G03*
X45484700Y-96664400I1J-500001D01*
G01*
X46034700Y-96164400D02*
X45984700Y-96164400D01*
X46534700Y-96664400D02*
G75*
G03*
X46034700Y-96164400I-500001J-1D01*
G01*
X31697200Y-72064400D02*
X31747200Y-72064400D01*
X31197200Y-71564400D02*
G75*
G03*
X31697200Y-72064400I500001J1D01*
G01*
X31197200Y-58564400D02*
X31197200Y-71564400D01*
X31697200Y-58064400D02*
G75*
G03*
X31197200Y-58564400I1J-500001D01*
G01*
X31747200Y-58064400D02*
X31697200Y-58064400D01*
X32247200Y-58564400D02*
G75*
G03*
X31747200Y-58064400I-500001J-1D01*
G01*
X32247200Y-71564400D02*
X32247200Y-58564400D01*
X31747200Y-72064400D02*
G75*
G03*
X32247200Y-71564400I-1J500001D01*
G01*
X74609700Y-91114400D02*
G75*
G03*
X75109700Y-90614400I-1J500001D01*
G01*
X75109700Y-77614400D02*
X75109700Y-90614400D01*
X75109700Y-77614400D02*
G75*
G03*
X74609700Y-77114400I-500001J-1D01*
G01*
X74559700Y-77114400D02*
X74609700Y-77114400D01*
X74559700Y-77114400D02*
G75*
G03*
X74059700Y-77614400I1J-500001D01*
G01*
X74059700Y-90614400D02*
X74059700Y-77614400D01*
X74059700Y-90614400D02*
G75*
G03*
X74559700Y-91114400I500001J1D01*
G01*
X74609700Y-91114400D02*
X74559700Y-91114400D01*
X71559700Y-94164400D02*
G75*
G03*
X72059700Y-93664400I-1J500001D01*
G01*
X72059700Y-93614400D02*
X72059700Y-93664400D01*
X72059700Y-93614400D02*
G75*
G03*
X71559700Y-93114400I-500001J-1D01*
G01*
X58559700Y-93114400D02*
X71559700Y-93114400D01*
X58559700Y-93114400D02*
G75*
G03*
X58059700Y-93614400I1J-500001D01*
G01*
X58059700Y-93664400D02*
X58059700Y-93614400D01*
X58059700Y-93664400D02*
G75*
G03*
X58559700Y-94164400I500001J1D01*
G01*
X71559700Y-94164400D02*
X58559700Y-94164400D01*
X47747200Y-74064400D02*
X34747200Y-74064400D01*
X48247200Y-74564400D02*
G75*
G03*
X47747200Y-74064400I-500001J-1D01*
G01*
X48247200Y-74614400D02*
X48247200Y-74564400D01*
X47747200Y-75114400D02*
G75*
G03*
X48247200Y-74614400I-1J500001D01*
G01*
X34747200Y-75114400D02*
X47747200Y-75114400D01*
X34247200Y-74614400D02*
G75*
G03*
X34747200Y-75114400I500001J1D01*
G01*
X34247200Y-74564400D02*
X34247200Y-74614400D01*
X34747200Y-74064400D02*
G75*
G03*
X34247200Y-74564400I1J-500001D01*
G01*
X85847200Y-75114400D02*
G75*
G03*
X86347200Y-74614400I-1J500001D01*
G01*
X86347200Y-74564400D02*
X86347200Y-74614400D01*
X86347200Y-74564400D02*
G75*
G03*
X85847200Y-74064400I-500001J-1D01*
G01*
X72847200Y-74064400D02*
X85847200Y-74064400D01*
X72847200Y-74064400D02*
G75*
G03*
X72347200Y-74564400I1J-500001D01*
G01*
X72347200Y-74614400D02*
X72347200Y-74564400D01*
X72347200Y-74614400D02*
G75*
G03*
X72847200Y-75114400I500001J1D01*
G01*
X85847200Y-75114400D02*
X72847200Y-75114400D01*
X90609700Y-94164400D02*
G75*
G03*
X91109700Y-93664400I-1J500001D01*
G01*
X91109700Y-93614400D02*
X91109700Y-93664400D01*
X91109700Y-93614400D02*
G75*
G03*
X90609700Y-93114400I-500001J-1D01*
G01*
X77609700Y-93114400D02*
X90609700Y-93114400D01*
X77609700Y-93114400D02*
G75*
G03*
X77109700Y-93614400I1J-500001D01*
G01*
X77109700Y-93664400D02*
X77109700Y-93614400D01*
X77109700Y-93664400D02*
G75*
G03*
X77609700Y-94164400I500001J1D01*
G01*
X90609700Y-94164400D02*
X77609700Y-94164400D01*
X83584700Y-96664400D02*
X83584700Y-109664400D01*
X84084700Y-96164400D02*
G75*
G03*
X83584700Y-96664400I1J-500001D01*
G01*
X84134700Y-96164400D02*
X84084700Y-96164400D01*
X84634700Y-96664400D02*
G75*
G03*
X84134700Y-96164400I-500001J-1D01*
G01*
X84634700Y-109664400D02*
X84634700Y-96664400D01*
X84134700Y-110164400D02*
G75*
G03*
X84634700Y-109664400I-1J500001D01*
G01*
X84084700Y-110164400D02*
X84134700Y-110164400D01*
X83584700Y-109664400D02*
G75*
G03*
X84084700Y-110164400I500001J1D01*
G01*
X100634700Y-112664400D02*
G75*
G03*
X100134700Y-112164400I-500001J-1D01*
G01*
X87134700Y-112164400D02*
X100134700Y-112164400D01*
X87134700Y-112164400D02*
G75*
G03*
X86634700Y-112664400I1J-500001D01*
G01*
X86634700Y-112714400D02*
X86634700Y-112664400D01*
X86634700Y-112714400D02*
G75*
G03*
X87134700Y-113214400I500001J1D01*
G01*
X100134700Y-113214400D02*
X87134700Y-113214400D01*
X100134700Y-113214400D02*
G75*
G03*
X100634700Y-112714400I-1J500001D01*
G01*
X100634700Y-112664400D02*
X100634700Y-112714400D01*
X150809700Y-91114400D02*
G75*
G03*
X151309700Y-90614400I-1J500001D01*
G01*
X151309700Y-77614400D02*
X151309700Y-90614400D01*
X151309700Y-77614400D02*
G75*
G03*
X150809700Y-77114400I-500001J-1D01*
G01*
X150759700Y-77114400D02*
X150809700Y-77114400D01*
X150759700Y-77114400D02*
G75*
G03*
X150259700Y-77614400I1J-500001D01*
G01*
X150259700Y-90614400D02*
X150259700Y-77614400D01*
X150259700Y-90614400D02*
G75*
G03*
X150759700Y-91114400I500001J1D01*
G01*
X150809700Y-91114400D02*
X150759700Y-91114400D01*
X185859700Y-94164400D02*
G75*
G03*
X186359700Y-93664400I-1J500001D01*
G01*
X186359700Y-93614400D02*
X186359700Y-93664400D01*
X186359700Y-93614400D02*
G75*
G03*
X185859700Y-93114400I-500001J-1D01*
G01*
X172859700Y-93114400D02*
X185859700Y-93114400D01*
X172859700Y-93114400D02*
G75*
G03*
X172359700Y-93614400I1J-500001D01*
G01*
X172359700Y-93664400D02*
X172359700Y-93614400D01*
X172359700Y-93664400D02*
G75*
G03*
X172859700Y-94164400I500001J1D01*
G01*
X185859700Y-94164400D02*
X172859700Y-94164400D01*
X197884700Y-96664400D02*
X197884700Y-109664400D01*
X198384700Y-96164400D02*
G75*
G03*
X197884700Y-96664400I1J-500001D01*
G01*
X198434700Y-96164400D02*
X198384700Y-96164400D01*
X198934700Y-96664400D02*
G75*
G03*
X198434700Y-96164400I-500001J-1D01*
G01*
X198934700Y-109664400D02*
X198934700Y-96664400D01*
X198434700Y-110164400D02*
G75*
G03*
X198934700Y-109664400I-1J500001D01*
G01*
X198384700Y-110164400D02*
X198434700Y-110164400D01*
X197884700Y-109664400D02*
G75*
G03*
X198384700Y-110164400I500001J1D01*
G01*
X183597200Y-58564400D02*
X183597200Y-71564400D01*
X184097200Y-58064400D02*
G75*
G03*
X183597200Y-58564400I1J-500001D01*
G01*
X184147200Y-58064400D02*
X184097200Y-58064400D01*
X184647200Y-58564400D02*
G75*
G03*
X184147200Y-58064400I-500001J-1D01*
G01*
X184647200Y-71564400D02*
X184647200Y-58564400D01*
X184147200Y-72064400D02*
G75*
G03*
X184647200Y-71564400I-1J500001D01*
G01*
X184097200Y-72064400D02*
X184147200Y-72064400D01*
X183597200Y-71564400D02*
G75*
G03*
X184097200Y-72064400I500001J1D01*
G01*
X200147200Y-75114400D02*
G75*
G03*
X200647200Y-74614400I-1J500001D01*
G01*
X200647200Y-74564400D02*
X200647200Y-74614400D01*
X200647200Y-74564400D02*
G75*
G03*
X200147200Y-74064400I-500001J-1D01*
G01*
X187147200Y-74064400D02*
X200147200Y-74064400D01*
X187147200Y-74064400D02*
G75*
G03*
X186647200Y-74564400I1J-500001D01*
G01*
X186647200Y-74614400D02*
X186647200Y-74564400D01*
X186647200Y-74614400D02*
G75*
G03*
X187147200Y-75114400I500001J1D01*
G01*
X200147200Y-75114400D02*
X187147200Y-75114400D01*
X216934700Y-96664400D02*
X216934700Y-109664400D01*
X217434700Y-96164400D02*
G75*
G03*
X216934700Y-96664400I1J-500001D01*
G01*
X217484700Y-96164400D02*
X217434700Y-96164400D01*
X217984700Y-96664400D02*
G75*
G03*
X217484700Y-96164400I-500001J-1D01*
G01*
X217984700Y-109664400D02*
X217984700Y-96664400D01*
X217484700Y-110164400D02*
G75*
G03*
X217984700Y-109664400I-1J500001D01*
G01*
X217434700Y-110164400D02*
X217484700Y-110164400D01*
X216934700Y-109664400D02*
G75*
G03*
X217434700Y-110164400I500001J1D01*
G01*
X238247200Y-75114400D02*
G75*
G03*
X238747200Y-74614400I-1J500001D01*
G01*
X238747200Y-74564400D02*
X238747200Y-74614400D01*
X238747200Y-74564400D02*
G75*
G03*
X238247200Y-74064400I-500001J-1D01*
G01*
X225247200Y-74064400D02*
X238247200Y-74064400D01*
X225247200Y-74064400D02*
G75*
G03*
X224747200Y-74564400I1J-500001D01*
G01*
X224747200Y-74614400D02*
X224747200Y-74564400D01*
X224747200Y-74614400D02*
G75*
G03*
X225247200Y-75114400I500001J1D01*
G01*
X238247200Y-75114400D02*
X225247200Y-75114400D01*
X207959700Y-91114400D02*
G75*
G03*
X208459700Y-90614400I-1J500001D01*
G01*
X208459700Y-77614400D02*
X208459700Y-90614400D01*
X208459700Y-77614400D02*
G75*
G03*
X207959700Y-77114400I-500001J-1D01*
G01*
X207909700Y-77114400D02*
X207959700Y-77114400D01*
X207909700Y-77114400D02*
G75*
G03*
X207409700Y-77614400I1J-500001D01*
G01*
X207409700Y-90614400D02*
X207409700Y-77614400D01*
X207409700Y-90614400D02*
G75*
G03*
X207909700Y-91114400I500001J1D01*
G01*
X207959700Y-91114400D02*
X207909700Y-91114400D01*
X93659700Y-91114400D02*
G75*
G03*
X94159700Y-90614400I-1J500001D01*
G01*
X94159700Y-77614400D02*
X94159700Y-90614400D01*
X94159700Y-77614400D02*
G75*
G03*
X93659700Y-77114400I-500001J-1D01*
G01*
X93609700Y-77114400D02*
X93659700Y-77114400D01*
X93609700Y-77114400D02*
G75*
G03*
X93109700Y-77614400I1J-500001D01*
G01*
X93109700Y-90614400D02*
X93109700Y-77614400D01*
X93109700Y-90614400D02*
G75*
G03*
X93609700Y-91114400I500001J1D01*
G01*
X93659700Y-91114400D02*
X93609700Y-91114400D01*
X123947200Y-75114400D02*
G75*
G03*
X124447200Y-74614400I-1J500001D01*
G01*
X124447200Y-74564400D02*
X124447200Y-74614400D01*
X124447200Y-74564400D02*
G75*
G03*
X123947200Y-74064400I-500001J-1D01*
G01*
X110947200Y-74064400D02*
X123947200Y-74064400D01*
X110947200Y-74064400D02*
G75*
G03*
X110447200Y-74564400I1J-500001D01*
G01*
X110447200Y-74614400D02*
X110447200Y-74564400D01*
X110447200Y-74614400D02*
G75*
G03*
X110947200Y-75114400I500001J1D01*
G01*
X123947200Y-75114400D02*
X110947200Y-75114400D01*
X142997200Y-75114400D02*
G75*
G03*
X143497200Y-74614400I-1J500001D01*
G01*
X143497200Y-74564400D02*
X143497200Y-74614400D01*
X143497200Y-74564400D02*
G75*
G03*
X142997200Y-74064400I-500001J-1D01*
G01*
X129997200Y-74064400D02*
X142997200Y-74064400D01*
X129997200Y-74064400D02*
G75*
G03*
X129497200Y-74564400I1J-500001D01*
G01*
X129497200Y-74614400D02*
X129497200Y-74564400D01*
X129497200Y-74614400D02*
G75*
G03*
X129997200Y-75114400I500001J1D01*
G01*
X142997200Y-75114400D02*
X129997200Y-75114400D01*
X112709700Y-91114400D02*
G75*
G03*
X113209700Y-90614400I-1J500001D01*
G01*
X113209700Y-77614400D02*
X113209700Y-90614400D01*
X113209700Y-77614400D02*
G75*
G03*
X112709700Y-77114400I-500001J-1D01*
G01*
X112659700Y-77114400D02*
X112709700Y-77114400D01*
X112659700Y-77114400D02*
G75*
G03*
X112159700Y-77614400I1J-500001D01*
G01*
X112159700Y-90614400D02*
X112159700Y-77614400D01*
X112159700Y-90614400D02*
G75*
G03*
X112659700Y-91114400I500001J1D01*
G01*
X112709700Y-91114400D02*
X112659700Y-91114400D01*
X88347200Y-58564400D02*
X88347200Y-71564400D01*
X88847200Y-58064400D02*
G75*
G03*
X88347200Y-58564400I1J-500001D01*
G01*
X88897200Y-58064400D02*
X88847200Y-58064400D01*
X89397200Y-58564400D02*
G75*
G03*
X88897200Y-58064400I-500001J-1D01*
G01*
X89397200Y-71564400D02*
X89397200Y-58564400D01*
X88897200Y-72064400D02*
G75*
G03*
X89397200Y-71564400I-1J500001D01*
G01*
X88847200Y-72064400D02*
X88897200Y-72064400D01*
X88347200Y-71564400D02*
G75*
G03*
X88847200Y-72064400I500001J1D01*
G01*
X240747200Y-58564400D02*
X240747200Y-71564400D01*
X241247200Y-58064400D02*
G75*
G03*
X240747200Y-58564400I1J-500001D01*
G01*
X241297200Y-58064400D02*
X241247200Y-58064400D01*
X241797200Y-58564400D02*
G75*
G03*
X241297200Y-58064400I-500001J-1D01*
G01*
X241797200Y-71564400D02*
X241797200Y-58564400D01*
X241297200Y-72064400D02*
G75*
G03*
X241797200Y-71564400I-1J500001D01*
G01*
X241247200Y-72064400D02*
X241297200Y-72064400D01*
X240747200Y-71564400D02*
G75*
G03*
X241247200Y-72064400I500001J1D01*
G01*
X219197200Y-75114400D02*
G75*
G03*
X219697200Y-74614400I-1J500001D01*
G01*
X219697200Y-74564400D02*
X219697200Y-74614400D01*
X219697200Y-74564400D02*
G75*
G03*
X219197200Y-74064400I-500001J-1D01*
G01*
X206197200Y-74064400D02*
X219197200Y-74064400D01*
X206197200Y-74064400D02*
G75*
G03*
X205697200Y-74564400I1J-500001D01*
G01*
X205697200Y-74614400D02*
X205697200Y-74564400D01*
X205697200Y-74614400D02*
G75*
G03*
X206197200Y-75114400I500001J1D01*
G01*
X219197200Y-75114400D02*
X206197200Y-75114400D01*
X243009700Y-94164400D02*
G75*
G03*
X243509700Y-93664400I-1J500001D01*
G01*
X243509700Y-93614400D02*
X243509700Y-93664400D01*
X243509700Y-93614400D02*
G75*
G03*
X243009700Y-93114400I-500001J-1D01*
G01*
X230009700Y-93114400D02*
X243009700Y-93114400D01*
X230009700Y-93114400D02*
G75*
G03*
X229509700Y-93614400I1J-500001D01*
G01*
X229509700Y-93664400D02*
X229509700Y-93614400D01*
X229509700Y-93664400D02*
G75*
G03*
X230009700Y-94164400I500001J1D01*
G01*
X243009700Y-94164400D02*
X230009700Y-94164400D01*
X233984700Y-112664400D02*
G75*
G03*
X233484700Y-112164400I-500001J-1D01*
G01*
X220484700Y-112164400D02*
X233484700Y-112164400D01*
X220484700Y-112164400D02*
G75*
G03*
X219984700Y-112664400I1J-500001D01*
G01*
X219984700Y-112714400D02*
X219984700Y-112664400D01*
X219984700Y-112714400D02*
G75*
G03*
X220484700Y-113214400I500001J1D01*
G01*
X233484700Y-113214400D02*
X220484700Y-113214400D01*
X233484700Y-113214400D02*
G75*
G03*
X233984700Y-112714400I-1J500001D01*
G01*
X233984700Y-112664400D02*
X233984700Y-112714400D01*
X202647200Y-58564400D02*
X202647200Y-71564400D01*
X203147200Y-58064400D02*
G75*
G03*
X202647200Y-58564400I1J-500001D01*
G01*
X203197200Y-58064400D02*
X203147200Y-58064400D01*
X203697200Y-58564400D02*
G75*
G03*
X203197200Y-58064400I-500001J-1D01*
G01*
X203697200Y-71564400D02*
X203697200Y-58564400D01*
X203197200Y-72064400D02*
G75*
G03*
X203697200Y-71564400I-1J500001D01*
G01*
X203147200Y-72064400D02*
X203197200Y-72064400D01*
X202647200Y-71564400D02*
G75*
G03*
X203147200Y-72064400I500001J1D01*
G01*
X156072200Y-128714400D02*
X156072200Y-115714400D01*
X155572200Y-129214400D02*
G75*
G03*
X156072200Y-128714400I-1J500001D01*
G01*
X155522200Y-129214400D02*
X155572200Y-129214400D01*
X155022200Y-128714400D02*
G75*
G03*
X155522200Y-129214400I500001J1D01*
G01*
X155022200Y-115714400D02*
X155022200Y-128714400D01*
X155522200Y-115214400D02*
G75*
G03*
X155022200Y-115714400I1J-500001D01*
G01*
X155572200Y-115214400D02*
X155522200Y-115214400D01*
X156072200Y-115714400D02*
G75*
G03*
X155572200Y-115214400I-500001J-1D01*
G01*
X157784700Y-112664400D02*
G75*
G03*
X157284700Y-112164400I-500001J-1D01*
G01*
X144284700Y-112164400D02*
X157284700Y-112164400D01*
X144284700Y-112164400D02*
G75*
G03*
X143784700Y-112664400I1J-500001D01*
G01*
X143784700Y-112714400D02*
X143784700Y-112664400D01*
X143784700Y-112714400D02*
G75*
G03*
X144284700Y-113214400I500001J1D01*
G01*
X157284700Y-113214400D02*
X144284700Y-113214400D01*
X157284700Y-113214400D02*
G75*
G03*
X157784700Y-112714400I-1J500001D01*
G01*
X157784700Y-112664400D02*
X157784700Y-112714400D01*
X204909700Y-94164400D02*
G75*
G03*
X205409700Y-93664400I-1J500001D01*
G01*
X205409700Y-93614400D02*
X205409700Y-93664400D01*
X205409700Y-93614400D02*
G75*
G03*
X204909700Y-93114400I-500001J-1D01*
G01*
X191909700Y-93114400D02*
X204909700Y-93114400D01*
X191909700Y-93114400D02*
G75*
G03*
X191409700Y-93614400I1J-500001D01*
G01*
X191409700Y-93664400D02*
X191409700Y-93614400D01*
X191409700Y-93664400D02*
G75*
G03*
X191909700Y-94164400I500001J1D01*
G01*
X204909700Y-94164400D02*
X191909700Y-94164400D01*
X169859700Y-91114400D02*
G75*
G03*
X170359700Y-90614400I-1J500001D01*
G01*
X170359700Y-77614400D02*
X170359700Y-90614400D01*
X170359700Y-77614400D02*
G75*
G03*
X169859700Y-77114400I-500001J-1D01*
G01*
X169809700Y-77114400D02*
X169859700Y-77114400D01*
X169809700Y-77114400D02*
G75*
G03*
X169309700Y-77614400I1J-500001D01*
G01*
X169309700Y-90614400D02*
X169309700Y-77614400D01*
X169309700Y-90614400D02*
G75*
G03*
X169809700Y-91114400I500001J1D01*
G01*
X169859700Y-91114400D02*
X169809700Y-91114400D01*
X119684700Y-112664400D02*
G75*
G03*
X119184700Y-112164400I-500001J-1D01*
G01*
X106184700Y-112164400D02*
X119184700Y-112164400D01*
X106184700Y-112164400D02*
G75*
G03*
X105684700Y-112664400I1J-500001D01*
G01*
X105684700Y-112714400D02*
X105684700Y-112664400D01*
X105684700Y-112714400D02*
G75*
G03*
X106184700Y-113214400I500001J1D01*
G01*
X119184700Y-113214400D02*
X106184700Y-113214400D01*
X119184700Y-113214400D02*
G75*
G03*
X119684700Y-112714400I-1J500001D01*
G01*
X119684700Y-112664400D02*
X119684700Y-112714400D01*
X102634700Y-96664400D02*
X102634700Y-109664400D01*
X103134700Y-96164400D02*
G75*
G03*
X102634700Y-96664400I1J-500001D01*
G01*
X103184700Y-96164400D02*
X103134700Y-96164400D01*
X103684700Y-96664400D02*
G75*
G03*
X103184700Y-96164400I-500001J-1D01*
G01*
X103684700Y-109664400D02*
X103684700Y-96664400D01*
X103184700Y-110164400D02*
G75*
G03*
X103684700Y-109664400I-1J500001D01*
G01*
X103134700Y-110164400D02*
X103184700Y-110164400D01*
X102634700Y-109664400D02*
G75*
G03*
X103134700Y-110164400I500001J1D01*
G01*
X109659700Y-94164400D02*
G75*
G03*
X110159700Y-93664400I-1J500001D01*
G01*
X110159700Y-93614400D02*
X110159700Y-93664400D01*
X110159700Y-93614400D02*
G75*
G03*
X109659700Y-93114400I-500001J-1D01*
G01*
X96659700Y-93114400D02*
X109659700Y-93114400D01*
X96659700Y-93114400D02*
G75*
G03*
X96159700Y-93614400I1J-500001D01*
G01*
X96159700Y-93664400D02*
X96159700Y-93614400D01*
X96159700Y-93664400D02*
G75*
G03*
X96659700Y-94164400I500001J1D01*
G01*
X109659700Y-94164400D02*
X96659700Y-94164400D01*
X50247200Y-58564400D02*
X50247200Y-71564400D01*
X50747200Y-58064400D02*
G75*
G03*
X50247200Y-58564400I1J-500001D01*
G01*
X50797200Y-58064400D02*
X50747200Y-58064400D01*
X51297200Y-58564400D02*
G75*
G03*
X50797200Y-58064400I-500001J-1D01*
G01*
X51297200Y-71564400D02*
X51297200Y-58564400D01*
X50797200Y-72064400D02*
G75*
G03*
X51297200Y-71564400I-1J500001D01*
G01*
X50747200Y-72064400D02*
X50797200Y-72064400D01*
X50247200Y-71564400D02*
G75*
G03*
X50747200Y-72064400I500001J1D01*
G01*
X81584700Y-112664400D02*
G75*
G03*
X81084700Y-112164400I-500001J-1D01*
G01*
X68084700Y-112164400D02*
X81084700Y-112164400D01*
X68084700Y-112164400D02*
G75*
G03*
X67584700Y-112664400I1J-500001D01*
G01*
X67584700Y-112714400D02*
X67584700Y-112664400D01*
X67584700Y-112714400D02*
G75*
G03*
X68084700Y-113214400I500001J1D01*
G01*
X81084700Y-113214400D02*
X68084700Y-113214400D01*
X81084700Y-113214400D02*
G75*
G03*
X81584700Y-112714400I-1J500001D01*
G01*
X81584700Y-112664400D02*
X81584700Y-112714400D01*
X64534700Y-96664400D02*
X64534700Y-109664400D01*
X65034700Y-96164400D02*
G75*
G03*
X64534700Y-96664400I1J-500001D01*
G01*
X65084700Y-96164400D02*
X65034700Y-96164400D01*
X65584700Y-96664400D02*
G75*
G03*
X65084700Y-96164400I-500001J-1D01*
G01*
X65584700Y-109664400D02*
X65584700Y-96664400D01*
X65084700Y-110164400D02*
G75*
G03*
X65584700Y-109664400I-1J500001D01*
G01*
X65034700Y-110164400D02*
X65084700Y-110164400D01*
X64534700Y-109664400D02*
G75*
G03*
X65034700Y-110164400I500001J1D01*
G01*
X55009700Y-90614400D02*
G75*
G03*
X55509700Y-91114400I500001J1D01*
G01*
X55559700Y-91114400D02*
X55509700Y-91114400D01*
X55559700Y-91114400D02*
G75*
G03*
X56059700Y-90614400I-1J500001D01*
G01*
X56059700Y-77614400D02*
X56059700Y-90614400D01*
X56059700Y-77614400D02*
G75*
G03*
X55559700Y-77114400I-500001J-1D01*
G01*
X55509700Y-77114400D02*
X55559700Y-77114400D01*
X55509700Y-77114400D02*
G75*
G03*
X55009700Y-77614400I1J-500001D01*
G01*
X55009700Y-90614400D02*
X55009700Y-77614400D01*
X69297200Y-58564400D02*
X69297200Y-71564400D01*
X69797200Y-58064400D02*
G75*
G03*
X69297200Y-58564400I1J-500001D01*
G01*
X69847200Y-58064400D02*
X69797200Y-58064400D01*
X70347200Y-58564400D02*
G75*
G03*
X69847200Y-58064400I-500001J-1D01*
G01*
X70347200Y-71564400D02*
X70347200Y-58564400D01*
X69847200Y-72064400D02*
G75*
G03*
X70347200Y-71564400I-1J500001D01*
G01*
X69797200Y-72064400D02*
X69847200Y-72064400D01*
X69297200Y-71564400D02*
G75*
G03*
X69797200Y-72064400I500001J1D01*
G01*
X66797200Y-75114400D02*
G75*
G03*
X67297200Y-74614400I-1J500001D01*
G01*
X67297200Y-74564400D02*
X67297200Y-74614400D01*
X67297200Y-74564400D02*
G75*
G03*
X66797200Y-74064400I-500001J-1D01*
G01*
X53797200Y-74064400D02*
X66797200Y-74064400D01*
X53797200Y-74064400D02*
G75*
G03*
X53297200Y-74564400I1J-500001D01*
G01*
X53297200Y-74614400D02*
X53297200Y-74564400D01*
X53297200Y-74614400D02*
G75*
G03*
X53797200Y-75114400I500001J1D01*
G01*
X66797200Y-75114400D02*
X53797200Y-75114400D01*
X147759700Y-94164400D02*
G75*
G03*
X148259700Y-93664400I-1J500001D01*
G01*
X148259700Y-93614400D02*
X148259700Y-93664400D01*
X148259700Y-93614400D02*
G75*
G03*
X147759700Y-93114400I-500001J-1D01*
G01*
X134759700Y-93114400D02*
X147759700Y-93114400D01*
X134759700Y-93114400D02*
G75*
G03*
X134259700Y-93614400I1J-500001D01*
G01*
X134259700Y-93664400D02*
X134259700Y-93614400D01*
X134259700Y-93664400D02*
G75*
G03*
X134759700Y-94164400I500001J1D01*
G01*
X147759700Y-94164400D02*
X134759700Y-94164400D01*
X140734700Y-96664400D02*
X140734700Y-109664400D01*
X141234700Y-96164400D02*
G75*
G03*
X140734700Y-96664400I1J-500001D01*
G01*
X141284700Y-96164400D02*
X141234700Y-96164400D01*
X141784700Y-96664400D02*
G75*
G03*
X141284700Y-96164400I-500001J-1D01*
G01*
X141784700Y-109664400D02*
X141784700Y-96664400D01*
X141284700Y-110164400D02*
G75*
G03*
X141784700Y-109664400I-1J500001D01*
G01*
X141234700Y-110164400D02*
X141284700Y-110164400D01*
X140734700Y-109664400D02*
G75*
G03*
X141234700Y-110164400I500001J1D01*
G01*
X136472200Y-115214400D02*
G75*
G03*
X135972200Y-115714400I1J-500001D01*
G01*
X135972200Y-128714400D02*
X135972200Y-115714400D01*
X135972200Y-128714400D02*
G75*
G03*
X136472200Y-129214400I500001J1D01*
G01*
X136522200Y-129214400D02*
X136472200Y-129214400D01*
X136522200Y-129214400D02*
G75*
G03*
X137022200Y-128714400I-1J500001D01*
G01*
X137022200Y-115714400D02*
X137022200Y-128714400D01*
X137022200Y-115714400D02*
G75*
G03*
X136522200Y-115214400I-500001J-1D01*
G01*
X136472200Y-115214400D02*
X136522200Y-115214400D01*
X166809700Y-94164400D02*
G75*
G03*
X167309700Y-93664400I-1J500001D01*
G01*
X167309700Y-93614400D02*
X167309700Y-93664400D01*
X167309700Y-93614400D02*
G75*
G03*
X166809700Y-93114400I-500001J-1D01*
G01*
X153809700Y-93114400D02*
X166809700Y-93114400D01*
X153809700Y-93114400D02*
G75*
G03*
X153309700Y-93614400I1J-500001D01*
G01*
X153309700Y-93664400D02*
X153309700Y-93614400D01*
X153309700Y-93664400D02*
G75*
G03*
X153809700Y-94164400I500001J1D01*
G01*
X166809700Y-94164400D02*
X153809700Y-94164400D01*
X178834700Y-96664400D02*
X178834700Y-109664400D01*
X179334700Y-96164400D02*
G75*
G03*
X178834700Y-96664400I1J-500001D01*
G01*
X179384700Y-96164400D02*
X179334700Y-96164400D01*
X179884700Y-96664400D02*
G75*
G03*
X179384700Y-96164400I-500001J-1D01*
G01*
X179884700Y-109664400D02*
X179884700Y-96664400D01*
X179384700Y-110164400D02*
G75*
G03*
X179884700Y-109664400I-1J500001D01*
G01*
X179334700Y-110164400D02*
X179384700Y-110164400D01*
X178834700Y-109664400D02*
G75*
G03*
X179334700Y-110164400I500001J1D01*
G01*
X195884700Y-112664400D02*
G75*
G03*
X195384700Y-112164400I-500001J-1D01*
G01*
X182384700Y-112164400D02*
X195384700Y-112164400D01*
X182384700Y-112164400D02*
G75*
G03*
X181884700Y-112664400I1J-500001D01*
G01*
X181884700Y-112714400D02*
X181884700Y-112664400D01*
X181884700Y-112714400D02*
G75*
G03*
X182384700Y-113214400I500001J1D01*
G01*
X195384700Y-113214400D02*
X182384700Y-113214400D01*
X195384700Y-113214400D02*
G75*
G03*
X195884700Y-112714400I-1J500001D01*
G01*
X195884700Y-112664400D02*
X195884700Y-112714400D01*
X164547200Y-58564400D02*
X164547200Y-71564400D01*
X165047200Y-58064400D02*
G75*
G03*
X164547200Y-58564400I1J-500001D01*
G01*
X165097200Y-58064400D02*
X165047200Y-58064400D01*
X165597200Y-58564400D02*
G75*
G03*
X165097200Y-58064400I-500001J-1D01*
G01*
X165597200Y-71564400D02*
X165597200Y-58564400D01*
X165097200Y-72064400D02*
G75*
G03*
X165597200Y-71564400I-1J500001D01*
G01*
X165047200Y-72064400D02*
X165097200Y-72064400D01*
X164547200Y-71564400D02*
G75*
G03*
X165047200Y-72064400I500001J1D01*
G01*
X181097200Y-75114400D02*
G75*
G03*
X181597200Y-74614400I-1J500001D01*
G01*
X181597200Y-74564400D02*
X181597200Y-74614400D01*
X181597200Y-74564400D02*
G75*
G03*
X181097200Y-74064400I-500001J-1D01*
G01*
X168097200Y-74064400D02*
X181097200Y-74064400D01*
X168097200Y-74064400D02*
G75*
G03*
X167597200Y-74564400I1J-500001D01*
G01*
X167597200Y-74614400D02*
X167597200Y-74564400D01*
X167597200Y-74614400D02*
G75*
G03*
X168097200Y-75114400I500001J1D01*
G01*
X181097200Y-75114400D02*
X168097200Y-75114400D01*
X257297200Y-75114400D02*
G75*
G03*
X257797200Y-74614400I-1J500001D01*
G01*
X257797200Y-74564400D02*
X257797200Y-74614400D01*
X257797200Y-74564400D02*
G75*
G03*
X257297200Y-74064400I-500001J-1D01*
G01*
X244297200Y-74064400D02*
X257297200Y-74064400D01*
X244297200Y-74064400D02*
G75*
G03*
X243797200Y-74564400I1J-500001D01*
G01*
X243797200Y-74614400D02*
X243797200Y-74564400D01*
X243797200Y-74614400D02*
G75*
G03*
X244297200Y-75114400I500001J1D01*
G01*
X257297200Y-75114400D02*
X244297200Y-75114400D01*
X227009700Y-91114400D02*
G75*
G03*
X227509700Y-90614400I-1J500001D01*
G01*
X227509700Y-77614400D02*
X227509700Y-90614400D01*
X227509700Y-77614400D02*
G75*
G03*
X227009700Y-77114400I-500001J-1D01*
G01*
X226959700Y-77114400D02*
X227009700Y-77114400D01*
X226959700Y-77114400D02*
G75*
G03*
X226459700Y-77614400I1J-500001D01*
G01*
X226459700Y-90614400D02*
X226459700Y-77614400D01*
X226459700Y-90614400D02*
G75*
G03*
X226959700Y-91114400I500001J1D01*
G01*
X227009700Y-91114400D02*
X226959700Y-91114400D01*
X126447200Y-58564400D02*
X126447200Y-71564400D01*
X126947200Y-58064400D02*
G75*
G03*
X126447200Y-58564400I1J-500001D01*
G01*
X126997200Y-58064400D02*
X126947200Y-58064400D01*
X127497200Y-58564400D02*
G75*
G03*
X126997200Y-58064400I-500001J-1D01*
G01*
X127497200Y-71564400D02*
X127497200Y-58564400D01*
X126997200Y-72064400D02*
G75*
G03*
X127497200Y-71564400I-1J500001D01*
G01*
X126947200Y-72064400D02*
X126997200Y-72064400D01*
X126447200Y-71564400D02*
G75*
G03*
X126947200Y-72064400I500001J1D01*
G01*
X104897200Y-75114400D02*
G75*
G03*
X105397200Y-74614400I-1J500001D01*
G01*
X105397200Y-74564400D02*
X105397200Y-74614400D01*
X105397200Y-74564400D02*
G75*
G03*
X104897200Y-74064400I-500001J-1D01*
G01*
X91897200Y-74064400D02*
X104897200Y-74064400D01*
X91897200Y-74064400D02*
G75*
G03*
X91397200Y-74564400I1J-500001D01*
G01*
X91397200Y-74614400D02*
X91397200Y-74564400D01*
X91397200Y-74614400D02*
G75*
G03*
X91897200Y-75114400I500001J1D01*
G01*
X104897200Y-75114400D02*
X91897200Y-75114400D01*
X221697200Y-58564400D02*
X221697200Y-71564400D01*
X222197200Y-58064400D02*
G75*
G03*
X221697200Y-58564400I1J-500001D01*
G01*
X222247200Y-58064400D02*
X222197200Y-58064400D01*
X222747200Y-58564400D02*
G75*
G03*
X222247200Y-58064400I-500001J-1D01*
G01*
X222747200Y-71564400D02*
X222747200Y-58564400D01*
X222247200Y-72064400D02*
G75*
G03*
X222747200Y-71564400I-1J500001D01*
G01*
X222197200Y-72064400D02*
X222247200Y-72064400D01*
X221697200Y-71564400D02*
G75*
G03*
X222197200Y-72064400I500001J1D01*
G01*
X131759700Y-91114400D02*
G75*
G03*
X132259700Y-90614400I-1J500001D01*
G01*
X132259700Y-77614400D02*
X132259700Y-90614400D01*
X132259700Y-77614400D02*
G75*
G03*
X131759700Y-77114400I-500001J-1D01*
G01*
X131709700Y-77114400D02*
X131759700Y-77114400D01*
X131709700Y-77114400D02*
G75*
G03*
X131209700Y-77614400I1J-500001D01*
G01*
X131209700Y-90614400D02*
X131209700Y-77614400D01*
X131209700Y-90614400D02*
G75*
G03*
X131709700Y-91114400I500001J1D01*
G01*
X131759700Y-91114400D02*
X131709700Y-91114400D01*
X107397200Y-58564400D02*
X107397200Y-71564400D01*
X107897200Y-58064400D02*
G75*
G03*
X107397200Y-58564400I1J-500001D01*
G01*
X107947200Y-58064400D02*
X107897200Y-58064400D01*
X108447200Y-58564400D02*
G75*
G03*
X107947200Y-58064400I-500001J-1D01*
G01*
X108447200Y-71564400D02*
X108447200Y-58564400D01*
X107947200Y-72064400D02*
G75*
G03*
X108447200Y-71564400I-1J500001D01*
G01*
X107897200Y-72064400D02*
X107947200Y-72064400D01*
X107397200Y-71564400D02*
G75*
G03*
X107897200Y-72064400I500001J1D01*
G01*
X223959700Y-94164400D02*
G75*
G03*
X224459700Y-93664400I-1J500001D01*
G01*
X224459700Y-93614400D02*
X224459700Y-93664400D01*
X224459700Y-93614400D02*
G75*
G03*
X223959700Y-93114400I-500001J-1D01*
G01*
X210959700Y-93114400D02*
X223959700Y-93114400D01*
X210959700Y-93114400D02*
G75*
G03*
X210459700Y-93614400I1J-500001D01*
G01*
X210459700Y-93664400D02*
X210459700Y-93614400D01*
X210459700Y-93664400D02*
G75*
G03*
X210959700Y-94164400I500001J1D01*
G01*
X223959700Y-94164400D02*
X210959700Y-94164400D01*
X214934700Y-112664400D02*
G75*
G03*
X214434700Y-112164400I-500001J-1D01*
G01*
X201434700Y-112164400D02*
X214434700Y-112164400D01*
X201434700Y-112164400D02*
G75*
G03*
X200934700Y-112664400I1J-500001D01*
G01*
X200934700Y-112714400D02*
X200934700Y-112664400D01*
X200934700Y-112714400D02*
G75*
G03*
X201434700Y-113214400I500001J1D01*
G01*
X214434700Y-113214400D02*
X201434700Y-113214400D01*
X214434700Y-113214400D02*
G75*
G03*
X214934700Y-112714400I-1J500001D01*
G01*
X214934700Y-112664400D02*
X214934700Y-112714400D01*
X162047200Y-75114400D02*
G75*
G03*
X162547200Y-74614400I-1J500001D01*
G01*
X162547200Y-74564400D02*
X162547200Y-74614400D01*
X162547200Y-74564400D02*
G75*
G03*
X162047200Y-74064400I-500001J-1D01*
G01*
X149047200Y-74064400D02*
X162047200Y-74064400D01*
X149047200Y-74064400D02*
G75*
G03*
X148547200Y-74564400I1J-500001D01*
G01*
X148547200Y-74614400D02*
X148547200Y-74564400D01*
X148547200Y-74614400D02*
G75*
G03*
X149047200Y-75114400I500001J1D01*
G01*
X162047200Y-75114400D02*
X149047200Y-75114400D01*
X145497200Y-58564400D02*
X145497200Y-71564400D01*
X145997200Y-58064400D02*
G75*
G03*
X145497200Y-58564400I1J-500001D01*
G01*
X146047200Y-58064400D02*
X145997200Y-58064400D01*
X146547200Y-58564400D02*
G75*
G03*
X146047200Y-58064400I-500001J-1D01*
G01*
X146547200Y-71564400D02*
X146547200Y-58564400D01*
X146047200Y-72064400D02*
G75*
G03*
X146547200Y-71564400I-1J500001D01*
G01*
X145997200Y-72064400D02*
X146047200Y-72064400D01*
X145497200Y-71564400D02*
G75*
G03*
X145997200Y-72064400I500001J1D01*
G01*
X176834700Y-112664400D02*
G75*
G03*
X176334700Y-112164400I-500001J-1D01*
G01*
X163334700Y-112164400D02*
X176334700Y-112164400D01*
X163334700Y-112164400D02*
G75*
G03*
X162834700Y-112664400I1J-500001D01*
G01*
X162834700Y-112714400D02*
X162834700Y-112664400D01*
X162834700Y-112714400D02*
G75*
G03*
X163334700Y-113214400I500001J1D01*
G01*
X176334700Y-113214400D02*
X163334700Y-113214400D01*
X176334700Y-113214400D02*
G75*
G03*
X176834700Y-112714400I-1J500001D01*
G01*
X176834700Y-112664400D02*
X176834700Y-112714400D01*
X159784700Y-96664400D02*
X159784700Y-109664400D01*
X160284700Y-96164400D02*
G75*
G03*
X159784700Y-96664400I1J-500001D01*
G01*
X160334700Y-96164400D02*
X160284700Y-96164400D01*
X160834700Y-96664400D02*
G75*
G03*
X160334700Y-96164400I-500001J-1D01*
G01*
X160834700Y-109664400D02*
X160834700Y-96664400D01*
X160334700Y-110164400D02*
G75*
G03*
X160834700Y-109664400I-1J500001D01*
G01*
X160284700Y-110164400D02*
X160334700Y-110164400D01*
X159784700Y-109664400D02*
G75*
G03*
X160284700Y-110164400I500001J1D01*
G01*
X188909700Y-91114400D02*
G75*
G03*
X189409700Y-90614400I-1J500001D01*
G01*
X189409700Y-77614400D02*
X189409700Y-90614400D01*
X189409700Y-77614400D02*
G75*
G03*
X188909700Y-77114400I-500001J-1D01*
G01*
X188859700Y-77114400D02*
X188909700Y-77114400D01*
X188859700Y-77114400D02*
G75*
G03*
X188359700Y-77614400I1J-500001D01*
G01*
X188359700Y-90614400D02*
X188359700Y-77614400D01*
X188359700Y-90614400D02*
G75*
G03*
X188859700Y-91114400I500001J1D01*
G01*
X188909700Y-91114400D02*
X188859700Y-91114400D01*
X138734700Y-112664400D02*
G75*
G03*
X138234700Y-112164400I-500001J-1D01*
G01*
X125234700Y-112164400D02*
X138234700Y-112164400D01*
X125234700Y-112164400D02*
G75*
G03*
X124734700Y-112664400I1J-500001D01*
G01*
X124734700Y-112714400D02*
X124734700Y-112664400D01*
X124734700Y-112714400D02*
G75*
G03*
X125234700Y-113214400I500001J1D01*
G01*
X138234700Y-113214400D02*
X125234700Y-113214400D01*
X138234700Y-113214400D02*
G75*
G03*
X138734700Y-112714400I-1J500001D01*
G01*
X138734700Y-112664400D02*
X138734700Y-112714400D01*
X121684700Y-96664400D02*
X121684700Y-109664400D01*
X122184700Y-96164400D02*
G75*
G03*
X121684700Y-96664400I1J-500001D01*
G01*
X122234700Y-96164400D02*
X122184700Y-96164400D01*
X122734700Y-96664400D02*
G75*
G03*
X122234700Y-96164400I-500001J-1D01*
G01*
X122734700Y-109664400D02*
X122734700Y-96664400D01*
X122234700Y-110164400D02*
G75*
G03*
X122734700Y-109664400I-1J500001D01*
G01*
X122184700Y-110164400D02*
X122234700Y-110164400D01*
X121684700Y-109664400D02*
G75*
G03*
X122184700Y-110164400I500001J1D01*
G01*
X128709700Y-94164400D02*
G75*
G03*
X129209700Y-93664400I-1J500001D01*
G01*
X129209700Y-93614400D02*
X129209700Y-93664400D01*
X129209700Y-93614400D02*
G75*
G03*
X128709700Y-93114400I-500001J-1D01*
G01*
X115709700Y-93114400D02*
X128709700Y-93114400D01*
X115709700Y-93114400D02*
G75*
G03*
X115209700Y-93614400I1J-500001D01*
G01*
X115209700Y-93664400D02*
X115209700Y-93614400D01*
X115209700Y-93664400D02*
G75*
G03*
X115709700Y-94164400I500001J1D01*
G01*
X128709700Y-94164400D02*
X115709700Y-94164400D01*
X62034700Y-112164400D02*
X49034700Y-112164400D01*
X62534700Y-112664400D02*
G75*
G03*
X62034700Y-112164400I-500001J-1D01*
G01*
X62534700Y-112714400D02*
X62534700Y-112664400D01*
X62034700Y-113214400D02*
G75*
G03*
X62534700Y-112714400I-1J500001D01*
G01*
X49034700Y-113214400D02*
X62034700Y-113214400D01*
X48534700Y-112714400D02*
G75*
G03*
X49034700Y-113214400I500001J1D01*
G01*
X48534700Y-112664400D02*
X48534700Y-112714400D01*
X49034700Y-112164400D02*
G75*
G03*
X48534700Y-112664400I1J-500001D01*
G01*
X52509700Y-93114400D02*
X39509700Y-93114400D01*
X53009700Y-93614400D02*
G75*
G03*
X52509700Y-93114400I-500001J-1D01*
G01*
X53009700Y-93664400D02*
X53009700Y-93614400D01*
X52509700Y-94164400D02*
G75*
G03*
X53009700Y-93664400I-1J500001D01*
G01*
X39509700Y-94164400D02*
X52509700Y-94164400D01*
X39009700Y-93664400D02*
G75*
G03*
X39509700Y-94164400I500001J1D01*
G01*
X39009700Y-93614400D02*
X39009700Y-93664400D01*
X39509700Y-93114400D02*
G75*
G03*
X39009700Y-93614400I1J-500001D01*
G01*
X232272200Y-52514400D02*
X232272200Y-39514400D01*
X231772200Y-53014400D02*
G75*
G03*
X232272200Y-52514400I-1J500001D01*
G01*
X231722200Y-53014400D02*
X231772200Y-53014400D01*
X231222200Y-52514400D02*
G75*
G03*
X231722200Y-53014400I500001J1D01*
G01*
X231222200Y-39514400D02*
X231222200Y-52514400D01*
X231722200Y-39014400D02*
G75*
G03*
X231222200Y-39514400I1J-500001D01*
G01*
X231772200Y-39014400D02*
X231722200Y-39014400D01*
X232272200Y-39514400D02*
G75*
G03*
X231772200Y-39014400I-500001J-1D01*
G01*
X194172200Y-52514400D02*
X194172200Y-39514400D01*
X193672200Y-53014400D02*
G75*
G03*
X194172200Y-52514400I-1J500001D01*
G01*
X193622200Y-53014400D02*
X193672200Y-53014400D01*
X193122200Y-52514400D02*
G75*
G03*
X193622200Y-53014400I500001J1D01*
G01*
X193122200Y-39514400D02*
X193122200Y-52514400D01*
X193622200Y-39014400D02*
G75*
G03*
X193122200Y-39514400I1J-500001D01*
G01*
X193672200Y-39014400D02*
X193622200Y-39014400D01*
X194172200Y-39514400D02*
G75*
G03*
X193672200Y-39014400I-500001J-1D01*
G01*
X156072200Y-52514400D02*
X156072200Y-39514400D01*
X155572200Y-53014400D02*
G75*
G03*
X156072200Y-52514400I-1J500001D01*
G01*
X155522200Y-53014400D02*
X155572200Y-53014400D01*
X155022200Y-52514400D02*
G75*
G03*
X155522200Y-53014400I500001J1D01*
G01*
X155022200Y-39514400D02*
X155022200Y-52514400D01*
X155522200Y-39014400D02*
G75*
G03*
X155022200Y-39514400I1J-500001D01*
G01*
X155572200Y-39014400D02*
X155522200Y-39014400D01*
X156072200Y-39514400D02*
G75*
G03*
X155572200Y-39014400I-500001J-1D01*
G01*
X117972200Y-52514400D02*
X117972200Y-39514400D01*
X117472200Y-53014400D02*
G75*
G03*
X117972200Y-52514400I-1J500001D01*
G01*
X117422200Y-53014400D02*
X117472200Y-53014400D01*
X116922200Y-52514400D02*
G75*
G03*
X117422200Y-53014400I500001J1D01*
G01*
X116922200Y-39514400D02*
X116922200Y-52514400D01*
X117422200Y-39014400D02*
G75*
G03*
X116922200Y-39514400I1J-500001D01*
G01*
X117472200Y-39014400D02*
X117422200Y-39014400D01*
X117972200Y-39514400D02*
G75*
G03*
X117472200Y-39014400I-500001J-1D01*
G01*
X79872200Y-52514400D02*
X79872200Y-39514400D01*
X79372200Y-53014400D02*
G75*
G03*
X79872200Y-52514400I-1J500001D01*
G01*
X79322200Y-53014400D02*
X79372200Y-53014400D01*
X78822200Y-52514400D02*
G75*
G03*
X79322200Y-53014400I500001J1D01*
G01*
X78822200Y-39514400D02*
X78822200Y-52514400D01*
X79322200Y-39014400D02*
G75*
G03*
X78822200Y-39514400I1J-500001D01*
G01*
X79372200Y-39014400D02*
X79322200Y-39014400D01*
X79872200Y-39514400D02*
G75*
G03*
X79372200Y-39014400I-500001J-1D01*
G01*
X41772200Y-52514400D02*
X41772200Y-39514400D01*
X41272200Y-53014400D02*
G75*
G03*
X41772200Y-52514400I-1J500001D01*
G01*
X41222200Y-53014400D02*
X41272200Y-53014400D01*
X40722200Y-52514400D02*
G75*
G03*
X41222200Y-53014400I500001J1D01*
G01*
X40722200Y-39514400D02*
X40722200Y-52514400D01*
X41222200Y-39014400D02*
G75*
G03*
X40722200Y-39514400I1J-500001D01*
G01*
X41272200Y-39014400D02*
X41222200Y-39014400D01*
X41772200Y-39514400D02*
G75*
G03*
X41272200Y-39014400I-500001J-1D01*
G01*
X57272200Y-55014400D02*
X44272200Y-55014400D01*
X57772200Y-55514400D02*
G75*
G03*
X57272200Y-55014400I-500001J-1D01*
G01*
X57772200Y-55564400D02*
X57772200Y-55514400D01*
X57272200Y-56064400D02*
G75*
G03*
X57772200Y-55564400I-1J500001D01*
G01*
X44272200Y-56064400D02*
X57272200Y-56064400D01*
X43772200Y-55564400D02*
G75*
G03*
X44272200Y-56064400I500001J1D01*
G01*
X43772200Y-55514400D02*
X43772200Y-55564400D01*
X44272200Y-55014400D02*
G75*
G03*
X43772200Y-55514400I1J-500001D01*
G01*
X95372200Y-55014400D02*
X82372200Y-55014400D01*
X95872200Y-55514400D02*
G75*
G03*
X95372200Y-55014400I-500001J-1D01*
G01*
X95872200Y-55564400D02*
X95872200Y-55514400D01*
X95372200Y-56064400D02*
G75*
G03*
X95872200Y-55564400I-1J500001D01*
G01*
X82372200Y-56064400D02*
X95372200Y-56064400D01*
X81872200Y-55564400D02*
G75*
G03*
X82372200Y-56064400I500001J1D01*
G01*
X81872200Y-55514400D02*
X81872200Y-55564400D01*
X82372200Y-55014400D02*
G75*
G03*
X81872200Y-55514400I1J-500001D01*
G01*
X133472200Y-56064400D02*
G75*
G03*
X133972200Y-55564400I-1J500001D01*
G01*
X133972200Y-55514400D02*
X133972200Y-55564400D01*
X133972200Y-55514400D02*
G75*
G03*
X133472200Y-55014400I-500001J-1D01*
G01*
X120472200Y-55014400D02*
X133472200Y-55014400D01*
X120472200Y-55014400D02*
G75*
G03*
X119972200Y-55514400I1J-500001D01*
G01*
X119972200Y-55564400D02*
X119972200Y-55514400D01*
X119972200Y-55564400D02*
G75*
G03*
X120472200Y-56064400I500001J1D01*
G01*
X133472200Y-56064400D02*
X120472200Y-56064400D01*
X171572200Y-56064400D02*
G75*
G03*
X172072200Y-55564400I-1J500001D01*
G01*
X172072200Y-55514400D02*
X172072200Y-55564400D01*
X172072200Y-55514400D02*
G75*
G03*
X171572200Y-55014400I-500001J-1D01*
G01*
X158572200Y-55014400D02*
X171572200Y-55014400D01*
X158572200Y-55014400D02*
G75*
G03*
X158072200Y-55514400I1J-500001D01*
G01*
X158072200Y-55564400D02*
X158072200Y-55514400D01*
X158072200Y-55564400D02*
G75*
G03*
X158572200Y-56064400I500001J1D01*
G01*
X171572200Y-56064400D02*
X158572200Y-56064400D01*
X209672200Y-55014400D02*
X196672200Y-55014400D01*
X210172200Y-55514400D02*
G75*
G03*
X209672200Y-55014400I-500001J-1D01*
G01*
X210172200Y-55564400D02*
X210172200Y-55514400D01*
X209672200Y-56064400D02*
G75*
G03*
X210172200Y-55564400I-1J500001D01*
G01*
X196672200Y-56064400D02*
X209672200Y-56064400D01*
X196172200Y-55564400D02*
G75*
G03*
X196672200Y-56064400I500001J1D01*
G01*
X196172200Y-55514400D02*
X196172200Y-55564400D01*
X196672200Y-55014400D02*
G75*
G03*
X196172200Y-55514400I1J-500001D01*
G01*
X247772200Y-56064400D02*
G75*
G03*
X248272200Y-55564400I-1J500001D01*
G01*
X248272200Y-55514400D02*
X248272200Y-55564400D01*
X248272200Y-55514400D02*
G75*
G03*
X247772200Y-55014400I-500001J-1D01*
G01*
X234772200Y-55014400D02*
X247772200Y-55014400D01*
X234772200Y-55014400D02*
G75*
G03*
X234272200Y-55514400I1J-500001D01*
G01*
X234272200Y-55564400D02*
X234272200Y-55514400D01*
X234272200Y-55564400D02*
G75*
G03*
X234772200Y-56064400I500001J1D01*
G01*
X247772200Y-56064400D02*
X234772200Y-56064400D01*
X228722200Y-56064400D02*
G75*
G03*
X229222200Y-55564400I-1J500001D01*
G01*
X229222200Y-55514400D02*
X229222200Y-55564400D01*
X229222200Y-55514400D02*
G75*
G03*
X228722200Y-55014400I-500001J-1D01*
G01*
X215722200Y-55014400D02*
X228722200Y-55014400D01*
X215722200Y-55014400D02*
G75*
G03*
X215222200Y-55514400I1J-500001D01*
G01*
X215222200Y-55564400D02*
X215222200Y-55514400D01*
X215222200Y-55564400D02*
G75*
G03*
X215722200Y-56064400I500001J1D01*
G01*
X228722200Y-56064400D02*
X215722200Y-56064400D01*
X190622200Y-56064400D02*
G75*
G03*
X191122200Y-55564400I-1J500001D01*
G01*
X191122200Y-55514400D02*
X191122200Y-55564400D01*
X191122200Y-55514400D02*
G75*
G03*
X190622200Y-55014400I-500001J-1D01*
G01*
X177622200Y-55014400D02*
X190622200Y-55014400D01*
X177622200Y-55014400D02*
G75*
G03*
X177122200Y-55514400I1J-500001D01*
G01*
X177122200Y-55564400D02*
X177122200Y-55514400D01*
X177122200Y-55564400D02*
G75*
G03*
X177622200Y-56064400I500001J1D01*
G01*
X190622200Y-56064400D02*
X177622200Y-56064400D01*
X152522200Y-56064400D02*
G75*
G03*
X153022200Y-55564400I-1J500001D01*
G01*
X153022200Y-55514400D02*
X153022200Y-55564400D01*
X153022200Y-55514400D02*
G75*
G03*
X152522200Y-55014400I-500001J-1D01*
G01*
X139522200Y-55014400D02*
X152522200Y-55014400D01*
X139522200Y-55014400D02*
G75*
G03*
X139022200Y-55514400I1J-500001D01*
G01*
X139022200Y-55564400D02*
X139022200Y-55514400D01*
X139022200Y-55564400D02*
G75*
G03*
X139522200Y-56064400I500001J1D01*
G01*
X152522200Y-56064400D02*
X139522200Y-56064400D01*
X114422200Y-56064400D02*
G75*
G03*
X114922200Y-55564400I-1J500001D01*
G01*
X114922200Y-55514400D02*
X114922200Y-55564400D01*
X114922200Y-55514400D02*
G75*
G03*
X114422200Y-55014400I-500001J-1D01*
G01*
X101422200Y-55014400D02*
X114422200Y-55014400D01*
X101422200Y-55014400D02*
G75*
G03*
X100922200Y-55514400I1J-500001D01*
G01*
X100922200Y-55564400D02*
X100922200Y-55514400D01*
X100922200Y-55564400D02*
G75*
G03*
X101422200Y-56064400I500001J1D01*
G01*
X114422200Y-56064400D02*
X101422200Y-56064400D01*
X76322200Y-56064400D02*
G75*
G03*
X76822200Y-55564400I-1J500001D01*
G01*
X76822200Y-55514400D02*
X76822200Y-55564400D01*
X76822200Y-55514400D02*
G75*
G03*
X76322200Y-55014400I-500001J-1D01*
G01*
X63322200Y-55014400D02*
X76322200Y-55014400D01*
X63322200Y-55014400D02*
G75*
G03*
X62822200Y-55514400I1J-500001D01*
G01*
X62822200Y-55564400D02*
X62822200Y-55514400D01*
X62822200Y-55564400D02*
G75*
G03*
X63322200Y-56064400I500001J1D01*
G01*
X76322200Y-56064400D02*
X63322200Y-56064400D01*
X38222200Y-55014400D02*
X25222200Y-55014400D01*
X38722200Y-55514400D02*
G75*
G03*
X38222200Y-55014400I-500001J-1D01*
G01*
X38722200Y-55564400D02*
X38722200Y-55514400D01*
X38222200Y-56064400D02*
G75*
G03*
X38722200Y-55564400I-1J500001D01*
G01*
X25222200Y-56064400D02*
X38222200Y-56064400D01*
X24722200Y-55564400D02*
G75*
G03*
X25222200Y-56064400I500001J1D01*
G01*
X24722200Y-55514400D02*
X24722200Y-55564400D01*
X25222200Y-55014400D02*
G75*
G03*
X24722200Y-55514400I1J-500001D01*
G01*
X60822200Y-52514400D02*
X60822200Y-39514400D01*
X60322200Y-53014400D02*
G75*
G03*
X60822200Y-52514400I-1J500001D01*
G01*
X60272200Y-53014400D02*
X60322200Y-53014400D01*
X59772200Y-52514400D02*
G75*
G03*
X60272200Y-53014400I500001J1D01*
G01*
X59772200Y-39514400D02*
X59772200Y-52514400D01*
X60272200Y-39014400D02*
G75*
G03*
X59772200Y-39514400I1J-500001D01*
G01*
X60322200Y-39014400D02*
X60272200Y-39014400D01*
X60822200Y-39514400D02*
G75*
G03*
X60322200Y-39014400I-500001J-1D01*
G01*
X98922200Y-52514400D02*
X98922200Y-39514400D01*
X98422200Y-53014400D02*
G75*
G03*
X98922200Y-52514400I-1J500001D01*
G01*
X98372200Y-53014400D02*
X98422200Y-53014400D01*
X97872200Y-52514400D02*
G75*
G03*
X98372200Y-53014400I500001J1D01*
G01*
X97872200Y-39514400D02*
X97872200Y-52514400D01*
X98372200Y-39014400D02*
G75*
G03*
X97872200Y-39514400I1J-500001D01*
G01*
X98422200Y-39014400D02*
X98372200Y-39014400D01*
X98922200Y-39514400D02*
G75*
G03*
X98422200Y-39014400I-500001J-1D01*
G01*
X137022200Y-52514400D02*
X137022200Y-39514400D01*
X136522200Y-53014400D02*
G75*
G03*
X137022200Y-52514400I-1J500001D01*
G01*
X136472200Y-53014400D02*
X136522200Y-53014400D01*
X135972200Y-52514400D02*
G75*
G03*
X136472200Y-53014400I500001J1D01*
G01*
X135972200Y-39514400D02*
X135972200Y-52514400D01*
X136472200Y-39014400D02*
G75*
G03*
X135972200Y-39514400I1J-500001D01*
G01*
X136522200Y-39014400D02*
X136472200Y-39014400D01*
X137022200Y-39514400D02*
G75*
G03*
X136522200Y-39014400I-500001J-1D01*
G01*
X175122200Y-52514400D02*
X175122200Y-39514400D01*
X174622200Y-53014400D02*
G75*
G03*
X175122200Y-52514400I-1J500001D01*
G01*
X174572200Y-53014400D02*
X174622200Y-53014400D01*
X174072200Y-52514400D02*
G75*
G03*
X174572200Y-53014400I500001J1D01*
G01*
X174072200Y-39514400D02*
X174072200Y-52514400D01*
X174572200Y-39014400D02*
G75*
G03*
X174072200Y-39514400I1J-500001D01*
G01*
X174622200Y-39014400D02*
X174572200Y-39014400D01*
X175122200Y-39514400D02*
G75*
G03*
X174622200Y-39014400I-500001J-1D01*
G01*
X213222200Y-52514400D02*
X213222200Y-39514400D01*
X212722200Y-53014400D02*
G75*
G03*
X213222200Y-52514400I-1J500001D01*
G01*
X212672200Y-53014400D02*
X212722200Y-53014400D01*
X212172200Y-52514400D02*
G75*
G03*
X212672200Y-53014400I500001J1D01*
G01*
X212172200Y-39514400D02*
X212172200Y-52514400D01*
X212672200Y-39014400D02*
G75*
G03*
X212172200Y-39514400I1J-500001D01*
G01*
X212722200Y-39014400D02*
X212672200Y-39014400D01*
X213222200Y-39514400D02*
G75*
G03*
X212722200Y-39014400I-500001J-1D01*
G01*
X158572200Y-115214400D02*
G75*
G03*
X158072200Y-115714400I1J-500001D01*
G01*
X158072200Y-128714400D02*
X158072200Y-115714400D01*
X158072200Y-128714400D02*
G75*
G03*
X158572200Y-129214400I500001J1D01*
G01*
X171332326Y-129214400D02*
X158572200Y-129214400D01*
X171332326Y-129214399D02*
G75*
G03*
X171505082Y-128913626I-1J200000D01*
G01*
X169347200Y-125214400D02*
X171505082Y-128913626D01*
X169347200Y-121788770D02*
X169347200Y-125214400D01*
X169843329Y-120924991D02*
G75*
G03*
X169347200Y-121788770I503874J-863781D01*
G01*
X178993904Y-115587156D02*
X169843329Y-120924991D01*
X178993904Y-115587156D02*
G75*
G03*
X178893130Y-115214400I-100774J172756D01*
G01*
X158572200Y-115214400D02*
X178893130Y-115214400D01*
X182278741Y-115214401D02*
G75*
G03*
X182105985Y-115515174I-1J-199999D01*
G01*
X184234205Y-119163552D02*
X182105985Y-115515174D01*
X184370426Y-119667423D02*
G75*
G03*
X184234205Y-119163552I-1000007J-2D01*
G01*
X184370426Y-122822703D02*
X184370426Y-119667423D01*
X183874297Y-123686482D02*
G75*
G03*
X184370426Y-122822703I-503871J863779D01*
G01*
X175036876Y-128841644D02*
X183874297Y-123686482D01*
X175036876Y-128841645D02*
G75*
G03*
X175137650Y-129214400I100775J-172755D01*
G01*
X194122200Y-129214400D02*
X175137650Y-129214400D01*
X194122200Y-129214400D02*
G75*
G03*
X194622200Y-128714400I-1J500001D01*
G01*
X194622200Y-115714400D02*
X194622200Y-128714400D01*
X194622200Y-115714400D02*
G75*
G03*
X194122200Y-115214400I-500001J-1D01*
G01*
X182278741Y-115214400D02*
X194122200Y-115214400D01*
X172120426Y-126464661D02*
X172120426Y-127964400D01*
X169852498Y-122576785D02*
X172120426Y-126464661D01*
X170284388Y-122324849D02*
G75*
G03*
X169852498Y-122576785I-215945J-125968D01*
G01*
X172460403Y-126055161D02*
X170284388Y-122324849D01*
X183132570Y-119829730D02*
X172460403Y-126055161D01*
X183384505Y-120261620D02*
G75*
G03*
X183132570Y-119829730I-125968J215945D01*
G01*
X172620426Y-126540666D02*
X183384505Y-120261620D01*
X172620426Y-127964400D02*
X172620426Y-126540666D01*
X172120426Y-127964400D02*
G75*
G03*
X172620426Y-127964400I250000J0D01*
G01*
X133972200Y-128714400D02*
X133972200Y-115714400D01*
X133472200Y-129214400D02*
G75*
G03*
X133972200Y-128714400I-1J500001D01*
G01*
X120712074Y-129214400D02*
X133472200Y-129214400D01*
X120539318Y-128913626D02*
G75*
G03*
X120712074Y-129214400I172757J-100773D01*
G01*
X122697200Y-125214400D02*
X120539318Y-128913626D01*
X122697200Y-121788770D02*
X122697200Y-125214400D01*
X122697200Y-121788770D02*
G75*
G03*
X122201071Y-120924991I-1000003J-2D01*
G01*
X113050496Y-115587156D02*
X122201071Y-120924991D01*
X113151270Y-115214400D02*
G75*
G03*
X113050496Y-115587156I0J-200000D01*
G01*
X133472200Y-115214400D02*
X113151270Y-115214400D01*
X133972200Y-115714400D02*
G75*
G03*
X133472200Y-115214400I-500001J-1D01*
G01*
X119423974Y-126540666D02*
X119423974Y-127964400D01*
X108659895Y-120261620D02*
X119423974Y-126540666D01*
X108911830Y-119829730D02*
G75*
G03*
X108659895Y-120261620I-125967J-215945D01*
G01*
X119583997Y-126055161D02*
X108911830Y-119829730D01*
X121760012Y-122324849D02*
X119583997Y-126055161D01*
X122191902Y-122576785D02*
G75*
G03*
X121760012Y-122324849I-215945J125968D01*
G01*
X119923974Y-126464661D02*
X122191902Y-122576785D01*
X119923974Y-127964400D02*
X119923974Y-126464661D01*
X119423974Y-127964400D02*
G75*
G03*
X119923974Y-127964400I250000J0D01*
G01*
X153022200Y-128714400D02*
X153022200Y-115714400D01*
X152522200Y-129214400D02*
G75*
G03*
X153022200Y-128714400I-1J500001D01*
G01*
X139522200Y-129214400D02*
X152522200Y-129214400D01*
X139022200Y-128714400D02*
G75*
G03*
X139522200Y-129214400I500001J1D01*
G01*
X139022200Y-115714400D02*
X139022200Y-128714400D01*
X139522200Y-115214400D02*
G75*
G03*
X139022200Y-115714400I1J-500001D01*
G01*
X152522200Y-115214400D02*
X139522200Y-115214400D01*
X153022200Y-115714400D02*
G75*
G03*
X152522200Y-115214400I-500001J-1D01*
G01*
X246678700Y-96164400D02*
G75*
G03*
X246178700Y-96664400I1J-500001D01*
G01*
X246178700Y-109664400D02*
X246178700Y-96664400D01*
X246178700Y-109664400D02*
G75*
G03*
X246678700Y-110164400I500001J1D01*
G01*
X247265450Y-110164400D02*
X246678700Y-110164400D01*
X247265450Y-111664400D02*
X247265450Y-110164400D01*
X247265450Y-111664400D02*
G75*
G03*
X247765450Y-112164400I500001J1D01*
G01*
X253765450Y-112164400D02*
X247765450Y-112164400D01*
X253765450Y-112164400D02*
G75*
G03*
X254265450Y-111664400I-1J500001D01*
G01*
X254265450Y-110164400D02*
X254265450Y-111664400D01*
X271141450Y-110164400D02*
X254265450Y-110164400D01*
X271141450Y-111664400D02*
X271141450Y-110164400D01*
X271141450Y-111664400D02*
G75*
G03*
X271641450Y-112164400I500001J1D01*
G01*
X277641450Y-112164400D02*
X271641450Y-112164400D01*
X277641450Y-112164400D02*
G75*
G03*
X278141450Y-111664400I-1J500001D01*
G01*
X278141450Y-110164400D02*
X278141450Y-111664400D01*
X285872200Y-110164400D02*
X278141450Y-110164400D01*
X285872200Y-110164400D02*
G75*
G03*
X286372200Y-109664400I-1J500001D01*
G01*
X286372200Y-96664400D02*
X286372200Y-109664400D01*
X286372200Y-96664400D02*
G75*
G03*
X285872200Y-96164400I-500001J-1D01*
G01*
X246678700Y-96164400D02*
X285872200Y-96164400D01*
X282903950Y-89809235D02*
G75*
G03*
X282990950Y-89527400I-413002J281836D01*
G01*
X282990950Y-83527400D02*
X282990950Y-89527400D01*
X282990950Y-83527400D02*
G75*
G03*
X282903950Y-83245565I-500002J-1D01*
G01*
X282903950Y-81589400D02*
X282903950Y-83245565D01*
X283490950Y-81589400D02*
X282903950Y-81589400D01*
X283490950Y-81589400D02*
G75*
G03*
X283990950Y-81089400I-1J500001D01*
G01*
X283990950Y-68089400D02*
X283990950Y-81089400D01*
X283990950Y-68089400D02*
G75*
G03*
X283490950Y-67589400I-500001J-1D01*
G01*
X281609700Y-67589400D02*
X283490950Y-67589400D01*
X281609700Y-66151400D02*
X281609700Y-67589400D01*
X282490950Y-66151400D02*
X281609700Y-66151400D01*
X282490950Y-66151400D02*
G75*
G03*
X282990950Y-65651400I-1J500001D01*
G01*
X282990950Y-59651400D02*
X282990950Y-65651400D01*
X282990950Y-59651400D02*
G75*
G03*
X282490950Y-59151400I-500001J-1D01*
G01*
X281609700Y-59151400D02*
X282490950Y-59151400D01*
X281609700Y-58564400D02*
X281609700Y-59151400D01*
X281609700Y-58564400D02*
G75*
G03*
X281109700Y-58064400I-500001J-1D01*
G01*
X268109700Y-58064400D02*
X281109700Y-58064400D01*
X268109700Y-58064400D02*
G75*
G03*
X267609700Y-58564400I1J-500001D01*
G01*
X267609700Y-71564400D02*
X267609700Y-58564400D01*
X267609700Y-71564400D02*
G75*
G03*
X268109700Y-72064400I500001J1D01*
G01*
X269990950Y-72064400D02*
X268109700Y-72064400D01*
X269990950Y-77114400D02*
X269990950Y-72064400D01*
X248715950Y-77114400D02*
X269990950Y-77114400D01*
X248715950Y-77114400D02*
G75*
G03*
X248215950Y-77614400I1J-500001D01*
G01*
X248215950Y-90614400D02*
X248215950Y-77614400D01*
X248215950Y-90614400D02*
G75*
G03*
X248715950Y-91114400I500001J1D01*
G01*
X252027950Y-91114400D02*
X248715950Y-91114400D01*
X252027950Y-92614400D02*
X252027950Y-91114400D01*
X252027950Y-92614400D02*
G75*
G03*
X252527950Y-93114400I500001J1D01*
G01*
X258527950Y-93114400D02*
X252527950Y-93114400D01*
X258527950Y-93114400D02*
G75*
G03*
X259027950Y-92614400I-1J500001D01*
G01*
X259027950Y-91114400D02*
X259027950Y-92614400D01*
X273965950Y-91114400D02*
X259027950Y-91114400D01*
X273965950Y-91114400D02*
G75*
G03*
X274465950Y-90614400I-1J500001D01*
G01*
X274465950Y-90027400D02*
X274465950Y-90614400D01*
X275903950Y-90027400D02*
X274465950Y-90027400D01*
X275903950Y-92614400D02*
X275903950Y-90027400D01*
X275903950Y-92614400D02*
G75*
G03*
X276403950Y-93114400I500001J1D01*
G01*
X282403950Y-93114400D02*
X276403950Y-93114400D01*
X282403950Y-93114400D02*
G75*
G03*
X282903950Y-92614400I-1J500001D01*
G01*
X282903950Y-89809235D02*
X282903950Y-92614400D01*
X8553450Y-96164400D02*
G75*
G03*
X8053450Y-96664400I1J-500001D01*
G01*
X8053450Y-109664400D02*
X8053450Y-96664400D01*
X8053450Y-109664400D02*
G75*
G03*
X8553450Y-110164400I500001J1D01*
G01*
X9140450Y-110164400D02*
X8553450Y-110164400D01*
X9140450Y-111664400D02*
X9140450Y-110164400D01*
X9140450Y-111664400D02*
G75*
G03*
X9640450Y-112164400I500001J1D01*
G01*
X15640450Y-112164400D02*
X9640450Y-112164400D01*
X15640450Y-112164400D02*
G75*
G03*
X16140450Y-111664400I-1J500001D01*
G01*
X16140450Y-110164400D02*
X16140450Y-111664400D01*
X33016450Y-110164400D02*
X16140450Y-110164400D01*
X33016450Y-111664400D02*
X33016450Y-110164400D01*
X33016450Y-111664400D02*
G75*
G03*
X33516450Y-112164400I500001J1D01*
G01*
X39516450Y-112164400D02*
X33516450Y-112164400D01*
X39516450Y-112164400D02*
G75*
G03*
X40016450Y-111664400I-1J500001D01*
G01*
X40016450Y-110164400D02*
X40016450Y-111664400D01*
X43328450Y-110164400D02*
X40016450Y-110164400D01*
X43328450Y-110164400D02*
G75*
G03*
X43828450Y-109664400I-1J500001D01*
G01*
X43828450Y-96664400D02*
X43828450Y-109664400D01*
X43828450Y-96664400D02*
G75*
G03*
X43328450Y-96164400I-500001J-1D01*
G01*
X8553450Y-96164400D02*
X43328450Y-96164400D01*
X253822200Y-39014400D02*
G75*
G03*
X253322200Y-39514400I1J-500001D01*
G01*
X253322200Y-52514400D02*
X253322200Y-39514400D01*
X253322200Y-52514400D02*
G75*
G03*
X253822200Y-53014400I500001J1D01*
G01*
X254409200Y-53014400D02*
X253822200Y-53014400D01*
X254409200Y-54514400D02*
X254409200Y-53014400D01*
X254409200Y-54514400D02*
G75*
G03*
X254909200Y-55014400I500001J1D01*
G01*
X260909200Y-55014400D02*
X254909200Y-55014400D01*
X260909200Y-55014400D02*
G75*
G03*
X261409200Y-54514400I-1J500001D01*
G01*
X261409200Y-53014400D02*
X261409200Y-54514400D01*
X278285200Y-53014400D02*
X261409200Y-53014400D01*
X278285200Y-54514400D02*
X278285200Y-53014400D01*
X278285200Y-54514400D02*
G75*
G03*
X278785200Y-55014400I500001J1D01*
G01*
X284785200Y-55014400D02*
X278785200Y-55014400D01*
X284785200Y-55014400D02*
G75*
G03*
X285285200Y-54514400I-1J500001D01*
G01*
X285285200Y-53014400D02*
X285285200Y-54514400D01*
X285872200Y-53014400D02*
X285285200Y-53014400D01*
X285872200Y-53014400D02*
G75*
G03*
X286372200Y-52514400I-1J500001D01*
G01*
X286372200Y-39514400D02*
X286372200Y-52514400D01*
X286372200Y-39514400D02*
G75*
G03*
X285872200Y-39014400I-500001J-1D01*
G01*
X253822200Y-39014400D02*
X285872200Y-39014400D01*
X281109700Y-115214400D02*
X268109700Y-115214400D01*
X281609700Y-115714400D02*
G75*
G03*
X281109700Y-115214400I-500001J-1D01*
G01*
X281609700Y-128714400D02*
X281609700Y-115714400D01*
X281109700Y-129214400D02*
G75*
G03*
X281609700Y-128714400I-1J500001D01*
G01*
X268109700Y-129214400D02*
X281109700Y-129214400D01*
X267609700Y-128714400D02*
G75*
G03*
X268109700Y-129214400I500001J1D01*
G01*
X267609700Y-115714400D02*
X267609700Y-128714400D01*
X268109700Y-115214400D02*
G75*
G03*
X267609700Y-115714400I1J-500001D01*
G01*
X244297200Y-115214400D02*
G75*
G03*
X243797200Y-115714400I1J-500001D01*
G01*
X243797200Y-128714400D02*
X243797200Y-115714400D01*
X243797200Y-128714400D02*
G75*
G03*
X244297200Y-129214400I500001J1D01*
G01*
X257297200Y-129214400D02*
X244297200Y-129214400D01*
X257297200Y-129214400D02*
G75*
G03*
X257797200Y-128714400I-1J500001D01*
G01*
X257797200Y-115714400D02*
X257797200Y-128714400D01*
X257797200Y-115714400D02*
G75*
G03*
X257297200Y-115214400I-500001J-1D01*
G01*
X244297200Y-115214400D02*
X257297200Y-115214400D01*
X220484700Y-115214400D02*
G75*
G03*
X219984700Y-115714400I1J-500001D01*
G01*
X219984700Y-128714400D02*
X219984700Y-115714400D01*
X219984700Y-128714400D02*
G75*
G03*
X220484700Y-129214400I500001J1D01*
G01*
X233484700Y-129214400D02*
X220484700Y-129214400D01*
X233484700Y-129214400D02*
G75*
G03*
X233984700Y-128714400I-1J500001D01*
G01*
X233984700Y-115714400D02*
X233984700Y-128714400D01*
X233984700Y-115714400D02*
G75*
G03*
X233484700Y-115214400I-500001J-1D01*
G01*
X220484700Y-115214400D02*
X233484700Y-115214400D01*
X6172200Y-39014400D02*
G75*
G03*
X5672200Y-39514400I1J-500001D01*
G01*
X5672200Y-52514400D02*
X5672200Y-39514400D01*
X5672200Y-52514400D02*
G75*
G03*
X6172200Y-53014400I500001J1D01*
G01*
X19172200Y-53014400D02*
X6172200Y-53014400D01*
X19172200Y-53014400D02*
G75*
G03*
X19672200Y-52514400I-1J500001D01*
G01*
X19672200Y-39514400D02*
X19672200Y-52514400D01*
X19672200Y-39514400D02*
G75*
G03*
X19172200Y-39014400I-500001J-1D01*
G01*
X6172200Y-39014400D02*
X19172200Y-39014400D01*
X25222200Y-39014400D02*
G75*
G03*
X24722200Y-39514400I1J-500001D01*
G01*
X24722200Y-52514400D02*
X24722200Y-39514400D01*
X24722200Y-52514400D02*
G75*
G03*
X25222200Y-53014400I500001J1D01*
G01*
X38222200Y-53014400D02*
X25222200Y-53014400D01*
X38222200Y-53014400D02*
G75*
G03*
X38722200Y-52514400I-1J500001D01*
G01*
X38722200Y-39514400D02*
X38722200Y-52514400D01*
X38722200Y-39514400D02*
G75*
G03*
X38222200Y-39014400I-500001J-1D01*
G01*
X25222200Y-39014400D02*
X38222200Y-39014400D01*
X82372200Y-39014400D02*
G75*
G03*
X81872200Y-39514400I1J-500001D01*
G01*
X81872200Y-52514400D02*
X81872200Y-39514400D01*
X81872200Y-52514400D02*
G75*
G03*
X82372200Y-53014400I500001J1D01*
G01*
X95372200Y-53014400D02*
X82372200Y-53014400D01*
X95372200Y-53014400D02*
G75*
G03*
X95872200Y-52514400I-1J500001D01*
G01*
X95872200Y-39514400D02*
X95872200Y-52514400D01*
X95872200Y-39514400D02*
G75*
G03*
X95372200Y-39014400I-500001J-1D01*
G01*
X82372200Y-39014400D02*
X95372200Y-39014400D01*
X114922200Y-39514400D02*
G75*
G03*
X114422200Y-39014400I-500001J-1D01*
G01*
X101422200Y-39014400D02*
X114422200Y-39014400D01*
X101422200Y-39014400D02*
G75*
G03*
X100922200Y-39514400I1J-500001D01*
G01*
X100922200Y-52514400D02*
X100922200Y-39514400D01*
X100922200Y-52514400D02*
G75*
G03*
X101422200Y-53014400I500001J1D01*
G01*
X114422200Y-53014400D02*
X101422200Y-53014400D01*
X114422200Y-53014400D02*
G75*
G03*
X114922200Y-52514400I-1J500001D01*
G01*
X114922200Y-39514400D02*
X114922200Y-52514400D01*
X158572200Y-39014400D02*
G75*
G03*
X158072200Y-39514400I1J-500001D01*
G01*
X158072200Y-52514400D02*
X158072200Y-39514400D01*
X158072200Y-52514400D02*
G75*
G03*
X158572200Y-53014400I500001J1D01*
G01*
X171572200Y-53014400D02*
X158572200Y-53014400D01*
X171572200Y-53014400D02*
G75*
G03*
X172072200Y-52514400I-1J500001D01*
G01*
X172072200Y-39514400D02*
X172072200Y-52514400D01*
X172072200Y-39514400D02*
G75*
G03*
X171572200Y-39014400I-500001J-1D01*
G01*
X158572200Y-39014400D02*
X171572200Y-39014400D01*
X44272200Y-39014400D02*
G75*
G03*
X43772200Y-39514400I1J-500001D01*
G01*
X43772200Y-52514400D02*
X43772200Y-39514400D01*
X43772200Y-52514400D02*
G75*
G03*
X44272200Y-53014400I500001J1D01*
G01*
X57272200Y-53014400D02*
X44272200Y-53014400D01*
X57272200Y-53014400D02*
G75*
G03*
X57772200Y-52514400I-1J500001D01*
G01*
X57772200Y-39514400D02*
X57772200Y-52514400D01*
X57772200Y-39514400D02*
G75*
G03*
X57272200Y-39014400I-500001J-1D01*
G01*
X44272200Y-39014400D02*
X57272200Y-39014400D01*
X153022200Y-39514400D02*
G75*
G03*
X152522200Y-39014400I-500001J-1D01*
G01*
X139522200Y-39014400D02*
X152522200Y-39014400D01*
X139522200Y-39014400D02*
G75*
G03*
X139022200Y-39514400I1J-500001D01*
G01*
X139022200Y-52514400D02*
X139022200Y-39514400D01*
X139022200Y-52514400D02*
G75*
G03*
X139522200Y-53014400I500001J1D01*
G01*
X152522200Y-53014400D02*
X139522200Y-53014400D01*
X152522200Y-53014400D02*
G75*
G03*
X153022200Y-52514400I-1J500001D01*
G01*
X153022200Y-39514400D02*
X153022200Y-52514400D01*
X120472200Y-39014400D02*
G75*
G03*
X119972200Y-39514400I1J-500001D01*
G01*
X119972200Y-52514400D02*
X119972200Y-39514400D01*
X119972200Y-52514400D02*
G75*
G03*
X120472200Y-53014400I500001J1D01*
G01*
X133472200Y-53014400D02*
X120472200Y-53014400D01*
X133472200Y-53014400D02*
G75*
G03*
X133972200Y-52514400I-1J500001D01*
G01*
X133972200Y-39514400D02*
X133972200Y-52514400D01*
X133972200Y-39514400D02*
G75*
G03*
X133472200Y-39014400I-500001J-1D01*
G01*
X120472200Y-39014400D02*
X133472200Y-39014400D01*
X76322200Y-39014400D02*
X63322200Y-39014400D01*
X76822200Y-39514400D02*
G75*
G03*
X76322200Y-39014400I-500001J-1D01*
G01*
X76822200Y-52514400D02*
X76822200Y-39514400D01*
X76322200Y-53014400D02*
G75*
G03*
X76822200Y-52514400I-1J500001D01*
G01*
X63322200Y-53014400D02*
X76322200Y-53014400D01*
X62822200Y-52514400D02*
G75*
G03*
X63322200Y-53014400I500001J1D01*
G01*
X62822200Y-39514400D02*
X62822200Y-52514400D01*
X63322200Y-39014400D02*
G75*
G03*
X62822200Y-39514400I1J-500001D01*
G01*
X177622200Y-39014400D02*
G75*
G03*
X177122200Y-39514400I1J-500001D01*
G01*
X177122200Y-52514400D02*
X177122200Y-39514400D01*
X177122200Y-52514400D02*
G75*
G03*
X177622200Y-53014400I500001J1D01*
G01*
X190622200Y-53014400D02*
X177622200Y-53014400D01*
X190622200Y-53014400D02*
G75*
G03*
X191122200Y-52514400I-1J500001D01*
G01*
X191122200Y-39514400D02*
X191122200Y-52514400D01*
X191122200Y-39514400D02*
G75*
G03*
X190622200Y-39014400I-500001J-1D01*
G01*
X177622200Y-39014400D02*
X190622200Y-39014400D01*
X196672200Y-39014400D02*
G75*
G03*
X196172200Y-39514400I1J-500001D01*
G01*
X196172200Y-52514400D02*
X196172200Y-39514400D01*
X196172200Y-52514400D02*
G75*
G03*
X196672200Y-53014400I500001J1D01*
G01*
X209672200Y-53014400D02*
X196672200Y-53014400D01*
X209672200Y-53014400D02*
G75*
G03*
X210172200Y-52514400I-1J500001D01*
G01*
X210172200Y-39514400D02*
X210172200Y-52514400D01*
X210172200Y-39514400D02*
G75*
G03*
X209672200Y-39014400I-500001J-1D01*
G01*
X196672200Y-39014400D02*
X209672200Y-39014400D01*
X229222200Y-39514400D02*
G75*
G03*
X228722200Y-39014400I-500001J-1D01*
G01*
X215722200Y-39014400D02*
X228722200Y-39014400D01*
X215722200Y-39014400D02*
G75*
G03*
X215222200Y-39514400I1J-500001D01*
G01*
X215222200Y-52514400D02*
X215222200Y-39514400D01*
X215222200Y-52514400D02*
G75*
G03*
X215722200Y-53014400I500001J1D01*
G01*
X228722200Y-53014400D02*
X215722200Y-53014400D01*
X228722200Y-53014400D02*
G75*
G03*
X229222200Y-52514400I-1J500001D01*
G01*
X229222200Y-39514400D02*
X229222200Y-52514400D01*
X47747200Y-58064400D02*
X34747200Y-58064400D01*
X48247200Y-58564400D02*
G75*
G03*
X47747200Y-58064400I-500001J-1D01*
G01*
X48247200Y-71564400D02*
X48247200Y-58564400D01*
X47747200Y-72064400D02*
G75*
G03*
X48247200Y-71564400I-1J500001D01*
G01*
X34747200Y-72064400D02*
X47747200Y-72064400D01*
X34247200Y-71564400D02*
G75*
G03*
X34747200Y-72064400I500001J1D01*
G01*
X34247200Y-58564400D02*
X34247200Y-71564400D01*
X34747200Y-58064400D02*
G75*
G03*
X34247200Y-58564400I1J-500001D01*
G01*
X23934700Y-58064400D02*
X10934700Y-58064400D01*
X24434700Y-58564400D02*
G75*
G03*
X23934700Y-58064400I-500001J-1D01*
G01*
X24434700Y-71564400D02*
X24434700Y-58564400D01*
X23934700Y-72064400D02*
G75*
G03*
X24434700Y-71564400I-1J500001D01*
G01*
X10934700Y-72064400D02*
X23934700Y-72064400D01*
X10434700Y-71564400D02*
G75*
G03*
X10934700Y-72064400I500001J1D01*
G01*
X10434700Y-58564400D02*
X10434700Y-71564400D01*
X10934700Y-58064400D02*
G75*
G03*
X10434700Y-58564400I1J-500001D01*
G01*
X234772200Y-39014400D02*
G75*
G03*
X234272200Y-39514400I1J-500001D01*
G01*
X234272200Y-52514400D02*
X234272200Y-39514400D01*
X234272200Y-52514400D02*
G75*
G03*
X234772200Y-53014400I500001J1D01*
G01*
X247772200Y-53014400D02*
X234772200Y-53014400D01*
X247772200Y-53014400D02*
G75*
G03*
X248272200Y-52514400I-1J500001D01*
G01*
X248272200Y-39514400D02*
X248272200Y-52514400D01*
X248272200Y-39514400D02*
G75*
G03*
X247772200Y-39014400I-500001J-1D01*
G01*
X234772200Y-39014400D02*
X247772200Y-39014400D01*
X110947200Y-58064400D02*
G75*
G03*
X110447200Y-58564400I1J-500001D01*
G01*
X110447200Y-71564400D02*
X110447200Y-58564400D01*
X110447200Y-71564400D02*
G75*
G03*
X110947200Y-72064400I500001J1D01*
G01*
X123947200Y-72064400D02*
X110947200Y-72064400D01*
X123947200Y-72064400D02*
G75*
G03*
X124447200Y-71564400I-1J500001D01*
G01*
X124447200Y-58564400D02*
X124447200Y-71564400D01*
X124447200Y-58564400D02*
G75*
G03*
X123947200Y-58064400I-500001J-1D01*
G01*
X110947200Y-58064400D02*
X123947200Y-58064400D01*
X53797200Y-58064400D02*
G75*
G03*
X53297200Y-58564400I1J-500001D01*
G01*
X53297200Y-71564400D02*
X53297200Y-58564400D01*
X53297200Y-71564400D02*
G75*
G03*
X53797200Y-72064400I500001J1D01*
G01*
X66797200Y-72064400D02*
X53797200Y-72064400D01*
X66797200Y-72064400D02*
G75*
G03*
X67297200Y-71564400I-1J500001D01*
G01*
X67297200Y-58564400D02*
X67297200Y-71564400D01*
X67297200Y-58564400D02*
G75*
G03*
X66797200Y-58064400I-500001J-1D01*
G01*
X53797200Y-58064400D02*
X66797200Y-58064400D01*
X104897200Y-58064400D02*
X91897200Y-58064400D01*
X105397200Y-58564400D02*
G75*
G03*
X104897200Y-58064400I-500001J-1D01*
G01*
X105397200Y-71564400D02*
X105397200Y-58564400D01*
X104897200Y-72064400D02*
G75*
G03*
X105397200Y-71564400I-1J500001D01*
G01*
X91897200Y-72064400D02*
X104897200Y-72064400D01*
X91397200Y-71564400D02*
G75*
G03*
X91897200Y-72064400I500001J1D01*
G01*
X91397200Y-58564400D02*
X91397200Y-71564400D01*
X91897200Y-58064400D02*
G75*
G03*
X91397200Y-58564400I1J-500001D01*
G01*
X244297200Y-58064400D02*
G75*
G03*
X243797200Y-58564400I1J-500001D01*
G01*
X243797200Y-71564400D02*
X243797200Y-58564400D01*
X243797200Y-71564400D02*
G75*
G03*
X244297200Y-72064400I500001J1D01*
G01*
X257297200Y-72064400D02*
X244297200Y-72064400D01*
X257297200Y-72064400D02*
G75*
G03*
X257797200Y-71564400I-1J500001D01*
G01*
X257797200Y-58564400D02*
X257797200Y-71564400D01*
X257797200Y-58564400D02*
G75*
G03*
X257297200Y-58064400I-500001J-1D01*
G01*
X244297200Y-58064400D02*
X257297200Y-58064400D01*
X72847200Y-58064400D02*
G75*
G03*
X72347200Y-58564400I1J-500001D01*
G01*
X72347200Y-71564400D02*
X72347200Y-58564400D01*
X72347200Y-71564400D02*
G75*
G03*
X72847200Y-72064400I500001J1D01*
G01*
X85847200Y-72064400D02*
X72847200Y-72064400D01*
X85847200Y-72064400D02*
G75*
G03*
X86347200Y-71564400I-1J500001D01*
G01*
X86347200Y-58564400D02*
X86347200Y-71564400D01*
X86347200Y-58564400D02*
G75*
G03*
X85847200Y-58064400I-500001J-1D01*
G01*
X72847200Y-58064400D02*
X85847200Y-58064400D01*
X225247200Y-58064400D02*
G75*
G03*
X224747200Y-58564400I1J-500001D01*
G01*
X224747200Y-71564400D02*
X224747200Y-58564400D01*
X224747200Y-71564400D02*
G75*
G03*
X225247200Y-72064400I500001J1D01*
G01*
X238247200Y-72064400D02*
X225247200Y-72064400D01*
X238247200Y-72064400D02*
G75*
G03*
X238747200Y-71564400I-1J500001D01*
G01*
X238747200Y-58564400D02*
X238747200Y-71564400D01*
X238747200Y-58564400D02*
G75*
G03*
X238247200Y-58064400I-500001J-1D01*
G01*
X225247200Y-58064400D02*
X238247200Y-58064400D01*
X206197200Y-58064400D02*
G75*
G03*
X205697200Y-58564400I1J-500001D01*
G01*
X205697200Y-71564400D02*
X205697200Y-58564400D01*
X205697200Y-71564400D02*
G75*
G03*
X206197200Y-72064400I500001J1D01*
G01*
X219197200Y-72064400D02*
X206197200Y-72064400D01*
X219197200Y-72064400D02*
G75*
G03*
X219697200Y-71564400I-1J500001D01*
G01*
X219697200Y-58564400D02*
X219697200Y-71564400D01*
X219697200Y-58564400D02*
G75*
G03*
X219197200Y-58064400I-500001J-1D01*
G01*
X206197200Y-58064400D02*
X219197200Y-58064400D01*
X187147200Y-58064400D02*
G75*
G03*
X186647200Y-58564400I1J-500001D01*
G01*
X186647200Y-71564400D02*
X186647200Y-58564400D01*
X186647200Y-71564400D02*
G75*
G03*
X187147200Y-72064400I500001J1D01*
G01*
X200147200Y-72064400D02*
X187147200Y-72064400D01*
X200147200Y-72064400D02*
G75*
G03*
X200647200Y-71564400I-1J500001D01*
G01*
X200647200Y-58564400D02*
X200647200Y-71564400D01*
X200647200Y-58564400D02*
G75*
G03*
X200147200Y-58064400I-500001J-1D01*
G01*
X187147200Y-58064400D02*
X200147200Y-58064400D01*
X168097200Y-58064400D02*
G75*
G03*
X167597200Y-58564400I1J-500001D01*
G01*
X167597200Y-71564400D02*
X167597200Y-58564400D01*
X167597200Y-71564400D02*
G75*
G03*
X168097200Y-72064400I500001J1D01*
G01*
X181097200Y-72064400D02*
X168097200Y-72064400D01*
X181097200Y-72064400D02*
G75*
G03*
X181597200Y-71564400I-1J500001D01*
G01*
X181597200Y-58564400D02*
X181597200Y-71564400D01*
X181597200Y-58564400D02*
G75*
G03*
X181097200Y-58064400I-500001J-1D01*
G01*
X168097200Y-58064400D02*
X181097200Y-58064400D01*
X129997200Y-58064400D02*
G75*
G03*
X129497200Y-58564400I1J-500001D01*
G01*
X129497200Y-71564400D02*
X129497200Y-58564400D01*
X129497200Y-71564400D02*
G75*
G03*
X129997200Y-72064400I500001J1D01*
G01*
X142997200Y-72064400D02*
X129997200Y-72064400D01*
X142997200Y-72064400D02*
G75*
G03*
X143497200Y-71564400I-1J500001D01*
G01*
X143497200Y-58564400D02*
X143497200Y-71564400D01*
X143497200Y-58564400D02*
G75*
G03*
X142997200Y-58064400I-500001J-1D01*
G01*
X129997200Y-58064400D02*
X142997200Y-58064400D01*
X149047200Y-58064400D02*
G75*
G03*
X148547200Y-58564400I1J-500001D01*
G01*
X148547200Y-71564400D02*
X148547200Y-58564400D01*
X148547200Y-71564400D02*
G75*
G03*
X149047200Y-72064400I500001J1D01*
G01*
X162047200Y-72064400D02*
X149047200Y-72064400D01*
X162047200Y-72064400D02*
G75*
G03*
X162547200Y-71564400I-1J500001D01*
G01*
X162547200Y-58564400D02*
X162547200Y-71564400D01*
X162547200Y-58564400D02*
G75*
G03*
X162047200Y-58064400I-500001J-1D01*
G01*
X149047200Y-58064400D02*
X162047200Y-58064400D01*
X8553450Y-77114400D02*
G75*
G03*
X8053450Y-77614400I1J-500001D01*
G01*
X8053450Y-90614400D02*
X8053450Y-77614400D01*
X8053450Y-90614400D02*
G75*
G03*
X8553450Y-91114400I500001J1D01*
G01*
X26315950Y-91114400D02*
X8553450Y-91114400D01*
X26315950Y-91114400D02*
G75*
G03*
X26815950Y-90614400I-1J500001D01*
G01*
X26815950Y-77614400D02*
X26815950Y-90614400D01*
X26815950Y-77614400D02*
G75*
G03*
X26315950Y-77114400I-500001J-1D01*
G01*
X8553450Y-77114400D02*
X26315950Y-77114400D01*
X39509700Y-77114400D02*
G75*
G03*
X39009700Y-77614400I1J-500001D01*
G01*
X39009700Y-90614400D02*
X39009700Y-77614400D01*
X39009700Y-90614400D02*
G75*
G03*
X39509700Y-91114400I500001J1D01*
G01*
X52509700Y-91114400D02*
X39509700Y-91114400D01*
X52509700Y-91114400D02*
G75*
G03*
X53009700Y-90614400I-1J500001D01*
G01*
X53009700Y-77614400D02*
X53009700Y-90614400D01*
X53009700Y-77614400D02*
G75*
G03*
X52509700Y-77114400I-500001J-1D01*
G01*
X39509700Y-77114400D02*
X52509700Y-77114400D01*
X71559700Y-77114400D02*
X58559700Y-77114400D01*
X72059700Y-77614400D02*
G75*
G03*
X71559700Y-77114400I-500001J-1D01*
G01*
X72059700Y-90614400D02*
X72059700Y-77614400D01*
X71559700Y-91114400D02*
G75*
G03*
X72059700Y-90614400I-1J500001D01*
G01*
X58559700Y-91114400D02*
X71559700Y-91114400D01*
X58059700Y-90614400D02*
G75*
G03*
X58559700Y-91114400I500001J1D01*
G01*
X58059700Y-77614400D02*
X58059700Y-90614400D01*
X58559700Y-77114400D02*
G75*
G03*
X58059700Y-77614400I1J-500001D01*
G01*
X77609700Y-77114400D02*
G75*
G03*
X77109700Y-77614400I1J-500001D01*
G01*
X77109700Y-90614400D02*
X77109700Y-77614400D01*
X77109700Y-90614400D02*
G75*
G03*
X77609700Y-91114400I500001J1D01*
G01*
X90609700Y-91114400D02*
X77609700Y-91114400D01*
X90609700Y-91114400D02*
G75*
G03*
X91109700Y-90614400I-1J500001D01*
G01*
X91109700Y-77614400D02*
X91109700Y-90614400D01*
X91109700Y-77614400D02*
G75*
G03*
X90609700Y-77114400I-500001J-1D01*
G01*
X77609700Y-77114400D02*
X90609700Y-77114400D01*
X96659700Y-77114400D02*
G75*
G03*
X96159700Y-77614400I1J-500001D01*
G01*
X96159700Y-90614400D02*
X96159700Y-77614400D01*
X96159700Y-90614400D02*
G75*
G03*
X96659700Y-91114400I500001J1D01*
G01*
X109659700Y-91114400D02*
X96659700Y-91114400D01*
X109659700Y-91114400D02*
G75*
G03*
X110159700Y-90614400I-1J500001D01*
G01*
X110159700Y-77614400D02*
X110159700Y-90614400D01*
X110159700Y-77614400D02*
G75*
G03*
X109659700Y-77114400I-500001J-1D01*
G01*
X96659700Y-77114400D02*
X109659700Y-77114400D01*
X115709700Y-77114400D02*
G75*
G03*
X115209700Y-77614400I1J-500001D01*
G01*
X115209700Y-90614400D02*
X115209700Y-77614400D01*
X115209700Y-90614400D02*
G75*
G03*
X115709700Y-91114400I500001J1D01*
G01*
X128709700Y-91114400D02*
X115709700Y-91114400D01*
X128709700Y-91114400D02*
G75*
G03*
X129209700Y-90614400I-1J500001D01*
G01*
X129209700Y-77614400D02*
X129209700Y-90614400D01*
X129209700Y-77614400D02*
G75*
G03*
X128709700Y-77114400I-500001J-1D01*
G01*
X115709700Y-77114400D02*
X128709700Y-77114400D01*
X134759700Y-77114400D02*
G75*
G03*
X134259700Y-77614400I1J-500001D01*
G01*
X134259700Y-90614400D02*
X134259700Y-77614400D01*
X134259700Y-90614400D02*
G75*
G03*
X134759700Y-91114400I500001J1D01*
G01*
X147759700Y-91114400D02*
X134759700Y-91114400D01*
X147759700Y-91114400D02*
G75*
G03*
X148259700Y-90614400I-1J500001D01*
G01*
X148259700Y-77614400D02*
X148259700Y-90614400D01*
X148259700Y-77614400D02*
G75*
G03*
X147759700Y-77114400I-500001J-1D01*
G01*
X134759700Y-77114400D02*
X147759700Y-77114400D01*
X210959700Y-77114400D02*
G75*
G03*
X210459700Y-77614400I1J-500001D01*
G01*
X210459700Y-90614400D02*
X210459700Y-77614400D01*
X210459700Y-90614400D02*
G75*
G03*
X210959700Y-91114400I500001J1D01*
G01*
X223959700Y-91114400D02*
X210959700Y-91114400D01*
X223959700Y-91114400D02*
G75*
G03*
X224459700Y-90614400I-1J500001D01*
G01*
X224459700Y-77614400D02*
X224459700Y-90614400D01*
X224459700Y-77614400D02*
G75*
G03*
X223959700Y-77114400I-500001J-1D01*
G01*
X210959700Y-77114400D02*
X223959700Y-77114400D01*
X153809700Y-77114400D02*
G75*
G03*
X153309700Y-77614400I1J-500001D01*
G01*
X153309700Y-90614400D02*
X153309700Y-77614400D01*
X153309700Y-90614400D02*
G75*
G03*
X153809700Y-91114400I500001J1D01*
G01*
X166809700Y-91114400D02*
X153809700Y-91114400D01*
X166809700Y-91114400D02*
G75*
G03*
X167309700Y-90614400I-1J500001D01*
G01*
X167309700Y-77614400D02*
X167309700Y-90614400D01*
X167309700Y-77614400D02*
G75*
G03*
X166809700Y-77114400I-500001J-1D01*
G01*
X153809700Y-77114400D02*
X166809700Y-77114400D01*
X205409700Y-77614400D02*
G75*
G03*
X204909700Y-77114400I-500001J-1D01*
G01*
X191909700Y-77114400D02*
X204909700Y-77114400D01*
X191909700Y-77114400D02*
G75*
G03*
X191409700Y-77614400I1J-500001D01*
G01*
X191409700Y-90614400D02*
X191409700Y-77614400D01*
X191409700Y-90614400D02*
G75*
G03*
X191909700Y-91114400I500001J1D01*
G01*
X204909700Y-91114400D02*
X191909700Y-91114400D01*
X204909700Y-91114400D02*
G75*
G03*
X205409700Y-90614400I-1J500001D01*
G01*
X205409700Y-77614400D02*
X205409700Y-90614400D01*
X230009700Y-77114400D02*
G75*
G03*
X229509700Y-77614400I1J-500001D01*
G01*
X229509700Y-90614400D02*
X229509700Y-77614400D01*
X229509700Y-90614400D02*
G75*
G03*
X230009700Y-91114400I500001J1D01*
G01*
X243009700Y-91114400D02*
X230009700Y-91114400D01*
X243009700Y-91114400D02*
G75*
G03*
X243509700Y-90614400I-1J500001D01*
G01*
X243509700Y-77614400D02*
X243509700Y-90614400D01*
X243509700Y-77614400D02*
G75*
G03*
X243009700Y-77114400I-500001J-1D01*
G01*
X230009700Y-77114400D02*
X243009700Y-77114400D01*
X172859700Y-77114400D02*
G75*
G03*
X172359700Y-77614400I1J-500001D01*
G01*
X172359700Y-90614400D02*
X172359700Y-77614400D01*
X172359700Y-90614400D02*
G75*
G03*
X172859700Y-91114400I500001J1D01*
G01*
X185859700Y-91114400D02*
X172859700Y-91114400D01*
X185859700Y-91114400D02*
G75*
G03*
X186359700Y-90614400I-1J500001D01*
G01*
X186359700Y-77614400D02*
X186359700Y-90614400D01*
X186359700Y-77614400D02*
G75*
G03*
X185859700Y-77114400I-500001J-1D01*
G01*
X172859700Y-77114400D02*
X185859700Y-77114400D01*
X144284700Y-96164400D02*
G75*
G03*
X143784700Y-96664400I1J-500001D01*
G01*
X143784700Y-109664400D02*
X143784700Y-96664400D01*
X143784700Y-109664400D02*
G75*
G03*
X144284700Y-110164400I500001J1D01*
G01*
X157284700Y-110164400D02*
X144284700Y-110164400D01*
X157284700Y-110164400D02*
G75*
G03*
X157784700Y-109664400I-1J500001D01*
G01*
X157784700Y-96664400D02*
X157784700Y-109664400D01*
X157784700Y-96664400D02*
G75*
G03*
X157284700Y-96164400I-500001J-1D01*
G01*
X144284700Y-96164400D02*
X157284700Y-96164400D01*
X49034700Y-96164400D02*
G75*
G03*
X48534700Y-96664400I1J-500001D01*
G01*
X48534700Y-109664400D02*
X48534700Y-96664400D01*
X48534700Y-109664400D02*
G75*
G03*
X49034700Y-110164400I500001J1D01*
G01*
X62034700Y-110164400D02*
X49034700Y-110164400D01*
X62034700Y-110164400D02*
G75*
G03*
X62534700Y-109664400I-1J500001D01*
G01*
X62534700Y-96664400D02*
X62534700Y-109664400D01*
X62534700Y-96664400D02*
G75*
G03*
X62034700Y-96164400I-500001J-1D01*
G01*
X49034700Y-96164400D02*
X62034700Y-96164400D01*
X100134700Y-96164400D02*
X87134700Y-96164400D01*
X100634700Y-96664400D02*
G75*
G03*
X100134700Y-96164400I-500001J-1D01*
G01*
X100634700Y-109664400D02*
X100634700Y-96664400D01*
X100134700Y-110164400D02*
G75*
G03*
X100634700Y-109664400I-1J500001D01*
G01*
X87134700Y-110164400D02*
X100134700Y-110164400D01*
X86634700Y-109664400D02*
G75*
G03*
X87134700Y-110164400I500001J1D01*
G01*
X86634700Y-96664400D02*
X86634700Y-109664400D01*
X87134700Y-96164400D02*
G75*
G03*
X86634700Y-96664400I1J-500001D01*
G01*
X125234700Y-96164400D02*
G75*
G03*
X124734700Y-96664400I1J-500001D01*
G01*
X124734700Y-109664400D02*
X124734700Y-96664400D01*
X124734700Y-109664400D02*
G75*
G03*
X125234700Y-110164400I500001J1D01*
G01*
X138234700Y-110164400D02*
X125234700Y-110164400D01*
X138234700Y-110164400D02*
G75*
G03*
X138734700Y-109664400I-1J500001D01*
G01*
X138734700Y-96664400D02*
X138734700Y-109664400D01*
X138734700Y-96664400D02*
G75*
G03*
X138234700Y-96164400I-500001J-1D01*
G01*
X125234700Y-96164400D02*
X138234700Y-96164400D01*
X119184700Y-96164400D02*
X106184700Y-96164400D01*
X119684700Y-96664400D02*
G75*
G03*
X119184700Y-96164400I-500001J-1D01*
G01*
X119684700Y-109664400D02*
X119684700Y-96664400D01*
X119184700Y-110164400D02*
G75*
G03*
X119684700Y-109664400I-1J500001D01*
G01*
X106184700Y-110164400D02*
X119184700Y-110164400D01*
X105684700Y-109664400D02*
G75*
G03*
X106184700Y-110164400I500001J1D01*
G01*
X105684700Y-96664400D02*
X105684700Y-109664400D01*
X106184700Y-96164400D02*
G75*
G03*
X105684700Y-96664400I1J-500001D01*
G01*
X81084700Y-96164400D02*
X68084700Y-96164400D01*
X81584700Y-96664400D02*
G75*
G03*
X81084700Y-96164400I-500001J-1D01*
G01*
X81584700Y-109664400D02*
X81584700Y-96664400D01*
X81084700Y-110164400D02*
G75*
G03*
X81584700Y-109664400I-1J500001D01*
G01*
X68084700Y-110164400D02*
X81084700Y-110164400D01*
X67584700Y-109664400D02*
G75*
G03*
X68084700Y-110164400I500001J1D01*
G01*
X67584700Y-96664400D02*
X67584700Y-109664400D01*
X68084700Y-96164400D02*
G75*
G03*
X67584700Y-96664400I1J-500001D01*
G01*
X163334700Y-96164400D02*
G75*
G03*
X162834700Y-96664400I1J-500001D01*
G01*
X162834700Y-109664400D02*
X162834700Y-96664400D01*
X162834700Y-109664400D02*
G75*
G03*
X163334700Y-110164400I500001J1D01*
G01*
X176334700Y-110164400D02*
X163334700Y-110164400D01*
X176334700Y-110164400D02*
G75*
G03*
X176834700Y-109664400I-1J500001D01*
G01*
X176834700Y-96664400D02*
X176834700Y-109664400D01*
X176834700Y-96664400D02*
G75*
G03*
X176334700Y-96164400I-500001J-1D01*
G01*
X163334700Y-96164400D02*
X176334700Y-96164400D01*
X182384700Y-96164400D02*
G75*
G03*
X181884700Y-96664400I1J-500001D01*
G01*
X181884700Y-109664400D02*
X181884700Y-96664400D01*
X181884700Y-109664400D02*
G75*
G03*
X182384700Y-110164400I500001J1D01*
G01*
X195384700Y-110164400D02*
X182384700Y-110164400D01*
X195384700Y-110164400D02*
G75*
G03*
X195884700Y-109664400I-1J500001D01*
G01*
X195884700Y-96664400D02*
X195884700Y-109664400D01*
X195884700Y-96664400D02*
G75*
G03*
X195384700Y-96164400I-500001J-1D01*
G01*
X182384700Y-96164400D02*
X195384700Y-96164400D01*
X220484700Y-96164400D02*
G75*
G03*
X219984700Y-96664400I1J-500001D01*
G01*
X219984700Y-109664400D02*
X219984700Y-96664400D01*
X219984700Y-109664400D02*
G75*
G03*
X220484700Y-110164400I500001J1D01*
G01*
X233484700Y-110164400D02*
X220484700Y-110164400D01*
X233484700Y-110164400D02*
G75*
G03*
X233984700Y-109664400I-1J500001D01*
G01*
X233984700Y-96664400D02*
X233984700Y-109664400D01*
X233984700Y-96664400D02*
G75*
G03*
X233484700Y-96164400I-500001J-1D01*
G01*
X220484700Y-96164400D02*
X233484700Y-96164400D01*
X201434700Y-96164400D02*
G75*
G03*
X200934700Y-96664400I1J-500001D01*
G01*
X200934700Y-109664400D02*
X200934700Y-96664400D01*
X200934700Y-109664400D02*
G75*
G03*
X201434700Y-110164400I500001J1D01*
G01*
X214434700Y-110164400D02*
X201434700Y-110164400D01*
X214434700Y-110164400D02*
G75*
G03*
X214934700Y-109664400I-1J500001D01*
G01*
X214934700Y-96664400D02*
X214934700Y-109664400D01*
X214934700Y-96664400D02*
G75*
G03*
X214434700Y-96164400I-500001J-1D01*
G01*
X201434700Y-96164400D02*
X214434700Y-96164400D01*
X24434700Y-128714400D02*
X24434700Y-115714400D01*
X23934700Y-129214400D02*
G75*
G03*
X24434700Y-128714400I-1J500001D01*
G01*
X10934700Y-129214400D02*
X23934700Y-129214400D01*
X10434700Y-128714400D02*
G75*
G03*
X10934700Y-129214400I500001J1D01*
G01*
X10434700Y-115714400D02*
X10434700Y-128714400D01*
X10934700Y-115214400D02*
G75*
G03*
X10434700Y-115714400I1J-500001D01*
G01*
X23934700Y-115214400D02*
X10934700Y-115214400D01*
X24434700Y-115714400D02*
G75*
G03*
X23934700Y-115214400I-500001J-1D01*
G01*
X48247200Y-128714400D02*
X48247200Y-115714400D01*
X47747200Y-129214400D02*
G75*
G03*
X48247200Y-128714400I-1J500001D01*
G01*
X34747200Y-129214400D02*
X47747200Y-129214400D01*
X34247200Y-128714400D02*
G75*
G03*
X34747200Y-129214400I500001J1D01*
G01*
X34247200Y-115714400D02*
X34247200Y-128714400D01*
X34747200Y-115214400D02*
G75*
G03*
X34247200Y-115714400I1J-500001D01*
G01*
X47747200Y-115214400D02*
X34747200Y-115214400D01*
X48247200Y-115714400D02*
G75*
G03*
X47747200Y-115214400I-500001J-1D01*
G01*
X72059700Y-128714400D02*
X72059700Y-115714400D01*
X71559700Y-129214400D02*
G75*
G03*
X72059700Y-128714400I-1J500001D01*
G01*
X58559700Y-129214400D02*
X71559700Y-129214400D01*
X58059700Y-128714400D02*
G75*
G03*
X58559700Y-129214400I500001J1D01*
G01*
X58059700Y-115714400D02*
X58059700Y-128714400D01*
X58559700Y-115214400D02*
G75*
G03*
X58059700Y-115714400I1J-500001D01*
G01*
X71559700Y-115214400D02*
X58559700Y-115214400D01*
X72059700Y-115714400D02*
G75*
G03*
X71559700Y-115214400I-500001J-1D01*
G01*
X107810195Y-119163552D02*
X109938415Y-115515174D01*
X107810195Y-119163552D02*
G75*
G03*
X107673974Y-119667423I863786J-503873D01*
G01*
X107673974Y-122822703D02*
X107673974Y-119667423D01*
X107673974Y-122822703D02*
G75*
G03*
X108170103Y-123686482I1000000J0D01*
G01*
X117007524Y-128841644D02*
X108170103Y-123686482D01*
X116906750Y-129214401D02*
G75*
G03*
X117007524Y-128841644I-1J200001D01*
G01*
X97922200Y-129214400D02*
X116906750Y-129214400D01*
X97422200Y-128714400D02*
G75*
G03*
X97922200Y-129214400I500001J1D01*
G01*
X97422200Y-115714400D02*
X97422200Y-128714400D01*
X97922200Y-115214400D02*
G75*
G03*
X97422200Y-115714400I1J-500001D01*
G01*
X109765659Y-115214400D02*
X97922200Y-115214400D01*
X109938416Y-115515174D02*
G75*
G03*
X109765659Y-115214400I-172756J100774D01*
G01*
M02*
