%TF.GenerationSoftware,KiCad,Pcbnew,(6.0.11)*%
%TF.CreationDate,2023-02-10T12:21:56+01:00*%
%TF.ProjectId,plaket60-OG,706c616b-6574-4363-902d-4f472e6b6963,0.1*%
%TF.SameCoordinates,Original*%
%TF.FileFunction,Paste,Bot*%
%TF.FilePolarity,Positive*%
%FSLAX46Y46*%
G04 Gerber Fmt 4.6, Leading zero omitted, Abs format (unit mm)*
G04 Created by KiCad (PCBNEW (6.0.11)) date 2023-02-10 12:21:56*
%MOMM*%
%LPD*%
G01*
G04 APERTURE LIST*
G04 Aperture macros list*
%AMRoundRect*
0 Rectangle with rounded corners*
0 $1 Rounding radius*
0 $2 $3 $4 $5 $6 $7 $8 $9 X,Y pos of 4 corners*
0 Add a 4 corners polygon primitive as box body*
4,1,4,$2,$3,$4,$5,$6,$7,$8,$9,$2,$3,0*
0 Add four circle primitives for the rounded corners*
1,1,$1+$1,$2,$3*
1,1,$1+$1,$4,$5*
1,1,$1+$1,$6,$7*
1,1,$1+$1,$8,$9*
0 Add four rect primitives between the rounded corners*
20,1,$1+$1,$2,$3,$4,$5,0*
20,1,$1+$1,$4,$5,$6,$7,0*
20,1,$1+$1,$6,$7,$8,$9,0*
20,1,$1+$1,$8,$9,$2,$3,0*%
G04 Aperture macros list end*
%ADD10R,1.000000X0.700000*%
%ADD11R,0.600000X0.700000*%
%ADD12R,1.200000X0.900000*%
%ADD13RoundRect,0.140000X-0.170000X0.140000X-0.170000X-0.140000X0.170000X-0.140000X0.170000X0.140000X0*%
%ADD14RoundRect,0.140000X0.170000X-0.140000X0.170000X0.140000X-0.170000X0.140000X-0.170000X-0.140000X0*%
%ADD15RoundRect,0.140000X-0.140000X-0.170000X0.140000X-0.170000X0.140000X0.170000X-0.140000X0.170000X0*%
%ADD16RoundRect,0.135000X0.185000X-0.135000X0.185000X0.135000X-0.185000X0.135000X-0.185000X-0.135000X0*%
%ADD17RoundRect,0.250000X0.292217X0.292217X-0.292217X0.292217X-0.292217X-0.292217X0.292217X-0.292217X0*%
%ADD18RoundRect,0.050000X0.387500X0.050000X-0.387500X0.050000X-0.387500X-0.050000X0.387500X-0.050000X0*%
%ADD19RoundRect,0.050000X0.050000X0.387500X-0.050000X0.387500X-0.050000X-0.387500X0.050000X-0.387500X0*%
%ADD20RoundRect,0.140000X0.140000X0.170000X-0.140000X0.170000X-0.140000X-0.170000X0.140000X-0.170000X0*%
%ADD21RoundRect,0.135000X-0.185000X0.135000X-0.185000X-0.135000X0.185000X-0.135000X0.185000X0.135000X0*%
%ADD22RoundRect,0.150000X-0.625000X0.150000X-0.625000X-0.150000X0.625000X-0.150000X0.625000X0.150000X0*%
%ADD23RoundRect,0.250000X-0.650000X0.350000X-0.650000X-0.350000X0.650000X-0.350000X0.650000X0.350000X0*%
%ADD24R,1.400000X1.200000*%
%ADD25RoundRect,0.150000X-0.587500X-0.150000X0.587500X-0.150000X0.587500X0.150000X-0.587500X0.150000X0*%
%ADD26RoundRect,0.150000X-0.150000X0.650000X-0.150000X-0.650000X0.150000X-0.650000X0.150000X0.650000X0*%
%ADD27RoundRect,0.243750X-0.243750X-0.456250X0.243750X-0.456250X0.243750X0.456250X-0.243750X0.456250X0*%
%ADD28RoundRect,0.140000X-0.219203X-0.021213X-0.021213X-0.219203X0.219203X0.021213X0.021213X0.219203X0*%
G04 APERTURE END LIST*
D10*
%TO.C,U4*%
X59170000Y-59039000D03*
D11*
X57470000Y-59039000D03*
X57470000Y-57039000D03*
X59370000Y-57039000D03*
%TD*%
D12*
%TO.C,D19*%
X106275000Y-108900000D03*
X106275000Y-105600000D03*
%TD*%
D13*
%TO.C,C_3V-Decoup8*%
X57900000Y-90170000D03*
X57900000Y-91130000D03*
%TD*%
D12*
%TO.C,D46*%
X220575000Y-108900000D03*
X220575000Y-105600000D03*
%TD*%
%TO.C,D15*%
X96774500Y-127949500D03*
X96774500Y-124649500D03*
%TD*%
%TO.C,D63*%
X291725000Y-53300000D03*
X291725000Y-50000000D03*
%TD*%
%TO.C,D35*%
X187250000Y-70800000D03*
X187250000Y-67500000D03*
%TD*%
D14*
%TO.C,C_1V-Decoup2*%
X60425000Y-75080000D03*
X60425000Y-74120000D03*
%TD*%
D12*
%TO.C,D26*%
X149150000Y-70800000D03*
X149150000Y-67500000D03*
%TD*%
D15*
%TO.C,C_LDO2*%
X48542000Y-59055000D03*
X49502000Y-59055000D03*
%TD*%
D12*
%TO.C,D54*%
X263450000Y-70800000D03*
X263450000Y-67500000D03*
%TD*%
D14*
%TO.C,C_3V-Decoup2*%
X54700000Y-77455000D03*
X54700000Y-76495000D03*
%TD*%
D12*
%TO.C,D34*%
X177725000Y-52700000D03*
X177725000Y-49400000D03*
%TD*%
%TO.C,D50*%
X249175000Y-89875000D03*
X249175000Y-86575000D03*
%TD*%
D14*
%TO.C,C_Flash1*%
X75300000Y-75105000D03*
X75300000Y-74145000D03*
%TD*%
%TO.C,C_3V-Decoup6*%
X63750000Y-80155000D03*
X63750000Y-79195000D03*
%TD*%
D12*
%TO.C,D48*%
X234875000Y-52700000D03*
X234875000Y-49400000D03*
%TD*%
%TO.C,D22*%
X134875000Y-89850000D03*
X134875000Y-86550000D03*
%TD*%
D14*
%TO.C,C_Crystal2*%
X57300000Y-93905000D03*
X57300000Y-92945000D03*
%TD*%
D12*
%TO.C,D40*%
X206300000Y-70800000D03*
X206300000Y-67500000D03*
%TD*%
D16*
%TO.C,R_Crystal1*%
X59075000Y-91135000D03*
X59075000Y-90115000D03*
%TD*%
D12*
%TO.C,D14*%
X96775000Y-89850000D03*
X96775000Y-86550000D03*
%TD*%
%TO.C,D10*%
X72962000Y-127949500D03*
X72962000Y-124649500D03*
%TD*%
%TO.C,D61*%
X294400000Y-108900000D03*
X294400000Y-105600000D03*
%TD*%
%TO.C,D9*%
X68200000Y-108900000D03*
X68200000Y-105600000D03*
%TD*%
%TO.C,D37*%
X182500000Y-108900000D03*
X182500000Y-105600000D03*
%TD*%
D14*
%TO.C,C_1V-Decoup1*%
X55850000Y-76455000D03*
X55850000Y-75495000D03*
%TD*%
D17*
%TO.C,U1*%
X58462500Y-82612500D03*
X58462500Y-83887500D03*
X59737500Y-82612500D03*
X59737500Y-83887500D03*
D18*
X62537500Y-80650000D03*
X62537500Y-81050000D03*
X62537500Y-81450000D03*
X62537500Y-81850000D03*
X62537500Y-82250000D03*
X62537500Y-82650000D03*
X62537500Y-83050000D03*
X62537500Y-83450000D03*
X62537500Y-83850000D03*
X62537500Y-84250000D03*
X62537500Y-84650000D03*
X62537500Y-85050000D03*
X62537500Y-85450000D03*
X62537500Y-85850000D03*
D19*
X61700000Y-86687500D03*
X61300000Y-86687500D03*
X60900000Y-86687500D03*
X60500000Y-86687500D03*
X60100000Y-86687500D03*
X59700000Y-86687500D03*
X59300000Y-86687500D03*
X58900000Y-86687500D03*
X58500000Y-86687500D03*
X58100000Y-86687500D03*
X57700000Y-86687500D03*
X57300000Y-86687500D03*
X56900000Y-86687500D03*
X56500000Y-86687500D03*
D18*
X55662500Y-85850000D03*
X55662500Y-85450000D03*
X55662500Y-85050000D03*
X55662500Y-84650000D03*
X55662500Y-84250000D03*
X55662500Y-83850000D03*
X55662500Y-83450000D03*
X55662500Y-83050000D03*
X55662500Y-82650000D03*
X55662500Y-82250000D03*
X55662500Y-81850000D03*
X55662500Y-81450000D03*
X55662500Y-81050000D03*
X55662500Y-80650000D03*
D19*
X56500000Y-79812500D03*
X56900000Y-79812500D03*
X57300000Y-79812500D03*
X57700000Y-79812500D03*
X58100000Y-79812500D03*
X58500000Y-79812500D03*
X58900000Y-79812500D03*
X59300000Y-79812500D03*
X59700000Y-79812500D03*
X60100000Y-79812500D03*
X60500000Y-79812500D03*
X60900000Y-79812500D03*
X61300000Y-79812500D03*
X61700000Y-79812500D03*
%TD*%
D12*
%TO.C,D39*%
X196775000Y-52700000D03*
X196775000Y-49400000D03*
%TD*%
%TO.C,D2*%
X49125000Y-70800000D03*
X49125000Y-67500000D03*
%TD*%
%TO.C,D6*%
X63425000Y-51750000D03*
X63425000Y-48450000D03*
%TD*%
D20*
%TO.C,C_3V-Decoup7*%
X53030000Y-78700000D03*
X52070000Y-78700000D03*
%TD*%
%TO.C,C_LDO1*%
X54074000Y-55118000D03*
X53114000Y-55118000D03*
%TD*%
D12*
%TO.C,D1*%
X44375000Y-51750000D03*
X44375000Y-48450000D03*
%TD*%
%TO.C,D67*%
X311075000Y-108900000D03*
X311075000Y-105600000D03*
%TD*%
%TO.C,D13*%
X92000000Y-70800000D03*
X92000000Y-67500000D03*
%TD*%
D21*
%TO.C,R_DATA2*%
X56925000Y-75240000D03*
X56925000Y-76260000D03*
%TD*%
D20*
%TO.C,C_3V-Decoup4*%
X53880000Y-84250000D03*
X52920000Y-84250000D03*
%TD*%
D12*
%TO.C,D21*%
X130100000Y-70800000D03*
X130100000Y-67500000D03*
%TD*%
D21*
%TO.C,R_DATA1*%
X58075000Y-75240000D03*
X58075000Y-76260000D03*
%TD*%
D12*
%TO.C,D4*%
X56275000Y-108900000D03*
X56275000Y-105600000D03*
%TD*%
%TO.C,D3*%
X51525000Y-89850000D03*
X51525000Y-86550000D03*
%TD*%
%TO.C,D36*%
X192025000Y-89850000D03*
X192025000Y-86550000D03*
%TD*%
%TO.C,D12*%
X82475000Y-52700000D03*
X82475000Y-49400000D03*
%TD*%
%TO.C,D25*%
X139625000Y-52700000D03*
X139625000Y-49400000D03*
%TD*%
%TO.C,D30*%
X158675000Y-52700000D03*
X158675000Y-49400000D03*
%TD*%
%TO.C,D51*%
X239650000Y-108900000D03*
X239650000Y-105600000D03*
%TD*%
D22*
%TO.C,J1*%
X61302000Y-56643000D03*
X61302000Y-57643000D03*
X61302000Y-58643000D03*
X61302000Y-59643000D03*
D23*
X65177000Y-55343000D03*
X65177000Y-60943000D03*
%TD*%
D12*
%TO.C,D28*%
X144400000Y-108900000D03*
X144400000Y-105600000D03*
%TD*%
%TO.C,D38*%
X177737000Y-127949500D03*
X177737000Y-124649500D03*
%TD*%
D13*
%TO.C,C_Crystal1*%
X63400000Y-92945000D03*
X63400000Y-93905000D03*
%TD*%
D12*
%TO.C,D45*%
X230100000Y-89850000D03*
X230100000Y-86550000D03*
%TD*%
D20*
%TO.C,C_3V-Decoup5*%
X53030000Y-79750000D03*
X52070000Y-79750000D03*
%TD*%
D12*
%TO.C,D32*%
X172950000Y-89850000D03*
X172950000Y-86550000D03*
%TD*%
%TO.C,D55*%
X268200000Y-89850000D03*
X268200000Y-86550000D03*
%TD*%
%TO.C,D49*%
X244400000Y-70800000D03*
X244400000Y-67500000D03*
%TD*%
%TO.C,D5*%
X49150000Y-127950000D03*
X49150000Y-124650000D03*
%TD*%
D24*
%TO.C,Y1*%
X59075000Y-92575000D03*
X61275000Y-92575000D03*
X61275000Y-94275000D03*
X59075000Y-94275000D03*
%TD*%
D12*
%TO.C,D23*%
X125350000Y-108900000D03*
X125350000Y-105600000D03*
%TD*%
%TO.C,D20*%
X120575000Y-52700000D03*
X120575000Y-49400000D03*
%TD*%
%TO.C,D42*%
X201550000Y-108900000D03*
X201550000Y-105600000D03*
%TD*%
%TO.C,D64*%
X303125000Y-89875000D03*
X303125000Y-86575000D03*
%TD*%
%TO.C,D65*%
X311075000Y-51750000D03*
X311075000Y-48450000D03*
%TD*%
%TO.C,D16*%
X101525000Y-52700000D03*
X101525000Y-49400000D03*
%TD*%
%TO.C,D56*%
X258700000Y-108900000D03*
X258700000Y-105600000D03*
%TD*%
%TO.C,D27*%
X153900000Y-89850000D03*
X153900000Y-86550000D03*
%TD*%
D25*
%TO.C,U3*%
X52148500Y-58354000D03*
X52148500Y-56454000D03*
X54023500Y-57404000D03*
%TD*%
D12*
%TO.C,D59*%
X282500000Y-70800000D03*
X282500000Y-67500000D03*
%TD*%
%TO.C,D58*%
X272975000Y-52700000D03*
X272975000Y-49400000D03*
%TD*%
D14*
%TO.C,C_3V-Decoup3*%
X59175000Y-74455000D03*
X59175000Y-73495000D03*
%TD*%
D12*
%TO.C,D57*%
X258699500Y-127949500D03*
X258699500Y-124649500D03*
%TD*%
%TO.C,D43*%
X215825000Y-52700000D03*
X215825000Y-49400000D03*
%TD*%
%TO.C,D68*%
X306300000Y-127950000D03*
X306300000Y-124650000D03*
%TD*%
D13*
%TO.C,C_1V-Decoup3*%
X56550000Y-90170000D03*
X56550000Y-91130000D03*
%TD*%
D12*
%TO.C,D66*%
X306325000Y-70800000D03*
X306325000Y-67500000D03*
%TD*%
%TO.C,D62*%
X282512000Y-127949500D03*
X282512000Y-124649500D03*
%TD*%
%TO.C,D18*%
X115800000Y-89850000D03*
X115800000Y-86550000D03*
%TD*%
%TO.C,D33*%
X163450000Y-108900000D03*
X163450000Y-105600000D03*
%TD*%
%TO.C,D8*%
X77725000Y-89850000D03*
X77725000Y-86550000D03*
%TD*%
D26*
%TO.C,U2*%
X76920000Y-67925000D03*
X78190000Y-67925000D03*
X79460000Y-67925000D03*
X80730000Y-67925000D03*
X80730000Y-75125000D03*
X79460000Y-75125000D03*
X78190000Y-75125000D03*
X76920000Y-75125000D03*
%TD*%
D12*
%TO.C,D44*%
X225350000Y-70800000D03*
X225350000Y-67500000D03*
%TD*%
D16*
%TO.C,R_RST1*%
X37300000Y-83585000D03*
X37300000Y-82565000D03*
%TD*%
D12*
%TO.C,D53*%
X253925000Y-52700000D03*
X253925000Y-49400000D03*
%TD*%
%TO.C,D7*%
X72950000Y-70800000D03*
X72950000Y-67500000D03*
%TD*%
D27*
%TO.C,F1*%
X57101500Y-54864000D03*
X58976500Y-54864000D03*
%TD*%
D28*
%TO.C,C_3V-Decoup9*%
X65410589Y-85560589D03*
X66089411Y-86239411D03*
%TD*%
D12*
%TO.C,D60*%
X287275000Y-89850000D03*
X287275000Y-86550000D03*
%TD*%
%TO.C,D31*%
X168200000Y-70800000D03*
X168200000Y-67500000D03*
%TD*%
%TO.C,D11*%
X87225000Y-108900000D03*
X87225000Y-105600000D03*
%TD*%
D15*
%TO.C,C_3V-Decoup1*%
X48542000Y-60071000D03*
X49502000Y-60071000D03*
%TD*%
D12*
%TO.C,D41*%
X211075000Y-89850000D03*
X211075000Y-86550000D03*
%TD*%
D21*
%TO.C,R_Flash1*%
X76900000Y-65090000D03*
X76900000Y-66110000D03*
%TD*%
D12*
%TO.C,D17*%
X111050000Y-70800000D03*
X111050000Y-67500000D03*
%TD*%
M02*
