%TF.GenerationSoftware,KiCad,Pcbnew,(6.0.11)*%
%TF.CreationDate,2023-02-10T12:21:56+01:00*%
%TF.ProjectId,plaket60-OG,706c616b-6574-4363-902d-4f472e6b6963,0.1*%
%TF.SameCoordinates,Original*%
%TF.FileFunction,Legend,Top*%
%TF.FilePolarity,Positive*%
%FSLAX46Y46*%
G04 Gerber Fmt 4.6, Leading zero omitted, Abs format (unit mm)*
G04 Created by KiCad (PCBNEW (6.0.11)) date 2023-02-10 12:21:56*
%MOMM*%
%LPD*%
G01*
G04 APERTURE LIST*
%ADD10C,0.150000*%
%ADD11C,1.750000*%
%ADD12C,3.987800*%
%ADD13C,2.500000*%
%ADD14C,3.048000*%
%ADD15C,1.701800*%
%ADD16R,1.700000X1.700000*%
%ADD17O,1.700000X1.700000*%
%ADD18C,0.800000*%
%ADD19C,0.600000*%
G04 APERTURE END LIST*
D10*
%TO.C,Stepped*%
X37651085Y-90320761D02*
X37793942Y-90368380D01*
X38032038Y-90368380D01*
X38127276Y-90320761D01*
X38174895Y-90273142D01*
X38222514Y-90177904D01*
X38222514Y-90082666D01*
X38174895Y-89987428D01*
X38127276Y-89939809D01*
X38032038Y-89892190D01*
X37841561Y-89844571D01*
X37746323Y-89796952D01*
X37698704Y-89749333D01*
X37651085Y-89654095D01*
X37651085Y-89558857D01*
X37698704Y-89463619D01*
X37746323Y-89416000D01*
X37841561Y-89368380D01*
X38079657Y-89368380D01*
X38222514Y-89416000D01*
X38508228Y-89701714D02*
X38889180Y-89701714D01*
X38651085Y-89368380D02*
X38651085Y-90225523D01*
X38698704Y-90320761D01*
X38793942Y-90368380D01*
X38889180Y-90368380D01*
X39603466Y-90320761D02*
X39508228Y-90368380D01*
X39317752Y-90368380D01*
X39222514Y-90320761D01*
X39174895Y-90225523D01*
X39174895Y-89844571D01*
X39222514Y-89749333D01*
X39317752Y-89701714D01*
X39508228Y-89701714D01*
X39603466Y-89749333D01*
X39651085Y-89844571D01*
X39651085Y-89939809D01*
X39174895Y-90035047D01*
X40079657Y-89701714D02*
X40079657Y-90701714D01*
X40079657Y-89749333D02*
X40174895Y-89701714D01*
X40365371Y-89701714D01*
X40460609Y-89749333D01*
X40508228Y-89796952D01*
X40555847Y-89892190D01*
X40555847Y-90177904D01*
X40508228Y-90273142D01*
X40460609Y-90320761D01*
X40365371Y-90368380D01*
X40174895Y-90368380D01*
X40079657Y-90320761D01*
X40984419Y-89701714D02*
X40984419Y-90701714D01*
X40984419Y-89749333D02*
X41079657Y-89701714D01*
X41270133Y-89701714D01*
X41365371Y-89749333D01*
X41412990Y-89796952D01*
X41460609Y-89892190D01*
X41460609Y-90177904D01*
X41412990Y-90273142D01*
X41365371Y-90320761D01*
X41270133Y-90368380D01*
X41079657Y-90368380D01*
X40984419Y-90320761D01*
X42270133Y-90320761D02*
X42174895Y-90368380D01*
X41984419Y-90368380D01*
X41889180Y-90320761D01*
X41841561Y-90225523D01*
X41841561Y-89844571D01*
X41889180Y-89749333D01*
X41984419Y-89701714D01*
X42174895Y-89701714D01*
X42270133Y-89749333D01*
X42317752Y-89844571D01*
X42317752Y-89939809D01*
X41841561Y-90035047D01*
X43174895Y-90368380D02*
X43174895Y-89368380D01*
X43174895Y-90320761D02*
X43079657Y-90368380D01*
X42889180Y-90368380D01*
X42793942Y-90320761D01*
X42746323Y-90273142D01*
X42698704Y-90177904D01*
X42698704Y-89892190D01*
X42746323Y-89796952D01*
X42793942Y-89749333D01*
X42889180Y-89701714D01*
X43079657Y-89701714D01*
X43174895Y-89749333D01*
%TO.C,ISO*%
X283162500Y-91193880D02*
X283162500Y-90193880D01*
X283591071Y-91146261D02*
X283733928Y-91193880D01*
X283972023Y-91193880D01*
X284067261Y-91146261D01*
X284114880Y-91098642D01*
X284162500Y-91003404D01*
X284162500Y-90908166D01*
X284114880Y-90812928D01*
X284067261Y-90765309D01*
X283972023Y-90717690D01*
X283781547Y-90670071D01*
X283686309Y-90622452D01*
X283638690Y-90574833D01*
X283591071Y-90479595D01*
X283591071Y-90384357D01*
X283638690Y-90289119D01*
X283686309Y-90241500D01*
X283781547Y-90193880D01*
X284019642Y-90193880D01*
X284162500Y-90241500D01*
X284781547Y-90193880D02*
X284972023Y-90193880D01*
X285067261Y-90241500D01*
X285162500Y-90336738D01*
X285210119Y-90527214D01*
X285210119Y-90860547D01*
X285162500Y-91051023D01*
X285067261Y-91146261D01*
X284972023Y-91193880D01*
X284781547Y-91193880D01*
X284686309Y-91146261D01*
X284591071Y-91051023D01*
X284543452Y-90860547D01*
X284543452Y-90527214D01*
X284591071Y-90336738D01*
X284686309Y-90241500D01*
X284781547Y-90193880D01*
%TO.C,Split*%
X306451190Y-110196261D02*
X306594047Y-110243880D01*
X306832142Y-110243880D01*
X306927380Y-110196261D01*
X306975000Y-110148642D01*
X307022619Y-110053404D01*
X307022619Y-109958166D01*
X306975000Y-109862928D01*
X306927380Y-109815309D01*
X306832142Y-109767690D01*
X306641666Y-109720071D01*
X306546428Y-109672452D01*
X306498809Y-109624833D01*
X306451190Y-109529595D01*
X306451190Y-109434357D01*
X306498809Y-109339119D01*
X306546428Y-109291500D01*
X306641666Y-109243880D01*
X306879761Y-109243880D01*
X307022619Y-109291500D01*
X307451190Y-109577214D02*
X307451190Y-110577214D01*
X307451190Y-109624833D02*
X307546428Y-109577214D01*
X307736904Y-109577214D01*
X307832142Y-109624833D01*
X307879761Y-109672452D01*
X307927380Y-109767690D01*
X307927380Y-110053404D01*
X307879761Y-110148642D01*
X307832142Y-110196261D01*
X307736904Y-110243880D01*
X307546428Y-110243880D01*
X307451190Y-110196261D01*
X308498809Y-110243880D02*
X308403571Y-110196261D01*
X308355952Y-110101023D01*
X308355952Y-109243880D01*
X308879761Y-110243880D02*
X308879761Y-109577214D01*
X308879761Y-109243880D02*
X308832142Y-109291500D01*
X308879761Y-109339119D01*
X308927380Y-109291500D01*
X308879761Y-109243880D01*
X308879761Y-109339119D01*
X309213095Y-109577214D02*
X309594047Y-109577214D01*
X309355952Y-109243880D02*
X309355952Y-110101023D01*
X309403571Y-110196261D01*
X309498809Y-110243880D01*
X309594047Y-110243880D01*
X280257440Y-110196261D02*
X280400297Y-110243880D01*
X280638392Y-110243880D01*
X280733630Y-110196261D01*
X280781250Y-110148642D01*
X280828869Y-110053404D01*
X280828869Y-109958166D01*
X280781250Y-109862928D01*
X280733630Y-109815309D01*
X280638392Y-109767690D01*
X280447916Y-109720071D01*
X280352678Y-109672452D01*
X280305059Y-109624833D01*
X280257440Y-109529595D01*
X280257440Y-109434357D01*
X280305059Y-109339119D01*
X280352678Y-109291500D01*
X280447916Y-109243880D01*
X280686011Y-109243880D01*
X280828869Y-109291500D01*
X281257440Y-109577214D02*
X281257440Y-110577214D01*
X281257440Y-109624833D02*
X281352678Y-109577214D01*
X281543154Y-109577214D01*
X281638392Y-109624833D01*
X281686011Y-109672452D01*
X281733630Y-109767690D01*
X281733630Y-110053404D01*
X281686011Y-110148642D01*
X281638392Y-110196261D01*
X281543154Y-110243880D01*
X281352678Y-110243880D01*
X281257440Y-110196261D01*
X282305059Y-110243880D02*
X282209821Y-110196261D01*
X282162202Y-110101023D01*
X282162202Y-109243880D01*
X282686011Y-110243880D02*
X282686011Y-109577214D01*
X282686011Y-109243880D02*
X282638392Y-109291500D01*
X282686011Y-109339119D01*
X282733630Y-109291500D01*
X282686011Y-109243880D01*
X282686011Y-109339119D01*
X283019345Y-109577214D02*
X283400297Y-109577214D01*
X283162202Y-109243880D02*
X283162202Y-110101023D01*
X283209821Y-110196261D01*
X283305059Y-110243880D01*
X283400297Y-110243880D01*
%TO.C,ISO*%
X64087500Y-110243880D02*
X64087500Y-109243880D01*
X64516071Y-110196261D02*
X64658928Y-110243880D01*
X64897023Y-110243880D01*
X64992261Y-110196261D01*
X65039880Y-110148642D01*
X65087500Y-110053404D01*
X65087500Y-109958166D01*
X65039880Y-109862928D01*
X64992261Y-109815309D01*
X64897023Y-109767690D01*
X64706547Y-109720071D01*
X64611309Y-109672452D01*
X64563690Y-109624833D01*
X64516071Y-109529595D01*
X64516071Y-109434357D01*
X64563690Y-109339119D01*
X64611309Y-109291500D01*
X64706547Y-109243880D01*
X64944642Y-109243880D01*
X65087500Y-109291500D01*
X65706547Y-109243880D02*
X65897023Y-109243880D01*
X65992261Y-109291500D01*
X66087500Y-109386738D01*
X66135119Y-109577214D01*
X66135119Y-109910547D01*
X66087500Y-110101023D01*
X65992261Y-110196261D01*
X65897023Y-110243880D01*
X65706547Y-110243880D01*
X65611309Y-110196261D01*
X65516071Y-110101023D01*
X65468452Y-109910547D01*
X65468452Y-109577214D01*
X65516071Y-109386738D01*
X65611309Y-109291500D01*
X65706547Y-109243880D01*
%TO.C,Full*%
X290472916Y-109783571D02*
X290139583Y-109783571D01*
X290139583Y-110307380D02*
X290139583Y-109307380D01*
X290615773Y-109307380D01*
X291425297Y-109640714D02*
X291425297Y-110307380D01*
X290996726Y-109640714D02*
X290996726Y-110164523D01*
X291044345Y-110259761D01*
X291139583Y-110307380D01*
X291282440Y-110307380D01*
X291377678Y-110259761D01*
X291425297Y-110212142D01*
X292044345Y-110307380D02*
X291949107Y-110259761D01*
X291901488Y-110164523D01*
X291901488Y-109307380D01*
X292568154Y-110307380D02*
X292472916Y-110259761D01*
X292425297Y-110164523D01*
X292425297Y-109307380D01*
%TO.C,ANSI*%
X294592559Y-92749666D02*
X295068750Y-92749666D01*
X294497321Y-93035380D02*
X294830654Y-92035380D01*
X295163988Y-93035380D01*
X295497321Y-93035380D02*
X295497321Y-92035380D01*
X296068750Y-93035380D01*
X296068750Y-92035380D01*
X296497321Y-92987761D02*
X296640178Y-93035380D01*
X296878273Y-93035380D01*
X296973511Y-92987761D01*
X297021130Y-92940142D01*
X297068750Y-92844904D01*
X297068750Y-92749666D01*
X297021130Y-92654428D01*
X296973511Y-92606809D01*
X296878273Y-92559190D01*
X296687797Y-92511571D01*
X296592559Y-92463952D01*
X296544940Y-92416333D01*
X296497321Y-92321095D01*
X296497321Y-92225857D01*
X296544940Y-92130619D01*
X296592559Y-92083000D01*
X296687797Y-92035380D01*
X296925892Y-92035380D01*
X297068750Y-92083000D01*
X297497321Y-93035380D02*
X297497321Y-92035380D01*
%TO.C,Split*%
X306451190Y-53046261D02*
X306594047Y-53093880D01*
X306832142Y-53093880D01*
X306927380Y-53046261D01*
X306975000Y-52998642D01*
X307022619Y-52903404D01*
X307022619Y-52808166D01*
X306975000Y-52712928D01*
X306927380Y-52665309D01*
X306832142Y-52617690D01*
X306641666Y-52570071D01*
X306546428Y-52522452D01*
X306498809Y-52474833D01*
X306451190Y-52379595D01*
X306451190Y-52284357D01*
X306498809Y-52189119D01*
X306546428Y-52141500D01*
X306641666Y-52093880D01*
X306879761Y-52093880D01*
X307022619Y-52141500D01*
X307451190Y-52427214D02*
X307451190Y-53427214D01*
X307451190Y-52474833D02*
X307546428Y-52427214D01*
X307736904Y-52427214D01*
X307832142Y-52474833D01*
X307879761Y-52522452D01*
X307927380Y-52617690D01*
X307927380Y-52903404D01*
X307879761Y-52998642D01*
X307832142Y-53046261D01*
X307736904Y-53093880D01*
X307546428Y-53093880D01*
X307451190Y-53046261D01*
X308498809Y-53093880D02*
X308403571Y-53046261D01*
X308355952Y-52951023D01*
X308355952Y-52093880D01*
X308879761Y-53093880D02*
X308879761Y-52427214D01*
X308879761Y-52093880D02*
X308832142Y-52141500D01*
X308879761Y-52189119D01*
X308927380Y-52141500D01*
X308879761Y-52093880D01*
X308879761Y-52189119D01*
X309213095Y-52427214D02*
X309594047Y-52427214D01*
X309355952Y-52093880D02*
X309355952Y-52951023D01*
X309403571Y-53046261D01*
X309498809Y-53093880D01*
X309594047Y-53093880D01*
%TO.C,Full*%
X297616666Y-52570071D02*
X297283333Y-52570071D01*
X297283333Y-53093880D02*
X297283333Y-52093880D01*
X297759523Y-52093880D01*
X298569047Y-52427214D02*
X298569047Y-53093880D01*
X298140476Y-52427214D02*
X298140476Y-52951023D01*
X298188095Y-53046261D01*
X298283333Y-53093880D01*
X298426190Y-53093880D01*
X298521428Y-53046261D01*
X298569047Y-52998642D01*
X299188095Y-53093880D02*
X299092857Y-53046261D01*
X299045238Y-52951023D01*
X299045238Y-52093880D01*
X299711904Y-53093880D02*
X299616666Y-53046261D01*
X299569047Y-52951023D01*
X299569047Y-52093880D01*
X297640476Y-45458119D02*
X297688095Y-45410500D01*
X297783333Y-45362880D01*
X298021428Y-45362880D01*
X298116666Y-45410500D01*
X298164285Y-45458119D01*
X298211904Y-45553357D01*
X298211904Y-45648595D01*
X298164285Y-45791452D01*
X297592857Y-46362880D01*
X298211904Y-46362880D01*
X298640476Y-45362880D02*
X298640476Y-46172404D01*
X298688095Y-46267642D01*
X298735714Y-46315261D01*
X298830952Y-46362880D01*
X299021428Y-46362880D01*
X299116666Y-46315261D01*
X299164285Y-46267642D01*
X299211904Y-46172404D01*
X299211904Y-45362880D01*
%TO.C,ISO*%
X304181000Y-81224380D02*
X304181000Y-80224380D01*
X304609571Y-81176761D02*
X304752428Y-81224380D01*
X304990523Y-81224380D01*
X305085761Y-81176761D01*
X305133380Y-81129142D01*
X305181000Y-81033904D01*
X305181000Y-80938666D01*
X305133380Y-80843428D01*
X305085761Y-80795809D01*
X304990523Y-80748190D01*
X304800047Y-80700571D01*
X304704809Y-80652952D01*
X304657190Y-80605333D01*
X304609571Y-80510095D01*
X304609571Y-80414857D01*
X304657190Y-80319619D01*
X304704809Y-80272000D01*
X304800047Y-80224380D01*
X305038142Y-80224380D01*
X305181000Y-80272000D01*
X305800047Y-80224380D02*
X305990523Y-80224380D01*
X306085761Y-80272000D01*
X306181000Y-80367238D01*
X306228619Y-80557714D01*
X306228619Y-80891047D01*
X306181000Y-81081523D01*
X306085761Y-81176761D01*
X305990523Y-81224380D01*
X305800047Y-81224380D01*
X305704809Y-81176761D01*
X305609571Y-81081523D01*
X305561952Y-80891047D01*
X305561952Y-80557714D01*
X305609571Y-80367238D01*
X305704809Y-80272000D01*
X305800047Y-80224380D01*
X299672797Y-75191880D02*
X299672797Y-74525214D01*
X299672797Y-74191880D02*
X299625178Y-74239500D01*
X299672797Y-74287119D01*
X299720416Y-74239500D01*
X299672797Y-74191880D01*
X299672797Y-74287119D01*
X300101369Y-75144261D02*
X300196607Y-75191880D01*
X300387083Y-75191880D01*
X300482321Y-75144261D01*
X300529940Y-75049023D01*
X300529940Y-75001404D01*
X300482321Y-74906166D01*
X300387083Y-74858547D01*
X300244226Y-74858547D01*
X300148988Y-74810928D01*
X300101369Y-74715690D01*
X300101369Y-74668071D01*
X300148988Y-74572833D01*
X300244226Y-74525214D01*
X300387083Y-74525214D01*
X300482321Y-74572833D01*
X301101369Y-75191880D02*
X301006130Y-75144261D01*
X300958511Y-75096642D01*
X300910892Y-75001404D01*
X300910892Y-74715690D01*
X300958511Y-74620452D01*
X301006130Y-74572833D01*
X301101369Y-74525214D01*
X301244226Y-74525214D01*
X301339464Y-74572833D01*
X301387083Y-74620452D01*
X301434702Y-74715690D01*
X301434702Y-75001404D01*
X301387083Y-75096642D01*
X301339464Y-75144261D01*
X301244226Y-75191880D01*
X301101369Y-75191880D01*
X301863273Y-74810928D02*
X302625178Y-74810928D01*
X303482321Y-75144261D02*
X303387083Y-75191880D01*
X303196607Y-75191880D01*
X303101369Y-75144261D01*
X303053750Y-75049023D01*
X303053750Y-74668071D01*
X303101369Y-74572833D01*
X303196607Y-74525214D01*
X303387083Y-74525214D01*
X303482321Y-74572833D01*
X303529940Y-74668071D01*
X303529940Y-74763309D01*
X303053750Y-74858547D01*
X303958511Y-74525214D02*
X303958511Y-75191880D01*
X303958511Y-74620452D02*
X304006130Y-74572833D01*
X304101369Y-74525214D01*
X304244226Y-74525214D01*
X304339464Y-74572833D01*
X304387083Y-74668071D01*
X304387083Y-75191880D01*
X304720416Y-74525214D02*
X305101369Y-74525214D01*
X304863273Y-74191880D02*
X304863273Y-75049023D01*
X304910892Y-75144261D01*
X305006130Y-75191880D01*
X305101369Y-75191880D01*
X305815654Y-75144261D02*
X305720416Y-75191880D01*
X305529940Y-75191880D01*
X305434702Y-75144261D01*
X305387083Y-75049023D01*
X305387083Y-74668071D01*
X305434702Y-74572833D01*
X305529940Y-74525214D01*
X305720416Y-74525214D01*
X305815654Y-74572833D01*
X305863273Y-74668071D01*
X305863273Y-74763309D01*
X305387083Y-74858547D01*
X306291845Y-75191880D02*
X306291845Y-74525214D01*
X306291845Y-74715690D02*
X306339464Y-74620452D01*
X306387083Y-74572833D01*
X306482321Y-74525214D01*
X306577559Y-74525214D01*
%TO.C,Split*%
X287401190Y-53046261D02*
X287544047Y-53093880D01*
X287782142Y-53093880D01*
X287877380Y-53046261D01*
X287925000Y-52998642D01*
X287972619Y-52903404D01*
X287972619Y-52808166D01*
X287925000Y-52712928D01*
X287877380Y-52665309D01*
X287782142Y-52617690D01*
X287591666Y-52570071D01*
X287496428Y-52522452D01*
X287448809Y-52474833D01*
X287401190Y-52379595D01*
X287401190Y-52284357D01*
X287448809Y-52189119D01*
X287496428Y-52141500D01*
X287591666Y-52093880D01*
X287829761Y-52093880D01*
X287972619Y-52141500D01*
X288401190Y-52427214D02*
X288401190Y-53427214D01*
X288401190Y-52474833D02*
X288496428Y-52427214D01*
X288686904Y-52427214D01*
X288782142Y-52474833D01*
X288829761Y-52522452D01*
X288877380Y-52617690D01*
X288877380Y-52903404D01*
X288829761Y-52998642D01*
X288782142Y-53046261D01*
X288686904Y-53093880D01*
X288496428Y-53093880D01*
X288401190Y-53046261D01*
X289448809Y-53093880D02*
X289353571Y-53046261D01*
X289305952Y-52951023D01*
X289305952Y-52093880D01*
X289829761Y-53093880D02*
X289829761Y-52427214D01*
X289829761Y-52093880D02*
X289782142Y-52141500D01*
X289829761Y-52189119D01*
X289877380Y-52141500D01*
X289829761Y-52093880D01*
X289829761Y-52189119D01*
X290163095Y-52427214D02*
X290544047Y-52427214D01*
X290305952Y-52093880D02*
X290305952Y-52951023D01*
X290353571Y-53046261D01*
X290448809Y-53093880D01*
X290544047Y-53093880D01*
%TO.C,ISO*%
X42656250Y-110243880D02*
X42656250Y-109243880D01*
X43084821Y-110196261D02*
X43227678Y-110243880D01*
X43465773Y-110243880D01*
X43561011Y-110196261D01*
X43608630Y-110148642D01*
X43656250Y-110053404D01*
X43656250Y-109958166D01*
X43608630Y-109862928D01*
X43561011Y-109815309D01*
X43465773Y-109767690D01*
X43275297Y-109720071D01*
X43180059Y-109672452D01*
X43132440Y-109624833D01*
X43084821Y-109529595D01*
X43084821Y-109434357D01*
X43132440Y-109339119D01*
X43180059Y-109291500D01*
X43275297Y-109243880D01*
X43513392Y-109243880D01*
X43656250Y-109291500D01*
X44275297Y-109243880D02*
X44465773Y-109243880D01*
X44561011Y-109291500D01*
X44656250Y-109386738D01*
X44703869Y-109577214D01*
X44703869Y-109910547D01*
X44656250Y-110101023D01*
X44561011Y-110196261D01*
X44465773Y-110243880D01*
X44275297Y-110243880D01*
X44180059Y-110196261D01*
X44084821Y-110101023D01*
X44037202Y-109910547D01*
X44037202Y-109577214D01*
X44084821Y-109386738D01*
X44180059Y-109291500D01*
X44275297Y-109243880D01*
%TO.C,ANSI*%
X301736309Y-71858166D02*
X302212500Y-71858166D01*
X301641071Y-72143880D02*
X301974404Y-71143880D01*
X302307738Y-72143880D01*
X302641071Y-72143880D02*
X302641071Y-71143880D01*
X303212500Y-72143880D01*
X303212500Y-71143880D01*
X303641071Y-72096261D02*
X303783928Y-72143880D01*
X304022023Y-72143880D01*
X304117261Y-72096261D01*
X304164880Y-72048642D01*
X304212500Y-71953404D01*
X304212500Y-71858166D01*
X304164880Y-71762928D01*
X304117261Y-71715309D01*
X304022023Y-71667690D01*
X303831547Y-71620071D01*
X303736309Y-71572452D01*
X303688690Y-71524833D01*
X303641071Y-71429595D01*
X303641071Y-71334357D01*
X303688690Y-71239119D01*
X303736309Y-71191500D01*
X303831547Y-71143880D01*
X304069642Y-71143880D01*
X304212500Y-71191500D01*
X304641071Y-72143880D02*
X304641071Y-71143880D01*
%TO.C,Full*%
X47528266Y-90403371D02*
X47194933Y-90403371D01*
X47194933Y-90927180D02*
X47194933Y-89927180D01*
X47671123Y-89927180D01*
X48480647Y-90260514D02*
X48480647Y-90927180D01*
X48052076Y-90260514D02*
X48052076Y-90784323D01*
X48099695Y-90879561D01*
X48194933Y-90927180D01*
X48337790Y-90927180D01*
X48433028Y-90879561D01*
X48480647Y-90831942D01*
X49099695Y-90927180D02*
X49004457Y-90879561D01*
X48956838Y-90784323D01*
X48956838Y-89927180D01*
X49623504Y-90927180D02*
X49528266Y-90879561D01*
X49480647Y-90784323D01*
X49480647Y-89927180D01*
%TO.C,ANSI*%
X51705059Y-109958166D02*
X52181250Y-109958166D01*
X51609821Y-110243880D02*
X51943154Y-109243880D01*
X52276488Y-110243880D01*
X52609821Y-110243880D02*
X52609821Y-109243880D01*
X53181250Y-110243880D01*
X53181250Y-109243880D01*
X53609821Y-110196261D02*
X53752678Y-110243880D01*
X53990773Y-110243880D01*
X54086011Y-110196261D01*
X54133630Y-110148642D01*
X54181250Y-110053404D01*
X54181250Y-109958166D01*
X54133630Y-109862928D01*
X54086011Y-109815309D01*
X53990773Y-109767690D01*
X53800297Y-109720071D01*
X53705059Y-109672452D01*
X53657440Y-109624833D01*
X53609821Y-109529595D01*
X53609821Y-109434357D01*
X53657440Y-109339119D01*
X53705059Y-109291500D01*
X53800297Y-109243880D01*
X54038392Y-109243880D01*
X54181250Y-109291500D01*
X54609821Y-110243880D02*
X54609821Y-109243880D01*
%TO.C,1.50u*%
X53037500Y-118412500D02*
X53037500Y-120412500D01*
X51037500Y-118412500D02*
X53037500Y-118412500D01*
X39037500Y-132412500D02*
X41037500Y-132412500D01*
X39037500Y-130412500D02*
X39037500Y-132412500D01*
%TO.C,T*%
X151050000Y-61262500D02*
X153050000Y-61262500D01*
X139050000Y-73262500D02*
X139050000Y-75262500D01*
X139050000Y-75262500D02*
X141050000Y-75262500D01*
X153050000Y-61262500D02*
X153050000Y-63262500D01*
%TO.C,Tab*%
X51037500Y-61262500D02*
X53037500Y-61262500D01*
X53037500Y-61262500D02*
X53037500Y-63262500D01*
X39037500Y-75262500D02*
X41037500Y-75262500D01*
X39037500Y-73262500D02*
X39037500Y-75262500D01*
%TO.C,[*%
X267350000Y-61262500D02*
X267350000Y-63262500D01*
X253350000Y-75262500D02*
X255350000Y-75262500D01*
X265350000Y-61262500D02*
X267350000Y-61262500D01*
X253350000Y-73262500D02*
X253350000Y-75262500D01*
%TO.C,1.50u*%
X260587500Y-118412500D02*
X262587500Y-118412500D01*
X248587500Y-132412500D02*
X250587500Y-132412500D01*
X248587500Y-130412500D02*
X248587500Y-132412500D01*
X262587500Y-118412500D02*
X262587500Y-120412500D01*
%TO.C,R*%
X134000000Y-61262500D02*
X134000000Y-63262500D01*
X132000000Y-61262500D02*
X134000000Y-61262500D01*
X120000000Y-73262500D02*
X120000000Y-75262500D01*
X120000000Y-75262500D02*
X122000000Y-75262500D01*
%TO.C,<*%
X210487500Y-111362500D02*
X210487500Y-113362500D01*
X210487500Y-113362500D02*
X212487500Y-113362500D01*
X222487500Y-99362500D02*
X224487500Y-99362500D01*
X224487500Y-99362500D02*
X224487500Y-101362500D01*
%TO.C,Stepped*%
X50656250Y-80312500D02*
X50656250Y-82312500D01*
X48656250Y-80312500D02*
X50656250Y-80312500D01*
X36656250Y-92312500D02*
X36656250Y-94312500D01*
X36656250Y-94312500D02*
X38656250Y-94312500D01*
%TO.C,S*%
X86662500Y-92312500D02*
X86662500Y-94312500D01*
X100662500Y-80312500D02*
X100662500Y-82312500D01*
X86662500Y-94312500D02*
X88662500Y-94312500D01*
X98662500Y-80312500D02*
X100662500Y-80312500D01*
%TO.C,B*%
X153337500Y-111362500D02*
X153337500Y-113362500D01*
X167337500Y-99362500D02*
X167337500Y-101362500D01*
X165337500Y-99362500D02*
X167337500Y-99362500D01*
X153337500Y-113362500D02*
X155337500Y-113362500D01*
%TO.C,H*%
X162862500Y-92312500D02*
X162862500Y-94312500D01*
X174862500Y-80312500D02*
X176862500Y-80312500D01*
X176862500Y-80312500D02*
X176862500Y-82312500D01*
X162862500Y-94312500D02*
X164862500Y-94312500D01*
%TO.C,D*%
X105712500Y-94312500D02*
X107712500Y-94312500D01*
X117712500Y-80312500D02*
X119712500Y-80312500D01*
X119712500Y-80312500D02*
X119712500Y-82312500D01*
X105712500Y-92312500D02*
X105712500Y-94312500D01*
%TO.C,J*%
X193912500Y-80312500D02*
X195912500Y-80312500D01*
X181912500Y-92312500D02*
X181912500Y-94312500D01*
X181912500Y-94312500D02*
X183912500Y-94312500D01*
X195912500Y-80312500D02*
X195912500Y-82312500D01*
%TO.C,ISO*%
X289162500Y-80312500D02*
X291162500Y-80312500D01*
X291162500Y-80312500D02*
X291162500Y-82312500D01*
X277162500Y-92312500D02*
X277162500Y-94312500D01*
X277162500Y-94312500D02*
X279162500Y-94312500D01*
%TO.C,Z*%
X77137500Y-113362500D02*
X79137500Y-113362500D01*
X77137500Y-111362500D02*
X77137500Y-113362500D01*
X89137500Y-99362500D02*
X91137500Y-99362500D01*
X91137500Y-99362500D02*
X91137500Y-101362500D01*
%TO.C,Split*%
X314975000Y-99362500D02*
X314975000Y-101362500D01*
X312975000Y-99362500D02*
X314975000Y-99362500D01*
X300975000Y-113362500D02*
X302975000Y-113362500D01*
X300975000Y-111362500D02*
X300975000Y-113362500D01*
%TO.C,W*%
X93900000Y-61262500D02*
X95900000Y-61262500D01*
X81900000Y-73262500D02*
X81900000Y-75262500D01*
X95900000Y-61262500D02*
X95900000Y-63262500D01*
X81900000Y-75262500D02*
X83900000Y-75262500D01*
%TO.C,-*%
X243825000Y-54212500D02*
X243825000Y-56212500D01*
X243825000Y-56212500D02*
X245825000Y-56212500D01*
X255825000Y-42212500D02*
X257825000Y-42212500D01*
X257825000Y-42212500D02*
X257825000Y-44212500D01*
%TO.C,Split*%
X274781250Y-111362500D02*
X274781250Y-113362500D01*
X288781250Y-99362500D02*
X288781250Y-101362500D01*
X286781250Y-99362500D02*
X288781250Y-99362500D01*
X274781250Y-113362500D02*
X276781250Y-113362500D01*
%TO.C,V*%
X134287500Y-111362500D02*
X134287500Y-113362500D01*
X134287500Y-113362500D02*
X136287500Y-113362500D01*
X146287500Y-99362500D02*
X148287500Y-99362500D01*
X148287500Y-99362500D02*
X148287500Y-101362500D01*
%TO.C,X*%
X110187500Y-99362500D02*
X110187500Y-101362500D01*
X96187500Y-111362500D02*
X96187500Y-113362500D01*
X108187500Y-99362500D02*
X110187500Y-99362500D01*
X96187500Y-113362500D02*
X98187500Y-113362500D01*
%TO.C,1u*%
X284400000Y-118412500D02*
X286400000Y-118412500D01*
X272400000Y-130412500D02*
X272400000Y-132412500D01*
X272400000Y-132412500D02*
X274400000Y-132412500D01*
X286400000Y-118412500D02*
X286400000Y-120412500D01*
%TO.C,5*%
X129525000Y-54212500D02*
X129525000Y-56212500D01*
X129525000Y-56212500D02*
X131525000Y-56212500D01*
X143525000Y-42212500D02*
X143525000Y-44212500D01*
X141525000Y-42212500D02*
X143525000Y-42212500D01*
%TO.C,G*%
X157812500Y-80312500D02*
X157812500Y-82312500D01*
X155812500Y-80312500D02*
X157812500Y-80312500D01*
X143812500Y-92312500D02*
X143812500Y-94312500D01*
X143812500Y-94312500D02*
X145812500Y-94312500D01*
%TO.C,:*%
X251062500Y-80312500D02*
X253062500Y-80312500D01*
X239062500Y-92312500D02*
X239062500Y-94312500D01*
X253062500Y-80312500D02*
X253062500Y-82312500D01*
X239062500Y-94312500D02*
X241062500Y-94312500D01*
%TO.C,8*%
X186675000Y-56212500D02*
X188675000Y-56212500D01*
X198675000Y-42212500D02*
X200675000Y-42212500D01*
X200675000Y-42212500D02*
X200675000Y-44212500D01*
X186675000Y-54212500D02*
X186675000Y-56212500D01*
%TO.C,P*%
X234300000Y-75262500D02*
X236300000Y-75262500D01*
X234300000Y-73262500D02*
X234300000Y-75262500D01*
X246300000Y-61262500D02*
X248300000Y-61262500D01*
X248300000Y-61262500D02*
X248300000Y-63262500D01*
%TO.C,Q*%
X62850000Y-73262500D02*
X62850000Y-75262500D01*
X74850000Y-61262500D02*
X76850000Y-61262500D01*
X62850000Y-75262500D02*
X64850000Y-75262500D01*
X76850000Y-61262500D02*
X76850000Y-63262500D01*
%TO.C,1*%
X53325000Y-56212500D02*
X55325000Y-56212500D01*
X65325000Y-42212500D02*
X67325000Y-42212500D01*
X67325000Y-42212500D02*
X67325000Y-44212500D01*
X53325000Y-54212500D02*
X53325000Y-56212500D01*
%TO.C,Y*%
X158100000Y-75262500D02*
X160100000Y-75262500D01*
X172100000Y-61262500D02*
X172100000Y-63262500D01*
X158100000Y-73262500D02*
X158100000Y-75262500D01*
X170100000Y-61262500D02*
X172100000Y-61262500D01*
%TO.C,]*%
X286400000Y-61262500D02*
X286400000Y-63262500D01*
X272400000Y-73262500D02*
X272400000Y-75262500D01*
X284400000Y-61262500D02*
X286400000Y-61262500D01*
X272400000Y-75262500D02*
X274400000Y-75262500D01*
%TO.C,9*%
X217725000Y-42212500D02*
X219725000Y-42212500D01*
X205725000Y-54212500D02*
X205725000Y-56212500D01*
X205725000Y-56212500D02*
X207725000Y-56212500D01*
X219725000Y-42212500D02*
X219725000Y-44212500D01*
%TO.C,ISO*%
X72087500Y-99362500D02*
X72087500Y-101362500D01*
X70087500Y-99362500D02*
X72087500Y-99362500D01*
X58087500Y-111362500D02*
X58087500Y-113362500D01*
X58087500Y-113362500D02*
X60087500Y-113362500D01*
%TO.C,>*%
X229537500Y-111362500D02*
X229537500Y-113362500D01*
X243537500Y-99362500D02*
X243537500Y-101362500D01*
X229537500Y-113362500D02*
X231537500Y-113362500D01*
X241537500Y-99362500D02*
X243537500Y-99362500D01*
%TO.C,C*%
X127237500Y-99362500D02*
X129237500Y-99362500D01*
X115237500Y-113362500D02*
X117237500Y-113362500D01*
X115237500Y-111362500D02*
X115237500Y-113362500D01*
X129237500Y-99362500D02*
X129237500Y-101362500D01*
%TO.C,E*%
X114950000Y-61262500D02*
X114950000Y-63262500D01*
X100950000Y-75262500D02*
X102950000Y-75262500D01*
X100950000Y-73262500D02*
X100950000Y-75262500D01*
X112950000Y-61262500D02*
X114950000Y-61262500D01*
%TO.C,ANSI*%
X289068750Y-92312500D02*
X289068750Y-94312500D01*
X303068750Y-80312500D02*
X303068750Y-82312500D01*
X301068750Y-80312500D02*
X303068750Y-80312500D01*
X289068750Y-94312500D02*
X291068750Y-94312500D01*
%TO.C,A*%
X67612500Y-94312500D02*
X69612500Y-94312500D01*
X67612500Y-92312500D02*
X67612500Y-94312500D01*
X79612500Y-80312500D02*
X81612500Y-80312500D01*
X81612500Y-80312500D02*
X81612500Y-82312500D01*
%TO.C,Split*%
X300975000Y-56212500D02*
X302975000Y-56212500D01*
X314975000Y-42212500D02*
X314975000Y-44212500D01*
X300975000Y-54212500D02*
X300975000Y-56212500D01*
X312975000Y-42212500D02*
X314975000Y-42212500D01*
%TO.C,0*%
X236775000Y-42212500D02*
X238775000Y-42212500D01*
X224775000Y-54212500D02*
X224775000Y-56212500D01*
X224775000Y-56212500D02*
X226775000Y-56212500D01*
X238775000Y-42212500D02*
X238775000Y-44212500D01*
%TO.C,L*%
X234012500Y-80312500D02*
X234012500Y-82312500D01*
X232012500Y-80312500D02*
X234012500Y-80312500D01*
X220012500Y-92312500D02*
X220012500Y-94312500D01*
X220012500Y-94312500D02*
X222012500Y-94312500D01*
%TO.C,I*%
X208200000Y-61262500D02*
X210200000Y-61262500D01*
X196200000Y-75262500D02*
X198200000Y-75262500D01*
X196200000Y-73262500D02*
X196200000Y-75262500D01*
X210200000Y-61262500D02*
X210200000Y-63262500D01*
%TO.C,M*%
X205437500Y-99362500D02*
X205437500Y-101362500D01*
X191437500Y-113362500D02*
X193437500Y-113362500D01*
X203437500Y-99362500D02*
X205437500Y-99362500D01*
X191437500Y-111362500D02*
X191437500Y-113362500D01*
%TO.C,?*%
X248587500Y-113362500D02*
X250587500Y-113362500D01*
X262587500Y-99362500D02*
X262587500Y-101362500D01*
X260587500Y-99362500D02*
X262587500Y-99362500D01*
X248587500Y-111362500D02*
X248587500Y-113362500D01*
%TO.C,F*%
X136762500Y-80312500D02*
X138762500Y-80312500D01*
X138762500Y-80312500D02*
X138762500Y-82312500D01*
X124762500Y-94312500D02*
X126762500Y-94312500D01*
X124762500Y-92312500D02*
X124762500Y-94312500D01*
%TO.C,ISO*%
X298593750Y-84787500D02*
X300593750Y-84787500D01*
X312593750Y-70787500D02*
X312593750Y-72787500D01*
X310593750Y-70787500D02*
X312593750Y-70787500D01*
X298593750Y-82787500D02*
X298593750Y-84787500D01*
%TO.C,1u*%
X62850000Y-130412500D02*
X62850000Y-132412500D01*
X74850000Y-118412500D02*
X76850000Y-118412500D01*
X76850000Y-118412500D02*
X76850000Y-120412500D01*
X62850000Y-132412500D02*
X64850000Y-132412500D01*
%TO.C,N*%
X172387500Y-113362500D02*
X174387500Y-113362500D01*
X172387500Y-111362500D02*
X172387500Y-113362500D01*
X184387500Y-99362500D02*
X186387500Y-99362500D01*
X186387500Y-99362500D02*
X186387500Y-101362500D01*
%TO.C,3*%
X103425000Y-42212500D02*
X105425000Y-42212500D01*
X91425000Y-54212500D02*
X91425000Y-56212500D01*
X105425000Y-42212500D02*
X105425000Y-44212500D01*
X91425000Y-56212500D02*
X93425000Y-56212500D01*
%TO.C,6*%
X148575000Y-56212500D02*
X150575000Y-56212500D01*
X160575000Y-42212500D02*
X162575000Y-42212500D01*
X148575000Y-54212500D02*
X148575000Y-56212500D01*
X162575000Y-42212500D02*
X162575000Y-44212500D01*
%TO.C,"*%
X258112500Y-94312500D02*
X260112500Y-94312500D01*
X270112500Y-80312500D02*
X272112500Y-80312500D01*
X258112500Y-92312500D02*
X258112500Y-94312500D01*
X272112500Y-80312500D02*
X272112500Y-82312500D01*
%TO.C,Esc*%
X34275000Y-54212500D02*
X34275000Y-56212500D01*
X34275000Y-56212500D02*
X36275000Y-56212500D01*
X46275000Y-42212500D02*
X48275000Y-42212500D01*
X48275000Y-42212500D02*
X48275000Y-44212500D01*
%TO.C,1.50u*%
X100662500Y-118412500D02*
X100662500Y-120412500D01*
X86662500Y-130412500D02*
X86662500Y-132412500D01*
X98662500Y-118412500D02*
X100662500Y-118412500D01*
X86662500Y-132412500D02*
X88662500Y-132412500D01*
%TO.C,=*%
X262875000Y-54212500D02*
X262875000Y-56212500D01*
X274875000Y-42212500D02*
X276875000Y-42212500D01*
X276875000Y-42212500D02*
X276875000Y-44212500D01*
X262875000Y-56212500D02*
X264875000Y-56212500D01*
%TO.C,Split*%
X281925000Y-54212500D02*
X281925000Y-56212500D01*
X281925000Y-56212500D02*
X283925000Y-56212500D01*
X293925000Y-42212500D02*
X295925000Y-42212500D01*
X295925000Y-42212500D02*
X295925000Y-44212500D01*
%TO.C,K*%
X200962500Y-92312500D02*
X200962500Y-94312500D01*
X200962500Y-94312500D02*
X202962500Y-94312500D01*
X212962500Y-80312500D02*
X214962500Y-80312500D01*
X214962500Y-80312500D02*
X214962500Y-82312500D01*
%TO.C,ISO*%
X50656250Y-99362500D02*
X50656250Y-101362500D01*
X48656250Y-99362500D02*
X50656250Y-99362500D01*
X36656250Y-113362500D02*
X38656250Y-113362500D01*
X36656250Y-111362500D02*
X36656250Y-113362500D01*
%TO.C,2*%
X72375000Y-56212500D02*
X74375000Y-56212500D01*
X84375000Y-42212500D02*
X86375000Y-42212500D01*
X72375000Y-54212500D02*
X72375000Y-56212500D01*
X86375000Y-42212500D02*
X86375000Y-44212500D01*
%TO.C,ANSI*%
X308212500Y-61262500D02*
X310212500Y-61262500D01*
X310212500Y-61262500D02*
X310212500Y-63262500D01*
X296212500Y-73262500D02*
X296212500Y-75262500D01*
X296212500Y-75262500D02*
X298212500Y-75262500D01*
%TO.C,Full*%
X41418750Y-94312500D02*
X43418750Y-94312500D01*
X55418750Y-80312500D02*
X55418750Y-82312500D01*
X41418750Y-92312500D02*
X41418750Y-94312500D01*
X53418750Y-80312500D02*
X55418750Y-80312500D01*
%TO.C,7*%
X167625000Y-54212500D02*
X167625000Y-56212500D01*
X179625000Y-42212500D02*
X181625000Y-42212500D01*
X181625000Y-42212500D02*
X181625000Y-44212500D01*
X167625000Y-56212500D02*
X169625000Y-56212500D01*
%TO.C,O*%
X227250000Y-61262500D02*
X229250000Y-61262500D01*
X215250000Y-75262500D02*
X217250000Y-75262500D01*
X215250000Y-73262500D02*
X215250000Y-75262500D01*
X229250000Y-61262500D02*
X229250000Y-63262500D01*
%TO.C,1.50u*%
X296212500Y-130412500D02*
X296212500Y-132412500D01*
X296212500Y-132412500D02*
X298212500Y-132412500D01*
X310212500Y-118412500D02*
X310212500Y-120412500D01*
X308212500Y-118412500D02*
X310212500Y-118412500D01*
%TO.C,ANSI*%
X46181250Y-113362500D02*
X48181250Y-113362500D01*
X46181250Y-111362500D02*
X46181250Y-113362500D01*
X58181250Y-99362500D02*
X60181250Y-99362500D01*
X60181250Y-99362500D02*
X60181250Y-101362500D01*
%TO.C,MX42*%
X167625000Y-130412500D02*
X167625000Y-132412500D01*
X179625000Y-118412500D02*
X181625000Y-118412500D01*
X181625000Y-118412500D02*
X181625000Y-120412500D01*
X167625000Y-132412500D02*
X169625000Y-132412500D01*
%TO.C,4*%
X124475000Y-42212500D02*
X124475000Y-44212500D01*
X110475000Y-56212500D02*
X112475000Y-56212500D01*
X110475000Y-54212500D02*
X110475000Y-56212500D01*
X122475000Y-42212500D02*
X124475000Y-42212500D01*
%TO.C,U*%
X191150000Y-61262500D02*
X191150000Y-63262500D01*
X177150000Y-73262500D02*
X177150000Y-75262500D01*
X189150000Y-61262500D02*
X191150000Y-61262500D01*
X177150000Y-75262500D02*
X179150000Y-75262500D01*
%TD*%
%LPC*%
%TO.C,G\u002A\u002A\u002A*%
G36*
X137606800Y-118447364D02*
G01*
X137689629Y-118469711D01*
X137637013Y-118578774D01*
X137490520Y-118849355D01*
X137267182Y-119250857D01*
X136984028Y-119752680D01*
X136658090Y-120324223D01*
X136635838Y-120363042D01*
X136294117Y-120975246D01*
X135985949Y-121557855D01*
X135731637Y-122070059D01*
X135551487Y-122471048D01*
X135467779Y-122710694D01*
X135427351Y-123006978D01*
X135395122Y-123468861D01*
X135373729Y-124040178D01*
X135365809Y-124664762D01*
X135366549Y-124866522D01*
X135383305Y-125649696D01*
X135426592Y-126247879D01*
X135507041Y-126697341D01*
X135635281Y-127034354D01*
X135821941Y-127295191D01*
X136077651Y-127516123D01*
X136159873Y-127573613D01*
X136335587Y-127683476D01*
X136680007Y-127890870D01*
X137169909Y-128182091D01*
X137782067Y-128543439D01*
X138493255Y-128961212D01*
X139280250Y-129421709D01*
X140119824Y-129911226D01*
X140296179Y-130013834D01*
X141133867Y-130502472D01*
X141915110Y-130960921D01*
X142618200Y-131376238D01*
X143221428Y-131735479D01*
X143703088Y-132025703D01*
X144041471Y-132233965D01*
X144214871Y-132347324D01*
X144229772Y-132359199D01*
X144275156Y-132428560D01*
X144212372Y-132473128D01*
X144010350Y-132497811D01*
X143638018Y-132507515D01*
X143286977Y-132508108D01*
X142181768Y-132505025D01*
X139020633Y-130680804D01*
X138106149Y-130153211D01*
X137363347Y-129724272D01*
X136772038Y-129381304D01*
X136312036Y-129111624D01*
X135963150Y-128902547D01*
X135705194Y-128741390D01*
X135517979Y-128615470D01*
X135381317Y-128512102D01*
X135275020Y-128418602D01*
X135178900Y-128322288D01*
X135072768Y-128210475D01*
X135048841Y-128185426D01*
X134802417Y-127913080D01*
X134611400Y-127651039D01*
X134468857Y-127366579D01*
X134367854Y-127026977D01*
X134301458Y-126599512D01*
X134262735Y-126051459D01*
X134244752Y-125350097D01*
X134240575Y-124462703D01*
X134240641Y-124371167D01*
X134241141Y-123670208D01*
X134249370Y-123120328D01*
X134277795Y-122677336D01*
X134338888Y-122297041D01*
X134445117Y-121935253D01*
X134608951Y-121547781D01*
X134842860Y-121090435D01*
X135159314Y-120519024D01*
X135496049Y-119922107D01*
X136308557Y-118480186D01*
X136999093Y-118447164D01*
X137357203Y-118438150D01*
X137606800Y-118447364D01*
G37*
G36*
X212080859Y-123179893D02*
G01*
X212099509Y-123389744D01*
X211977699Y-123609962D01*
X211938091Y-123646533D01*
X211810828Y-123728458D01*
X211509556Y-123910374D01*
X211052516Y-124181597D01*
X210457952Y-124531437D01*
X209744104Y-124949208D01*
X208929214Y-125424222D01*
X208031524Y-125945792D01*
X207069275Y-126503231D01*
X206530886Y-126814450D01*
X201300546Y-129835581D01*
X201279818Y-130535613D01*
X201267858Y-130924823D01*
X201257607Y-131232711D01*
X201252089Y-131374291D01*
X201151605Y-131478643D01*
X200967795Y-131512937D01*
X200755981Y-131465270D01*
X200681764Y-131374291D01*
X200679330Y-131194218D01*
X200682037Y-130870996D01*
X200687363Y-130570142D01*
X200689069Y-130344293D01*
X200673923Y-130147407D01*
X200627750Y-129947563D01*
X200536375Y-129712838D01*
X200385621Y-129411308D01*
X200161313Y-129011052D01*
X199849275Y-128480147D01*
X199497505Y-127890648D01*
X199077762Y-127181045D01*
X198766623Y-126635362D01*
X198552780Y-126230891D01*
X198424924Y-125944919D01*
X198371749Y-125754736D01*
X198379162Y-125644578D01*
X198531477Y-125445012D01*
X198743281Y-125448830D01*
X198938413Y-125606605D01*
X199047677Y-125763390D01*
X199245813Y-126076898D01*
X199511066Y-126511569D01*
X199821682Y-127031844D01*
X200091944Y-127492195D01*
X200413217Y-128038321D01*
X200697067Y-128510962D01*
X200924596Y-128879451D01*
X201076912Y-129113120D01*
X201133611Y-129182877D01*
X201237151Y-129128384D01*
X201514630Y-128971963D01*
X201948531Y-128723737D01*
X202521339Y-128393827D01*
X203215536Y-127992359D01*
X204013608Y-127529454D01*
X204898038Y-127015235D01*
X205851309Y-126459826D01*
X206461102Y-126103971D01*
X207451969Y-125528017D01*
X208388967Y-124988452D01*
X209254037Y-124495329D01*
X210029125Y-124058700D01*
X210696172Y-123688618D01*
X211237123Y-123395137D01*
X211633921Y-123188308D01*
X211868508Y-123078186D01*
X211923766Y-123062689D01*
X212080859Y-123179893D01*
G37*
G36*
X128233016Y-118438135D02*
G01*
X128318777Y-118508244D01*
X128316463Y-118668045D01*
X128232203Y-118953103D01*
X128072127Y-119398987D01*
X127983024Y-119644815D01*
X127781845Y-120308648D01*
X127627854Y-121064678D01*
X127518366Y-121939574D01*
X127450699Y-122960006D01*
X127422168Y-124152647D01*
X127425008Y-125190666D01*
X127436426Y-126000006D01*
X127451747Y-126629425D01*
X127474914Y-127120835D01*
X127509869Y-127516149D01*
X127560553Y-127857279D01*
X127630909Y-128186138D01*
X127724878Y-128544639D01*
X127748395Y-128629094D01*
X128003263Y-129411261D01*
X128323738Y-130200385D01*
X128681588Y-130937305D01*
X129048585Y-131562863D01*
X129329982Y-131943587D01*
X129541744Y-132202609D01*
X129677151Y-132390567D01*
X129703603Y-132445634D01*
X129602403Y-132478995D01*
X129337587Y-132502602D01*
X128981264Y-132511190D01*
X128258926Y-132511190D01*
X127887928Y-131928876D01*
X127476080Y-131241777D01*
X127146970Y-130587309D01*
X126881783Y-129912082D01*
X126661700Y-129162703D01*
X126467906Y-128285780D01*
X126325877Y-127496711D01*
X126297483Y-127199854D01*
X126276893Y-126723185D01*
X126263809Y-126108582D01*
X126257935Y-125397918D01*
X126258971Y-124633071D01*
X126266622Y-123855915D01*
X126280589Y-123108325D01*
X126300574Y-122432178D01*
X126326281Y-121869349D01*
X126357412Y-121461712D01*
X126369450Y-121364029D01*
X126478587Y-120757314D01*
X126635356Y-120068673D01*
X126816106Y-119392195D01*
X126997183Y-118821970D01*
X127032904Y-118724877D01*
X127117382Y-118553212D01*
X127245518Y-118463452D01*
X127481829Y-118429422D01*
X127772746Y-118424728D01*
X128053048Y-118422152D01*
X128233016Y-118438135D01*
G37*
G36*
X217996070Y-119284335D02*
G01*
X218258386Y-119810286D01*
X218515430Y-120394343D01*
X218715458Y-120918228D01*
X218730392Y-120962933D01*
X218816142Y-121235778D01*
X218881481Y-121487715D01*
X218929184Y-121754140D01*
X218962022Y-122070446D01*
X218982771Y-122472030D01*
X218994203Y-122994285D01*
X218999092Y-123672606D01*
X219000177Y-124405870D01*
X218996713Y-125369083D01*
X218981556Y-126148409D01*
X218948673Y-126781724D01*
X218892030Y-127306903D01*
X218805593Y-127761822D01*
X218683330Y-128184356D01*
X218519206Y-128612381D01*
X218307189Y-129083771D01*
X218228662Y-129249086D01*
X217966023Y-129747233D01*
X217669810Y-130190420D01*
X217290256Y-130646018D01*
X216870302Y-131087916D01*
X216313629Y-131627195D01*
X215840452Y-132013602D01*
X215400395Y-132271150D01*
X214943078Y-132423853D01*
X214418124Y-132495721D01*
X213884292Y-132511190D01*
X213431514Y-132500966D01*
X213106597Y-132473041D01*
X212947990Y-132431540D01*
X212940818Y-132410008D01*
X213060967Y-132314213D01*
X213328436Y-132144833D01*
X213694486Y-131932069D01*
X213862429Y-131838933D01*
X214837453Y-131269991D01*
X215625609Y-130720833D01*
X216255622Y-130158997D01*
X216756217Y-129552018D01*
X217156120Y-128867433D01*
X217484055Y-128072778D01*
X217649546Y-127558942D01*
X217727918Y-127277492D01*
X217785929Y-127008851D01*
X217825933Y-126715296D01*
X217850283Y-126359103D01*
X217861332Y-125902549D01*
X217861431Y-125307910D01*
X217852935Y-124537464D01*
X217850171Y-124342349D01*
X217831513Y-123406688D01*
X217799506Y-122651064D01*
X217744886Y-122033720D01*
X217658389Y-121512895D01*
X217530749Y-121046831D01*
X217352703Y-120593769D01*
X217114986Y-120111950D01*
X216808332Y-119559615D01*
X216776929Y-119504834D01*
X216542771Y-119092011D01*
X216356982Y-118754897D01*
X216243151Y-118536866D01*
X216218886Y-118478851D01*
X216319609Y-118450119D01*
X216581078Y-118430493D01*
X216874754Y-118424728D01*
X217530621Y-118424728D01*
X217996070Y-119284335D01*
G37*
G36*
X130617830Y-118450158D02*
G01*
X130672880Y-118517575D01*
X130644460Y-118652787D01*
X130639513Y-118668478D01*
X130528357Y-118925631D01*
X130352623Y-119247724D01*
X130301037Y-119331894D01*
X130167841Y-119605701D01*
X130005712Y-120032545D01*
X129836971Y-120549631D01*
X129709667Y-120995650D01*
X129586927Y-121471248D01*
X129498778Y-121866771D01*
X129439740Y-122235949D01*
X129404333Y-122632513D01*
X129387074Y-123110193D01*
X129382485Y-123722720D01*
X129383593Y-124192413D01*
X129409531Y-125386972D01*
X129475386Y-126470919D01*
X129578184Y-127416035D01*
X129714952Y-128194106D01*
X129860519Y-128716744D01*
X130257984Y-129618304D01*
X130793728Y-130519360D01*
X131418036Y-131345698D01*
X132067438Y-132011120D01*
X132639094Y-132511190D01*
X130827625Y-132511190D01*
X130450498Y-132039793D01*
X130020226Y-131464592D01*
X129552026Y-130774965D01*
X129281467Y-130348308D01*
X128952166Y-129694295D01*
X128664946Y-128861798D01*
X128413608Y-127832121D01*
X128362147Y-127575383D01*
X128331000Y-127303703D01*
X128303351Y-126850506D01*
X128280590Y-126256097D01*
X128264106Y-125560782D01*
X128255290Y-124804868D01*
X128254192Y-124445129D01*
X128263771Y-123339541D01*
X128296793Y-122418890D01*
X128358884Y-121647000D01*
X128455674Y-120987689D01*
X128592791Y-120404780D01*
X128775863Y-119862093D01*
X129010519Y-119323448D01*
X129069995Y-119201147D01*
X129426310Y-118480186D01*
X130073402Y-118446644D01*
X130433330Y-118432520D01*
X130617830Y-118450158D01*
G37*
G36*
X221500842Y-118446922D02*
G01*
X222124281Y-118480186D01*
X222372895Y-119201147D01*
X222550680Y-119735718D01*
X222691160Y-120216469D01*
X222798641Y-120680406D01*
X222877428Y-121164539D01*
X222931827Y-121705873D01*
X222966145Y-122341418D01*
X222984686Y-123108180D01*
X222991758Y-124043168D01*
X222992345Y-124525164D01*
X222989469Y-125504635D01*
X222979854Y-126293145D01*
X222962018Y-126921506D01*
X222934481Y-127420531D01*
X222895761Y-127821029D01*
X222844378Y-128153812D01*
X222809909Y-128320354D01*
X222396846Y-129774894D01*
X221853791Y-131060529D01*
X221550438Y-131610762D01*
X221043777Y-132455732D01*
X220295087Y-132488529D01*
X219920378Y-132495398D01*
X219651840Y-132482110D01*
X219546450Y-132451542D01*
X219546397Y-132450702D01*
X219612745Y-132333136D01*
X219782606Y-132109099D01*
X219920017Y-131943587D01*
X220229962Y-131512938D01*
X220565792Y-130933319D01*
X220895336Y-130269862D01*
X221186424Y-129587701D01*
X221406886Y-128951968D01*
X221420131Y-128906387D01*
X221565812Y-128366293D01*
X221677519Y-127865456D01*
X221758698Y-127363708D01*
X221812794Y-126820880D01*
X221843252Y-126196804D01*
X221853520Y-125451311D01*
X221847041Y-124544232D01*
X221838751Y-124026038D01*
X221817979Y-123075514D01*
X221789400Y-122305818D01*
X221746851Y-121675950D01*
X221684170Y-121144909D01*
X221595193Y-120671694D01*
X221473760Y-120215305D01*
X221313707Y-119734742D01*
X221113574Y-119201147D01*
X220986535Y-118858832D01*
X220900816Y-118601033D01*
X220877458Y-118502380D01*
X220977561Y-118459647D01*
X221236411Y-118441240D01*
X221500842Y-118446922D01*
G37*
G36*
X137433840Y-123133146D02*
G01*
X137584041Y-123180839D01*
X137801777Y-123275297D01*
X138102027Y-123424553D01*
X138499768Y-123636642D01*
X139009978Y-123919598D01*
X139647634Y-124281454D01*
X140427715Y-124730245D01*
X141365198Y-125274004D01*
X142475061Y-125920765D01*
X142766528Y-126090914D01*
X143755427Y-126667787D01*
X144686234Y-127209687D01*
X145541469Y-127706511D01*
X146303655Y-128148158D01*
X146955314Y-128524527D01*
X147478967Y-128825516D01*
X147857137Y-129041023D01*
X148072345Y-129160948D01*
X148116389Y-129182877D01*
X148187515Y-129092117D01*
X148350365Y-128839741D01*
X148586046Y-128456414D01*
X148875661Y-127972807D01*
X149158056Y-127492195D01*
X149489488Y-126928608D01*
X149793199Y-126421785D01*
X150047435Y-126007287D01*
X150230443Y-125720671D01*
X150311587Y-125606605D01*
X150546750Y-125433286D01*
X150750592Y-125465722D01*
X150871391Y-125646073D01*
X150877859Y-125767211D01*
X150821146Y-125960858D01*
X150689780Y-126249996D01*
X150472290Y-126657607D01*
X150157203Y-127206673D01*
X149751886Y-127888799D01*
X149351826Y-128556989D01*
X149051971Y-129067057D01*
X148838125Y-129450940D01*
X148696091Y-129740576D01*
X148611672Y-129967903D01*
X148570672Y-130164858D01*
X148558894Y-130363378D01*
X148561476Y-130566799D01*
X148568424Y-130947959D01*
X148570483Y-131247335D01*
X148568236Y-131374291D01*
X148473834Y-131484317D01*
X148281246Y-131507002D01*
X148097533Y-131439165D01*
X148052707Y-131389619D01*
X148011087Y-131220489D01*
X147978353Y-130902238D01*
X147962973Y-130551253D01*
X147949454Y-129836204D01*
X142636505Y-126764745D01*
X141640636Y-126186728D01*
X140701201Y-125637026D01*
X139836083Y-125126406D01*
X139063159Y-124665630D01*
X138400310Y-124265464D01*
X137865415Y-123936672D01*
X137476355Y-123690018D01*
X137251008Y-123536266D01*
X137201571Y-123492685D01*
X137144843Y-123301997D01*
X137276135Y-123145919D01*
X137336197Y-123124184D01*
X137433840Y-123133146D01*
G37*
G36*
X161283608Y-118435108D02*
G01*
X161502236Y-118491964D01*
X161662945Y-118633863D01*
X161809193Y-118841113D01*
X162000587Y-119172357D01*
X162215286Y-119605766D01*
X162369148Y-119957420D01*
X162653552Y-120657342D01*
X162647906Y-126436484D01*
X162644691Y-127874929D01*
X162637961Y-129099115D01*
X162627552Y-130116591D01*
X162613302Y-130934905D01*
X162595046Y-131561607D01*
X162572621Y-132004246D01*
X162545865Y-132270370D01*
X162519613Y-132363408D01*
X162376829Y-132430328D01*
X162118136Y-132484393D01*
X161822054Y-132517578D01*
X161567107Y-132521861D01*
X161431815Y-132489220D01*
X161425873Y-132475159D01*
X161458943Y-132360474D01*
X161546223Y-132091060D01*
X161669822Y-131721977D01*
X161688236Y-131667749D01*
X161832611Y-131176144D01*
X161975034Y-130579890D01*
X162088312Y-129994731D01*
X162103222Y-129901378D01*
X162162132Y-129367307D01*
X162205804Y-128665913D01*
X162234253Y-127847201D01*
X162247490Y-126961176D01*
X162245529Y-126057843D01*
X162228381Y-125187205D01*
X162196061Y-124399268D01*
X162148579Y-123744035D01*
X162101557Y-123360535D01*
X161850615Y-122206068D01*
X161472765Y-121005639D01*
X161003067Y-119864862D01*
X160812826Y-119478664D01*
X160600909Y-119065465D01*
X160434136Y-118731334D01*
X160334745Y-118521326D01*
X160316703Y-118473528D01*
X160417038Y-118446766D01*
X160675786Y-118429040D01*
X160925173Y-118424728D01*
X161283608Y-118435108D01*
G37*
G36*
X158875291Y-118429946D02*
G01*
X159113498Y-118466332D01*
X159269732Y-118564985D01*
X159413923Y-118757002D01*
X159485592Y-118869610D01*
X160025016Y-119774568D01*
X160460596Y-120631680D01*
X160801917Y-121479751D01*
X161058564Y-122357585D01*
X161240123Y-123303987D01*
X161356180Y-124357761D01*
X161416319Y-125557712D01*
X161430620Y-126743505D01*
X161420108Y-127842873D01*
X161387559Y-128760069D01*
X161328695Y-129534042D01*
X161239241Y-130203743D01*
X161114921Y-130808122D01*
X160951458Y-131386127D01*
X160905481Y-131526583D01*
X160593996Y-132455732D01*
X159956223Y-132488996D01*
X159613874Y-132497901D01*
X159382383Y-132486791D01*
X159318450Y-132465373D01*
X159355967Y-132339078D01*
X159452771Y-132072820D01*
X159547307Y-131827870D01*
X159773877Y-131192175D01*
X159948979Y-130547938D01*
X160077874Y-129855772D01*
X160165823Y-129076295D01*
X160218088Y-128170120D01*
X160239929Y-127097863D01*
X160241343Y-126632588D01*
X160235279Y-125665557D01*
X160217456Y-124886812D01*
X160186084Y-124263028D01*
X160139375Y-123760882D01*
X160075537Y-123347047D01*
X160061004Y-123274101D01*
X159805492Y-122313124D01*
X159442301Y-121325228D01*
X159003976Y-120386042D01*
X158523066Y-119571197D01*
X158380735Y-119369561D01*
X158112993Y-119001848D01*
X157904190Y-118704288D01*
X157783665Y-118519249D01*
X157765611Y-118481258D01*
X157866797Y-118452442D01*
X158131494Y-118432076D01*
X158485181Y-118424728D01*
X158875291Y-118429946D01*
G37*
G36*
X135278554Y-118454489D02*
G01*
X135360371Y-118483066D01*
X135307275Y-118598077D01*
X135160990Y-118869138D01*
X134941026Y-119261225D01*
X134666889Y-119739311D01*
X134517701Y-119996061D01*
X134144039Y-120661934D01*
X133858921Y-121246411D01*
X133651058Y-121797741D01*
X133509162Y-122364175D01*
X133421944Y-122993963D01*
X133378116Y-123735355D01*
X133366389Y-124636601D01*
X133367261Y-124913374D01*
X133373444Y-125569749D01*
X133388531Y-126057848D01*
X133419765Y-126431221D01*
X133474387Y-126743420D01*
X133559639Y-127047996D01*
X133682763Y-127398501D01*
X133715105Y-127485628D01*
X133947838Y-128043018D01*
X134185858Y-128452419D01*
X134471542Y-128784555D01*
X134522873Y-128833723D01*
X134746859Y-129009096D01*
X135132316Y-129273114D01*
X135647413Y-129605587D01*
X136260320Y-129986324D01*
X136939207Y-130395137D01*
X137533116Y-130743118D01*
X138220372Y-131142641D01*
X138849479Y-131512217D01*
X139393191Y-131835528D01*
X139824261Y-132096261D01*
X140115444Y-132278102D01*
X140236759Y-132362054D01*
X140280603Y-132430171D01*
X140213321Y-132473875D01*
X140004257Y-132497878D01*
X139622754Y-132506898D01*
X139293964Y-132507063D01*
X138188755Y-132502935D01*
X136525000Y-131570337D01*
X135971512Y-131258572D01*
X135482779Y-130980424D01*
X135092957Y-130755558D01*
X134836199Y-130603642D01*
X134750327Y-130548483D01*
X134175615Y-130071633D01*
X133742426Y-129673909D01*
X133407603Y-129311544D01*
X133127990Y-128940766D01*
X133050453Y-128824474D01*
X132802975Y-128417492D01*
X132611171Y-128025185D01*
X132468228Y-127611086D01*
X132367333Y-127138731D01*
X132301673Y-126571654D01*
X132264434Y-125873390D01*
X132248805Y-125007475D01*
X132246980Y-124524107D01*
X132247864Y-123746890D01*
X132254274Y-123151515D01*
X132269840Y-122697998D01*
X132298191Y-122346356D01*
X132342956Y-122056605D01*
X132407765Y-121788760D01*
X132496248Y-121502838D01*
X132530607Y-121399648D01*
X132716917Y-120917801D01*
X132976129Y-120341152D01*
X133264815Y-119763788D01*
X133400484Y-119515117D01*
X133985009Y-118480186D01*
X134672690Y-118447164D01*
X135029919Y-118440107D01*
X135278554Y-118454489D01*
G37*
G36*
X151199721Y-119717859D02*
G01*
X152119865Y-120273567D01*
X152863888Y-120750479D01*
X153454932Y-121167287D01*
X153916140Y-121542685D01*
X154270655Y-121895363D01*
X154541622Y-122244015D01*
X154734868Y-122573088D01*
X154913240Y-122935823D01*
X155051962Y-123267245D01*
X155156007Y-123602453D01*
X155230349Y-123976546D01*
X155279962Y-124424622D01*
X155309819Y-124981780D01*
X155324895Y-125683119D01*
X155330162Y-126563737D01*
X155330490Y-126776288D01*
X155333340Y-129415621D01*
X155026840Y-130103799D01*
X154814393Y-130540707D01*
X154535795Y-131060372D01*
X154246464Y-131559994D01*
X154207414Y-131623854D01*
X153694489Y-132455732D01*
X153068041Y-132488996D01*
X152729200Y-132496375D01*
X152501722Y-132481005D01*
X152441594Y-132455921D01*
X152494865Y-132339806D01*
X152639741Y-132073542D01*
X152853817Y-131697271D01*
X153102998Y-131270896D01*
X153445816Y-130679528D01*
X153710483Y-130179486D01*
X153906581Y-129727876D01*
X154043694Y-129281805D01*
X154131403Y-128798379D01*
X154179292Y-128234704D01*
X154196943Y-127547886D01*
X154193939Y-126695032D01*
X154190478Y-126403144D01*
X154179712Y-125618020D01*
X154167583Y-125019854D01*
X154150097Y-124573787D01*
X154123259Y-124244960D01*
X154083076Y-123998512D01*
X154025552Y-123799585D01*
X153946695Y-123613317D01*
X153848204Y-123415994D01*
X153439613Y-122765738D01*
X152899701Y-122177659D01*
X152198344Y-121623924D01*
X151332424Y-121091700D01*
X150636542Y-120701598D01*
X149928102Y-120299630D01*
X149235273Y-119902257D01*
X148586227Y-119525942D01*
X148009132Y-119187147D01*
X147532161Y-118902333D01*
X147183482Y-118687963D01*
X146991267Y-118560499D01*
X146967684Y-118541037D01*
X146990188Y-118483073D01*
X147203169Y-118445626D01*
X147618708Y-118427242D01*
X147933214Y-118424728D01*
X149015053Y-118424728D01*
X151199721Y-119717859D01*
G37*
G36*
X197733457Y-118433796D02*
G01*
X198083060Y-118458248D01*
X198284233Y-118493950D01*
X198314060Y-118522257D01*
X198200701Y-118611442D01*
X197932183Y-118787680D01*
X197545693Y-119027505D01*
X197078417Y-119307453D01*
X196951788Y-119381864D01*
X195943542Y-120022692D01*
X195124729Y-120662038D01*
X194465149Y-121329607D01*
X193934605Y-122055107D01*
X193583817Y-122695033D01*
X193102408Y-123693286D01*
X193065228Y-126244378D01*
X193057626Y-127283441D01*
X193072725Y-128137975D01*
X193117387Y-128844722D01*
X193198474Y-129440419D01*
X193322846Y-129961808D01*
X193497366Y-130445629D01*
X193728895Y-130928620D01*
X194024293Y-131447521D01*
X194042647Y-131478027D01*
X194278444Y-131875239D01*
X194463272Y-132198290D01*
X194571906Y-132402457D01*
X194590065Y-132448551D01*
X194489376Y-132481881D01*
X194228113Y-132504600D01*
X193937728Y-132511190D01*
X193560766Y-132501038D01*
X193327934Y-132450344D01*
X193161762Y-132328748D01*
X193017836Y-132150710D01*
X192788341Y-131771642D01*
X192540764Y-131250190D01*
X192305866Y-130660361D01*
X192114411Y-130076159D01*
X192044569Y-129809223D01*
X192003245Y-129511770D01*
X191969130Y-129019105D01*
X191943224Y-128357764D01*
X191926529Y-127554283D01*
X191920043Y-126635198D01*
X191920004Y-126505010D01*
X191922125Y-125623974D01*
X191929012Y-124931020D01*
X191942841Y-124392414D01*
X191965790Y-123974418D01*
X192000034Y-123643296D01*
X192047749Y-123365313D01*
X192111113Y-123106733D01*
X192147357Y-122980833D01*
X192526359Y-122054603D01*
X193098173Y-121135070D01*
X193835446Y-120256104D01*
X194710825Y-119451571D01*
X195414857Y-118935023D01*
X196184189Y-118424728D01*
X197279263Y-118424728D01*
X197733457Y-118433796D01*
G37*
G36*
X206058951Y-118421019D02*
G01*
X206223174Y-118462832D01*
X206231354Y-118480186D01*
X206138444Y-118572271D01*
X205886417Y-118751091D01*
X205509295Y-118994252D01*
X205041097Y-119279360D01*
X204816956Y-119411190D01*
X203407155Y-120235352D01*
X202120833Y-120994643D01*
X200966624Y-121683733D01*
X199953160Y-122297292D01*
X199089076Y-122829991D01*
X198383004Y-123276499D01*
X197843580Y-123631488D01*
X197479436Y-123889626D01*
X197299205Y-124045585D01*
X197289806Y-124057970D01*
X197218422Y-124186576D01*
X197164568Y-124354866D01*
X197125206Y-124595394D01*
X197097301Y-124940715D01*
X197077818Y-125423382D01*
X197063722Y-126075951D01*
X197056641Y-126558432D01*
X197027584Y-128758075D01*
X197880896Y-130218694D01*
X198195294Y-130753557D01*
X198485876Y-131241881D01*
X198727160Y-131641279D01*
X198893664Y-131909363D01*
X198935935Y-131973728D01*
X199097963Y-132249039D01*
X199103314Y-132411955D01*
X198931259Y-132490111D01*
X198561072Y-132511142D01*
X198532798Y-132511190D01*
X198154372Y-132494241D01*
X197923788Y-132428042D01*
X197768607Y-132289568D01*
X197747708Y-132261627D01*
X197511780Y-131915708D01*
X197226991Y-131469406D01*
X196921085Y-130969721D01*
X196621809Y-130463650D01*
X196356908Y-129998193D01*
X196154127Y-129620350D01*
X196041212Y-129377118D01*
X196035920Y-129361973D01*
X195991037Y-129106766D01*
X195955114Y-128654363D01*
X195929270Y-128029262D01*
X195914622Y-127255960D01*
X195911630Y-126638893D01*
X195912525Y-125859871D01*
X195917108Y-125268329D01*
X195928879Y-124829909D01*
X195951338Y-124510258D01*
X195987986Y-124275019D01*
X196042322Y-124089837D01*
X196117848Y-123920358D01*
X196205407Y-123755472D01*
X196462004Y-123354188D01*
X196771589Y-122962739D01*
X196903068Y-122823805D01*
X197093274Y-122675901D01*
X197450622Y-122433540D01*
X197949780Y-122112557D01*
X198565416Y-121728784D01*
X199272198Y-121298055D01*
X200044793Y-120836204D01*
X200690502Y-120456549D01*
X204073472Y-118482258D01*
X205155119Y-118425763D01*
X205697124Y-118408369D01*
X206058951Y-118421019D01*
G37*
G36*
X191131623Y-118432482D02*
G01*
X191390848Y-118452769D01*
X191484389Y-118479875D01*
X191423197Y-118589018D01*
X191261059Y-118828514D01*
X191030130Y-119151248D01*
X190973417Y-119228564D01*
X190462153Y-119987817D01*
X190039187Y-120775114D01*
X189654587Y-121684123D01*
X189630233Y-121748310D01*
X189452691Y-122256616D01*
X189314218Y-122753818D01*
X189210394Y-123277310D01*
X189136797Y-123864488D01*
X189089005Y-124552748D01*
X189062598Y-125379487D01*
X189053153Y-126382099D01*
X189052912Y-126631078D01*
X189064247Y-127788809D01*
X189100751Y-128761583D01*
X189166914Y-129585311D01*
X189267226Y-130295903D01*
X189406178Y-130929271D01*
X189588260Y-131521324D01*
X189702693Y-131827870D01*
X189827762Y-132153578D01*
X189910888Y-132386157D01*
X189931550Y-132459838D01*
X189831154Y-132487856D01*
X189571973Y-132506508D01*
X189315847Y-132511190D01*
X188960847Y-132503493D01*
X188758109Y-132456982D01*
X188638094Y-132336525D01*
X188535407Y-132116922D01*
X188413155Y-131765525D01*
X188294533Y-131332975D01*
X188252588Y-131146398D01*
X188161726Y-130708865D01*
X188069972Y-130275933D01*
X188037667Y-130126474D01*
X188004562Y-129855043D01*
X187978013Y-129399279D01*
X187957954Y-128796585D01*
X187944320Y-128084362D01*
X187937043Y-127300012D01*
X187936057Y-126480939D01*
X187941295Y-125664544D01*
X187952692Y-124888230D01*
X187970180Y-124189398D01*
X187993693Y-123605451D01*
X188023166Y-123173792D01*
X188050386Y-122966189D01*
X188404246Y-121677002D01*
X188941970Y-120359255D01*
X189641293Y-119066359D01*
X189747190Y-118896125D01*
X190045250Y-118424728D01*
X190764819Y-118424728D01*
X191131623Y-118432482D01*
G37*
G36*
X219140871Y-118444945D02*
G01*
X219173630Y-118446644D01*
X219541410Y-118474365D01*
X219762378Y-118535691D01*
X219911459Y-118670685D01*
X220063581Y-118919414D01*
X220066066Y-118923854D01*
X220237160Y-119290660D01*
X220431239Y-119800341D01*
X220624087Y-120379015D01*
X220791488Y-120952803D01*
X220909225Y-121447824D01*
X220929094Y-121556802D01*
X220948245Y-121783237D01*
X220964848Y-122194843D01*
X220978162Y-122754961D01*
X220987444Y-123426935D01*
X220991950Y-124174107D01*
X220992013Y-124662478D01*
X220987162Y-125573414D01*
X220975585Y-126299004D01*
X220955118Y-126875688D01*
X220923593Y-127339908D01*
X220878845Y-127728104D01*
X220818707Y-128076717D01*
X220777729Y-128267231D01*
X220463365Y-129278928D01*
X219992758Y-130311938D01*
X219407573Y-131287359D01*
X218749475Y-132126290D01*
X218727021Y-132150710D01*
X218547797Y-132331640D01*
X218381761Y-132438969D01*
X218164677Y-132491874D01*
X217832310Y-132509531D01*
X217519500Y-132511190D01*
X216645290Y-132511190D01*
X217408124Y-131762500D01*
X217963733Y-131167087D01*
X218477464Y-130523750D01*
X218903804Y-129893935D01*
X219189176Y-129357818D01*
X219278294Y-129108294D01*
X219399424Y-128709911D01*
X219532769Y-128229508D01*
X219600395Y-127969356D01*
X219692635Y-127586233D01*
X219761231Y-127238069D01*
X219809616Y-126881550D01*
X219841222Y-126473367D01*
X219859483Y-125970209D01*
X219867832Y-125328763D01*
X219869709Y-124571578D01*
X219863771Y-123634832D01*
X219845030Y-122894128D01*
X219812095Y-122323967D01*
X219763572Y-121898852D01*
X219709369Y-121633757D01*
X219618741Y-121250878D01*
X219560002Y-120921621D01*
X219547714Y-120784746D01*
X219498534Y-120552722D01*
X219373392Y-120199202D01*
X219203526Y-119796903D01*
X219020173Y-119418541D01*
X218854571Y-119136833D01*
X218819767Y-119090230D01*
X218678018Y-118848375D01*
X218607402Y-118668478D01*
X218575705Y-118526230D01*
X218623190Y-118453649D01*
X218796148Y-118432599D01*
X219140871Y-118444945D01*
G37*
G36*
X212250907Y-118447164D02*
G01*
X212941443Y-118480186D01*
X213753951Y-119922107D01*
X214148933Y-120622708D01*
X214450953Y-121172321D01*
X214672480Y-121615137D01*
X214825982Y-121995348D01*
X214923930Y-122357143D01*
X214978792Y-122744714D01*
X215003039Y-123202251D01*
X215009139Y-123773945D01*
X215009359Y-124371167D01*
X215005857Y-125051421D01*
X214994884Y-125683425D01*
X214977813Y-126222089D01*
X214956016Y-126622322D01*
X214934812Y-126819926D01*
X214863422Y-127140233D01*
X214760808Y-127430205D01*
X214609327Y-127704460D01*
X214391339Y-127977619D01*
X214089202Y-128264301D01*
X213685275Y-128579126D01*
X213161916Y-128936712D01*
X212501484Y-129351680D01*
X211686338Y-129838648D01*
X210698836Y-130412237D01*
X210375953Y-130597872D01*
X207042727Y-132511190D01*
X205951855Y-132511190D01*
X205431532Y-132503898D01*
X205112728Y-132480346D01*
X204975554Y-132438019D01*
X204983424Y-132388749D01*
X205102474Y-132308482D01*
X205393000Y-132128836D01*
X205834691Y-131861916D01*
X206407236Y-131519827D01*
X207090324Y-131114674D01*
X207863646Y-130658560D01*
X208706891Y-130163592D01*
X209248183Y-129847020D01*
X210302762Y-129233159D01*
X211184232Y-128719370D01*
X211908065Y-128288897D01*
X212489732Y-127924985D01*
X212944702Y-127610880D01*
X213288448Y-127329827D01*
X213536440Y-127065071D01*
X213704148Y-126799857D01*
X213807043Y-126517431D01*
X213860597Y-126201036D01*
X213880279Y-125833919D01*
X213881561Y-125399325D01*
X213879914Y-124880498D01*
X213880142Y-124830606D01*
X213877746Y-124014292D01*
X213850444Y-123357490D01*
X213783311Y-122807381D01*
X213661421Y-122311144D01*
X213469849Y-121815959D01*
X213193667Y-121269008D01*
X212817951Y-120617471D01*
X212576283Y-120216502D01*
X212247751Y-119671895D01*
X211963480Y-119194009D01*
X211741990Y-118814523D01*
X211601797Y-118565111D01*
X211560371Y-118478671D01*
X211661144Y-118450028D01*
X211923925Y-118439271D01*
X212250907Y-118447164D01*
G37*
G36*
X223182323Y-130282317D02*
G01*
X223218139Y-130546581D01*
X223232213Y-130917596D01*
X223225842Y-131338493D01*
X223200320Y-131752399D01*
X223156943Y-132102443D01*
X223097005Y-132331754D01*
X223073603Y-132371491D01*
X222930691Y-132439630D01*
X222678945Y-132491615D01*
X222401098Y-132519006D01*
X222179881Y-132513362D01*
X222097489Y-132471086D01*
X222141460Y-132359897D01*
X222259532Y-132094366D01*
X222430940Y-131720675D01*
X222541157Y-131484218D01*
X222735525Y-131051369D01*
X222886617Y-130680483D01*
X222972816Y-130426356D01*
X222984825Y-130359694D01*
X223055171Y-130205023D01*
X223123472Y-130181678D01*
X223182323Y-130282317D01*
G37*
G36*
X214576986Y-118447164D02*
G01*
X215264343Y-118480186D01*
X215959532Y-119700273D01*
X216272629Y-120254055D01*
X216515924Y-120710473D01*
X216698215Y-121109839D01*
X216828301Y-121492464D01*
X216914982Y-121898659D01*
X216967055Y-122368735D01*
X216993321Y-122943003D01*
X217002577Y-123661773D01*
X217003635Y-124483693D01*
X216998347Y-125442947D01*
X216978227Y-126215643D01*
X216936423Y-126836915D01*
X216866086Y-127341896D01*
X216760364Y-127765718D01*
X216612407Y-128143515D01*
X216415364Y-128510420D01*
X216162386Y-128901566D01*
X216134153Y-128942776D01*
X215820410Y-129356349D01*
X215459087Y-129739831D01*
X215019870Y-130116645D01*
X214472445Y-130510209D01*
X213786496Y-130943946D01*
X212931711Y-131441276D01*
X212815252Y-131506959D01*
X211029838Y-132511190D01*
X209941917Y-132511190D01*
X209394677Y-132501218D01*
X209066384Y-132471147D01*
X208955041Y-132420750D01*
X208965615Y-132399571D01*
X209086835Y-132317096D01*
X209375039Y-132138438D01*
X209805230Y-131878558D01*
X210352412Y-131552420D01*
X210991585Y-131174985D01*
X211697755Y-130761215D01*
X211893244Y-130647202D01*
X212707612Y-130171496D01*
X213353269Y-129789846D01*
X213853835Y-129485763D01*
X214232929Y-129242762D01*
X214514170Y-129044354D01*
X214721178Y-128874054D01*
X214877572Y-128715373D01*
X215006971Y-128551825D01*
X215109955Y-128401835D01*
X215332691Y-128044989D01*
X215503712Y-127706900D01*
X215630455Y-127349719D01*
X215720355Y-126935599D01*
X215780848Y-126426693D01*
X215819370Y-125785153D01*
X215843355Y-124973131D01*
X215849789Y-124636081D01*
X215861353Y-123793554D01*
X215855488Y-123125415D01*
X215820656Y-122584300D01*
X215745319Y-122122841D01*
X215617939Y-121693671D01*
X215426975Y-121249424D01*
X215160891Y-120742733D01*
X214808148Y-120126233D01*
X214710297Y-119958357D01*
X214420706Y-119457632D01*
X214175937Y-119025912D01*
X213995764Y-118698745D01*
X213899961Y-118511676D01*
X213889629Y-118483066D01*
X213990367Y-118452095D01*
X214252962Y-118439789D01*
X214576986Y-118447164D01*
G37*
G36*
X156992641Y-118951583D02*
G01*
X157672637Y-119805926D01*
X158253843Y-120705982D01*
X158673292Y-121543120D01*
X158861967Y-122021489D01*
X159011409Y-122481208D01*
X159125941Y-122956729D01*
X159209885Y-123482505D01*
X159267562Y-124092989D01*
X159303297Y-124822634D01*
X159321410Y-125705892D01*
X159326232Y-126747533D01*
X159322911Y-127743045D01*
X159310362Y-128551584D01*
X159284245Y-129207957D01*
X159240216Y-129746970D01*
X159173935Y-130203431D01*
X159081060Y-130612146D01*
X158957248Y-131007923D01*
X158798157Y-131425569D01*
X158718598Y-131618689D01*
X158368641Y-132455732D01*
X157678917Y-132488754D01*
X157321045Y-132497730D01*
X157071720Y-132488398D01*
X156989192Y-132465950D01*
X157045864Y-132347864D01*
X157187861Y-132119029D01*
X157251192Y-132024046D01*
X157405638Y-131740779D01*
X157590497Y-131319935D01*
X157773635Y-130836773D01*
X157833506Y-130660387D01*
X158153821Y-129682806D01*
X158153039Y-126632588D01*
X158150745Y-125645689D01*
X158141282Y-124847865D01*
X158119942Y-124206370D01*
X158082019Y-123688458D01*
X158022803Y-123261385D01*
X157937587Y-122892404D01*
X157821663Y-122548769D01*
X157670324Y-122197735D01*
X157478860Y-121806557D01*
X157451381Y-121752238D01*
X157124945Y-121125072D01*
X156847308Y-120644074D01*
X156577374Y-120252608D01*
X156274043Y-119894040D01*
X155896219Y-119511735D01*
X155669613Y-119296871D01*
X154738244Y-118424728D01*
X156526671Y-118424728D01*
X156992641Y-118951583D01*
G37*
G36*
X201750484Y-118433896D02*
G01*
X202092062Y-118458575D01*
X202283874Y-118494519D01*
X202308074Y-118520638D01*
X202200347Y-118599371D01*
X201925513Y-118774139D01*
X201508463Y-119029861D01*
X200974089Y-119351454D01*
X200347281Y-119723836D01*
X199652931Y-120131926D01*
X199536918Y-120199709D01*
X198802020Y-120634309D01*
X198103055Y-121058084D01*
X197471210Y-121451321D01*
X196937670Y-121794311D01*
X196533622Y-122067343D01*
X196290252Y-122250708D01*
X196286253Y-122254186D01*
X195869883Y-122696077D01*
X195506273Y-123217766D01*
X195420006Y-123375770D01*
X195092545Y-124026038D01*
X195060803Y-126402010D01*
X195054726Y-127411581D01*
X195066436Y-128200800D01*
X195095961Y-128770438D01*
X195143328Y-129121265D01*
X195157982Y-129174936D01*
X195257668Y-129416844D01*
X195441436Y-129804350D01*
X195685453Y-130289237D01*
X195965889Y-130823286D01*
X196047654Y-130974994D01*
X196318622Y-131479145D01*
X196547012Y-131912440D01*
X196713936Y-132238388D01*
X196800504Y-132420499D01*
X196808406Y-132444645D01*
X196708093Y-132481162D01*
X196449435Y-132505333D01*
X196200919Y-132511190D01*
X195828335Y-132495995D01*
X195607004Y-132435276D01*
X195467523Y-132306336D01*
X195437835Y-132261627D01*
X195064452Y-131658412D01*
X194785904Y-131195696D01*
X194576437Y-130827781D01*
X194410294Y-130508973D01*
X194261719Y-130193577D01*
X194221595Y-130103799D01*
X194125626Y-129882793D01*
X194052256Y-129686433D01*
X193998448Y-129481612D01*
X193961170Y-129235224D01*
X193937386Y-128914160D01*
X193924061Y-128485315D01*
X193918162Y-127915581D01*
X193916653Y-127171853D01*
X193916598Y-126776288D01*
X193918402Y-125918206D01*
X193925322Y-125248698D01*
X193939559Y-124734526D01*
X193963312Y-124342448D01*
X193998779Y-124039225D01*
X194048159Y-123791616D01*
X194113652Y-123566382D01*
X194132681Y-123510020D01*
X194314390Y-123013060D01*
X194487500Y-122638781D01*
X194700110Y-122303991D01*
X195000323Y-121925498D01*
X195151167Y-121748506D01*
X195362583Y-121522230D01*
X195614331Y-121296328D01*
X195934623Y-121051026D01*
X196351668Y-120766548D01*
X196893677Y-120423120D01*
X197588858Y-120000965D01*
X197959706Y-119779729D01*
X200239804Y-118424728D01*
X201303577Y-118424728D01*
X201750484Y-118433896D01*
G37*
G36*
X153911572Y-118989521D02*
G01*
X154954050Y-119794870D01*
X155835675Y-120714571D01*
X156538361Y-121726118D01*
X157044023Y-122807001D01*
X157093984Y-122950360D01*
X157167117Y-123185261D01*
X157223369Y-123420434D01*
X157264946Y-123688563D01*
X157294055Y-124022333D01*
X157312901Y-124454428D01*
X157323691Y-125017533D01*
X157328632Y-125744333D01*
X157329843Y-126444481D01*
X157326674Y-127420492D01*
X157314941Y-128204179D01*
X157293236Y-128824936D01*
X157260151Y-129312158D01*
X157214277Y-129695239D01*
X157160611Y-129976481D01*
X156886776Y-130879676D01*
X156514243Y-131698441D01*
X156232949Y-132150710D01*
X156061397Y-132361855D01*
X155883544Y-132469215D01*
X155617157Y-132507273D01*
X155373342Y-132511190D01*
X155041534Y-132501839D01*
X154822707Y-132477744D01*
X154770851Y-132455004D01*
X154818477Y-132340120D01*
X154948217Y-132068511D01*
X155140368Y-131680536D01*
X155375227Y-131216557D01*
X155380016Y-131207187D01*
X155634362Y-130678825D01*
X155857049Y-130159663D01*
X156021644Y-129714778D01*
X156095935Y-129444688D01*
X156135104Y-129107913D01*
X156165044Y-128597001D01*
X156185751Y-127958711D01*
X156197220Y-127239803D01*
X156199445Y-126487035D01*
X156192423Y-125747167D01*
X156176147Y-125066958D01*
X156150613Y-124493168D01*
X156115816Y-124072554D01*
X156096516Y-123942423D01*
X155994615Y-123566578D01*
X155823240Y-123089339D01*
X155616831Y-122605304D01*
X155585802Y-122539677D01*
X155110003Y-121738369D01*
X154470347Y-120988975D01*
X153649186Y-120274526D01*
X152628872Y-119578055D01*
X152301220Y-119381692D01*
X151818677Y-119095606D01*
X151407539Y-118843616D01*
X151104979Y-118649123D01*
X150948172Y-118535528D01*
X150935940Y-118522257D01*
X151012410Y-118481257D01*
X151266782Y-118448752D01*
X151655168Y-118428893D01*
X151967783Y-118424728D01*
X153059902Y-118424728D01*
X153911572Y-118989521D01*
G37*
G36*
X188706560Y-118449049D02*
G01*
X188908035Y-118521426D01*
X188920440Y-118682416D01*
X188757079Y-118950382D01*
X188710895Y-119010301D01*
X188508452Y-119339529D01*
X188274168Y-119835161D01*
X188026157Y-120447468D01*
X187782533Y-121126717D01*
X187561411Y-121823178D01*
X187380906Y-122487119D01*
X187284504Y-122926300D01*
X187204890Y-123381657D01*
X187145385Y-123825007D01*
X187103322Y-124300063D01*
X187076029Y-124850541D01*
X187060839Y-125520156D01*
X187055081Y-126352622D01*
X187054799Y-126688046D01*
X187061033Y-127744889D01*
X187081647Y-128616506D01*
X187120400Y-129339252D01*
X187181053Y-129949479D01*
X187267367Y-130483542D01*
X187383103Y-130977794D01*
X187532021Y-131468591D01*
X187557000Y-131542826D01*
X187686202Y-131934184D01*
X187781043Y-132243360D01*
X187823413Y-132410905D01*
X187824127Y-132419701D01*
X187728333Y-132483880D01*
X187493580Y-132509503D01*
X187198814Y-132499592D01*
X186922978Y-132457170D01*
X186745017Y-132385258D01*
X186737140Y-132378090D01*
X186705702Y-132289421D01*
X186679119Y-132082535D01*
X186657094Y-131744226D01*
X186639332Y-131261285D01*
X186625534Y-130620504D01*
X186615406Y-129808676D01*
X186608650Y-128812593D01*
X186604970Y-127619047D01*
X186604039Y-126448135D01*
X186603851Y-125130109D01*
X186604655Y-124013462D01*
X186608503Y-123077740D01*
X186617449Y-122302491D01*
X186633546Y-121667261D01*
X186658847Y-121151598D01*
X186695404Y-120735048D01*
X186745270Y-120397158D01*
X186810499Y-120117476D01*
X186893143Y-119875548D01*
X186995255Y-119650922D01*
X187118888Y-119423143D01*
X187266094Y-119171761D01*
X187348392Y-119032169D01*
X187539623Y-118721387D01*
X187699086Y-118553413D01*
X187906571Y-118479315D01*
X188241871Y-118450158D01*
X188302709Y-118446922D01*
X188706560Y-118449049D01*
G37*
G36*
X132723401Y-118435274D02*
G01*
X132961231Y-118462651D01*
X133031113Y-118493406D01*
X132977588Y-118616197D01*
X132837325Y-118871782D01*
X132642563Y-119201708D01*
X132246793Y-119905063D01*
X131937469Y-120587149D01*
X131705729Y-121288573D01*
X131542709Y-122049940D01*
X131439544Y-122911857D01*
X131387372Y-123914931D01*
X131376804Y-125000433D01*
X131385256Y-125732965D01*
X131407040Y-126299213D01*
X131447541Y-126754586D01*
X131512141Y-127154493D01*
X131606225Y-127554340D01*
X131635439Y-127662442D01*
X131945771Y-128578624D01*
X132348446Y-129366205D01*
X132869729Y-130054558D01*
X133535888Y-130673059D01*
X134373189Y-131251081D01*
X135304913Y-131766111D01*
X135850469Y-132047673D01*
X136198458Y-132246793D01*
X136351012Y-132377622D01*
X136310265Y-132454313D01*
X136078349Y-132491016D01*
X135657397Y-132501885D01*
X135415830Y-132502134D01*
X134849339Y-132491704D01*
X134439748Y-132456340D01*
X134122645Y-132386324D01*
X133833618Y-132271939D01*
X133807533Y-132259498D01*
X133439145Y-132026843D01*
X132987002Y-131659479D01*
X132496587Y-131202997D01*
X132013384Y-130702985D01*
X131582877Y-130205034D01*
X131250551Y-129754732D01*
X131159081Y-129604903D01*
X130955296Y-129186973D01*
X130740194Y-128656088D01*
X130554741Y-128114880D01*
X130526368Y-128019804D01*
X130434287Y-127687944D01*
X130365231Y-127387940D01*
X130315921Y-127079864D01*
X130283080Y-126723787D01*
X130263428Y-126279782D01*
X130253687Y-125707920D01*
X130250579Y-124968272D01*
X130250452Y-124659279D01*
X130256751Y-123629561D01*
X130280153Y-122783377D01*
X130327778Y-122082652D01*
X130406744Y-121489312D01*
X130524173Y-120965280D01*
X130687184Y-120472483D01*
X130902895Y-119972844D01*
X131178428Y-119428290D01*
X131255516Y-119284335D01*
X131719379Y-118424728D01*
X132375246Y-118424728D01*
X132723401Y-118435274D01*
G37*
G36*
X126189155Y-130279903D02*
G01*
X126311822Y-130531958D01*
X126418435Y-130820508D01*
X126595414Y-131268805D01*
X126818084Y-131713758D01*
X126945291Y-131921131D01*
X127127380Y-132197961D01*
X127242502Y-132395003D01*
X127263428Y-132447987D01*
X127167862Y-132500765D01*
X126933861Y-132515370D01*
X126640470Y-132497363D01*
X126366732Y-132452307D01*
X126191694Y-132385765D01*
X126176397Y-132371491D01*
X126118784Y-132205671D01*
X126072295Y-131896779D01*
X126038950Y-131501731D01*
X126020765Y-131077445D01*
X126019758Y-130680838D01*
X126037947Y-130368827D01*
X126077349Y-130198329D01*
X126098799Y-130182481D01*
X126189155Y-130279903D01*
G37*
G36*
X194037265Y-118437828D02*
G01*
X194343255Y-118473544D01*
X194476655Y-118526499D01*
X194479148Y-118535645D01*
X194412008Y-118643497D01*
X194391594Y-118646562D01*
X194276711Y-118716833D01*
X194040331Y-118905528D01*
X193722904Y-119179466D01*
X193527055Y-119355700D01*
X192721328Y-120235953D01*
X192035898Y-121290349D01*
X191482104Y-122499801D01*
X191246745Y-123194160D01*
X191196321Y-123432656D01*
X191157302Y-123788254D01*
X191128772Y-124282334D01*
X191109813Y-124936279D01*
X191099507Y-125771471D01*
X191096872Y-126688046D01*
X191098125Y-127592836D01*
X191102835Y-128307705D01*
X191113126Y-128864561D01*
X191131124Y-129295313D01*
X191158954Y-129631870D01*
X191198742Y-129906140D01*
X191252611Y-130150033D01*
X191322689Y-130395456D01*
X191349529Y-130481574D01*
X191528338Y-130987961D01*
X191743617Y-131512868D01*
X191925226Y-131895766D01*
X192248958Y-132511190D01*
X191592229Y-132511190D01*
X191218116Y-132502219D01*
X190999663Y-132458701D01*
X190870908Y-132355731D01*
X190784357Y-132206169D01*
X190538353Y-131652523D01*
X190301704Y-131022748D01*
X190112444Y-130422641D01*
X190041520Y-130139833D01*
X190002980Y-129839787D01*
X189972239Y-129357555D01*
X189949262Y-128732650D01*
X189934013Y-128004581D01*
X189926458Y-127212860D01*
X189926562Y-126396997D01*
X189934290Y-125596504D01*
X189949608Y-124850890D01*
X189972480Y-124199667D01*
X190002871Y-123682346D01*
X190040747Y-123338438D01*
X190047553Y-123301885D01*
X190385110Y-122123405D01*
X190902148Y-120945923D01*
X191565730Y-119834375D01*
X192254285Y-118951583D01*
X192723329Y-118424728D01*
X193601239Y-118424728D01*
X194037265Y-118437828D01*
G37*
G36*
X148488183Y-120379522D02*
G01*
X149545114Y-121002965D01*
X150424635Y-121535794D01*
X151145002Y-121991921D01*
X151724471Y-122385258D01*
X152181299Y-122729714D01*
X152533740Y-123039203D01*
X152800050Y-123327634D01*
X152998486Y-123608919D01*
X153147304Y-123896970D01*
X153168212Y-123945769D01*
X153226114Y-124200631D01*
X153273188Y-124633927D01*
X153309092Y-125202509D01*
X153333481Y-125863223D01*
X153346012Y-126572920D01*
X153346342Y-127288447D01*
X153334125Y-127966655D01*
X153309019Y-128564392D01*
X153270679Y-129038507D01*
X153218763Y-129345849D01*
X153211421Y-129370028D01*
X153105949Y-129603804D01*
X152905142Y-129976920D01*
X152635196Y-130443134D01*
X152322306Y-130956203D01*
X152227954Y-131106087D01*
X151372015Y-132455732D01*
X150742175Y-132488996D01*
X150330577Y-132489085D01*
X150131910Y-132434838D01*
X150112336Y-132395202D01*
X150170716Y-132220820D01*
X150311396Y-131977633D01*
X150314064Y-131973728D01*
X150440562Y-131775170D01*
X150652801Y-131427064D01*
X150925300Y-130971797D01*
X151232576Y-130451758D01*
X151369104Y-130218694D01*
X152222416Y-128758075D01*
X152193359Y-126558432D01*
X152182111Y-125802965D01*
X152168634Y-125235637D01*
X152149217Y-124822757D01*
X152120145Y-124530636D01*
X152077708Y-124325583D01*
X152018192Y-124173908D01*
X151937885Y-124041920D01*
X151911996Y-124005064D01*
X151661959Y-123725388D01*
X151386263Y-123511964D01*
X151357410Y-123496211D01*
X151147811Y-123380741D01*
X150783986Y-123171691D01*
X150290364Y-122883662D01*
X149691370Y-122531258D01*
X149011435Y-122129080D01*
X148274984Y-121691729D01*
X147506445Y-121233808D01*
X146730248Y-120769918D01*
X145970818Y-120314663D01*
X145252583Y-119882642D01*
X144599973Y-119488460D01*
X144037413Y-119146716D01*
X143589332Y-118872014D01*
X143280157Y-118678956D01*
X143134316Y-118582142D01*
X143128525Y-118577291D01*
X143082428Y-118507209D01*
X143144447Y-118462099D01*
X143345865Y-118436811D01*
X143717966Y-118426198D01*
X144055464Y-118424728D01*
X145144817Y-118424728D01*
X148488183Y-120379522D01*
G37*
%TD*%
D11*
%TO.C,1.50u*%
X40957500Y-125412500D03*
X51117500Y-125412500D03*
D12*
X46037500Y-125412500D03*
D13*
X42227500Y-122872500D03*
X48577500Y-120332500D03*
%TD*%
D11*
%TO.C,T*%
X151130000Y-68262500D03*
X140970000Y-68262500D03*
D12*
X146050000Y-68262500D03*
D13*
X142240000Y-65722500D03*
X148590000Y-63182500D03*
%TD*%
D11*
%TO.C,Tab*%
X40957500Y-68262500D03*
D12*
X46037500Y-68262500D03*
D11*
X51117500Y-68262500D03*
D13*
X42227500Y-65722500D03*
X48577500Y-63182500D03*
%TD*%
D11*
%TO.C,[*%
X255270000Y-68262500D03*
D12*
X260350000Y-68262500D03*
D11*
X265430000Y-68262500D03*
D13*
X256540000Y-65722500D03*
X262890000Y-63182500D03*
%TD*%
D11*
%TO.C,1.50u*%
X260667500Y-125412500D03*
D12*
X255587500Y-125412500D03*
D11*
X250507500Y-125412500D03*
D13*
X251777500Y-122872500D03*
X258127500Y-120332500D03*
%TD*%
D11*
%TO.C,R*%
X121920000Y-68262500D03*
X132080000Y-68262500D03*
D12*
X127000000Y-68262500D03*
D13*
X123190000Y-65722500D03*
X129540000Y-63182500D03*
%TD*%
D12*
%TO.C,<*%
X217487500Y-106362500D03*
D11*
X212407500Y-106362500D03*
X222567500Y-106362500D03*
D13*
X213677500Y-103822500D03*
X220027500Y-101282500D03*
%TD*%
D11*
%TO.C,Stepped*%
X38576250Y-87312500D03*
X48736250Y-87312500D03*
D12*
X43656250Y-87312500D03*
D13*
X39846250Y-84772500D03*
X46196250Y-82232500D03*
%TD*%
D12*
%TO.C,S*%
X93662500Y-87312500D03*
D11*
X88582500Y-87312500D03*
X98742500Y-87312500D03*
D13*
X89852500Y-84772500D03*
X96202500Y-82232500D03*
%TD*%
D11*
%TO.C,B*%
X155257500Y-106362500D03*
X165417500Y-106362500D03*
D12*
X160337500Y-106362500D03*
D13*
X156527500Y-103822500D03*
X162877500Y-101282500D03*
%TD*%
D11*
%TO.C,H*%
X174942500Y-87312500D03*
D12*
X169862500Y-87312500D03*
D11*
X164782500Y-87312500D03*
D13*
X166052500Y-84772500D03*
X172402500Y-82232500D03*
%TD*%
D11*
%TO.C,D*%
X117792500Y-87312500D03*
X107632500Y-87312500D03*
D12*
X112712500Y-87312500D03*
D13*
X108902500Y-84772500D03*
X115252500Y-82232500D03*
%TD*%
D11*
%TO.C,J*%
X193992500Y-87312500D03*
X183832500Y-87312500D03*
D12*
X188912500Y-87312500D03*
D13*
X185102500Y-84772500D03*
X191452500Y-82232500D03*
%TD*%
D11*
%TO.C,ISO*%
X279082500Y-87312500D03*
D12*
X284162500Y-87312500D03*
D11*
X289242500Y-87312500D03*
D13*
X280352500Y-84772500D03*
X286702500Y-82232500D03*
%TD*%
D12*
%TO.C,Z*%
X84137500Y-106362500D03*
D11*
X89217500Y-106362500D03*
X79057500Y-106362500D03*
D13*
X80327500Y-103822500D03*
X86677500Y-101282500D03*
%TD*%
D12*
%TO.C,Split*%
X307975000Y-106362500D03*
D11*
X313055000Y-106362500D03*
X302895000Y-106362500D03*
D13*
X304165000Y-103822500D03*
X310515000Y-101282500D03*
%TD*%
D11*
%TO.C,W*%
X93980000Y-68262500D03*
X83820000Y-68262500D03*
D12*
X88900000Y-68262500D03*
D13*
X85090000Y-65722500D03*
X91440000Y-63182500D03*
%TD*%
D11*
%TO.C,-*%
X245745000Y-49212500D03*
D12*
X250825000Y-49212500D03*
D11*
X255905000Y-49212500D03*
D13*
X247015000Y-46672500D03*
X253365000Y-44132500D03*
%TD*%
D11*
%TO.C,Split*%
X286861250Y-106362500D03*
X276701250Y-106362500D03*
D12*
X281781250Y-106362500D03*
D13*
X277971250Y-103822500D03*
X284321250Y-101282500D03*
%TD*%
D12*
%TO.C,V*%
X141287500Y-106362500D03*
D11*
X146367500Y-106362500D03*
X136207500Y-106362500D03*
D13*
X137477500Y-103822500D03*
X143827500Y-101282500D03*
%TD*%
D11*
%TO.C,X*%
X108267500Y-106362500D03*
D12*
X103187500Y-106362500D03*
D11*
X98107500Y-106362500D03*
D13*
X99377500Y-103822500D03*
X105727500Y-101282500D03*
%TD*%
D11*
%TO.C,1u*%
X274320000Y-125412500D03*
D12*
X279400000Y-125412500D03*
D11*
X284480000Y-125412500D03*
D13*
X275590000Y-122872500D03*
X281940000Y-120332500D03*
%TD*%
D11*
%TO.C,5*%
X131445000Y-49212500D03*
X141605000Y-49212500D03*
D12*
X136525000Y-49212500D03*
D13*
X132715000Y-46672500D03*
X139065000Y-44132500D03*
%TD*%
D11*
%TO.C,G*%
X145732500Y-87312500D03*
X155892500Y-87312500D03*
D12*
X150812500Y-87312500D03*
D13*
X147002500Y-84772500D03*
X153352500Y-82232500D03*
%TD*%
D12*
%TO.C,:*%
X246062500Y-87312500D03*
D11*
X240982500Y-87312500D03*
X251142500Y-87312500D03*
D13*
X242252500Y-84772500D03*
X248602500Y-82232500D03*
%TD*%
D11*
%TO.C,8*%
X188595000Y-49212500D03*
D12*
X193675000Y-49212500D03*
D11*
X198755000Y-49212500D03*
D13*
X189865000Y-46672500D03*
X196215000Y-44132500D03*
%TD*%
D11*
%TO.C,P*%
X236220000Y-68262500D03*
X246380000Y-68262500D03*
D12*
X241300000Y-68262500D03*
D13*
X237490000Y-65722500D03*
X243840000Y-63182500D03*
%TD*%
D11*
%TO.C,Q*%
X64770000Y-68262500D03*
X74930000Y-68262500D03*
D12*
X69850000Y-68262500D03*
D13*
X66040000Y-65722500D03*
X72390000Y-63182500D03*
%TD*%
D11*
%TO.C,1*%
X65405000Y-49212500D03*
X55245000Y-49212500D03*
D12*
X60325000Y-49212500D03*
D13*
X56515000Y-46672500D03*
X62865000Y-44132500D03*
%TD*%
D11*
%TO.C,Y*%
X160020000Y-68262500D03*
D12*
X165100000Y-68262500D03*
D11*
X170180000Y-68262500D03*
D13*
X161290000Y-65722500D03*
X167640000Y-63182500D03*
%TD*%
D11*
%TO.C,]*%
X284480000Y-68262500D03*
D12*
X279400000Y-68262500D03*
D11*
X274320000Y-68262500D03*
D13*
X275590000Y-65722500D03*
X281940000Y-63182500D03*
%TD*%
D12*
%TO.C,9*%
X212725000Y-49212500D03*
D11*
X217805000Y-49212500D03*
X207645000Y-49212500D03*
D13*
X208915000Y-46672500D03*
X215265000Y-44132500D03*
%TD*%
D12*
%TO.C,ISO*%
X65087500Y-106362500D03*
D11*
X60007500Y-106362500D03*
X70167500Y-106362500D03*
D13*
X61277500Y-103822500D03*
X67627500Y-101282500D03*
%TD*%
D12*
%TO.C,>*%
X236537500Y-106362500D03*
D11*
X241617500Y-106362500D03*
X231457500Y-106362500D03*
D13*
X232727500Y-103822500D03*
X239077500Y-101282500D03*
%TD*%
D12*
%TO.C,Full*%
X303244250Y-114617500D03*
D11*
X296386250Y-106362500D03*
D14*
X279368250Y-99377500D03*
X303244250Y-99377500D03*
D11*
X286226250Y-106362500D03*
D12*
X279368250Y-114617500D03*
X291306250Y-106362500D03*
D13*
X287496250Y-103822500D03*
X293846250Y-101282500D03*
%TD*%
D11*
%TO.C,C*%
X117157500Y-106362500D03*
D12*
X122237500Y-106362500D03*
D11*
X127317500Y-106362500D03*
D13*
X118427500Y-103822500D03*
X124777500Y-101282500D03*
%TD*%
D12*
%TO.C,E*%
X107950000Y-68262500D03*
D11*
X113030000Y-68262500D03*
X102870000Y-68262500D03*
D13*
X104140000Y-65722500D03*
X110490000Y-63182500D03*
%TD*%
D11*
%TO.C,ANSI*%
X290988750Y-87312500D03*
X301148750Y-87312500D03*
D12*
X296068750Y-87312500D03*
X284130500Y-95567500D03*
X308007000Y-95567500D03*
D14*
X284130500Y-80327500D03*
X308007000Y-80327500D03*
D13*
X292258750Y-84772500D03*
X298608750Y-82232500D03*
%TD*%
D12*
%TO.C,A*%
X74612500Y-87312500D03*
D11*
X69532500Y-87312500D03*
X79692500Y-87312500D03*
D13*
X70802500Y-84772500D03*
X77152500Y-82232500D03*
%TD*%
D12*
%TO.C,Split*%
X307975000Y-49212500D03*
D11*
X313055000Y-49212500D03*
X302895000Y-49212500D03*
D13*
X304165000Y-46672500D03*
X310515000Y-44132500D03*
%TD*%
D11*
%TO.C,0*%
X226695000Y-49212500D03*
X236855000Y-49212500D03*
D12*
X231775000Y-49212500D03*
D13*
X227965000Y-46672500D03*
X234315000Y-44132500D03*
%TD*%
D11*
%TO.C,L*%
X221932500Y-87312500D03*
X232092500Y-87312500D03*
D12*
X227012500Y-87312500D03*
D13*
X223202500Y-84772500D03*
X229552500Y-82232500D03*
%TD*%
D11*
%TO.C,I*%
X198120000Y-68262500D03*
D12*
X203200000Y-68262500D03*
D11*
X208280000Y-68262500D03*
D13*
X199390000Y-65722500D03*
X205740000Y-63182500D03*
%TD*%
D12*
%TO.C,M*%
X198437500Y-106362500D03*
D11*
X203517500Y-106362500D03*
X193357500Y-106362500D03*
D13*
X194627500Y-103822500D03*
X200977500Y-101282500D03*
%TD*%
D11*
%TO.C,Full*%
X303530000Y-49212500D03*
D12*
X310388250Y-57467500D03*
D14*
X286511750Y-42227500D03*
D12*
X298450000Y-49212500D03*
D14*
X310388250Y-42227500D03*
D12*
X286511750Y-57467500D03*
D11*
X293370000Y-49212500D03*
D13*
X294640000Y-46672500D03*
X300990000Y-44132500D03*
%TD*%
D11*
%TO.C,?*%
X250507500Y-106362500D03*
X260667500Y-106362500D03*
D12*
X255587500Y-106362500D03*
D13*
X251777500Y-103822500D03*
X258127500Y-101282500D03*
%TD*%
D11*
%TO.C,F*%
X126682500Y-87312500D03*
D12*
X131762500Y-87312500D03*
D11*
X136842500Y-87312500D03*
D13*
X127952500Y-84772500D03*
X134302500Y-82232500D03*
%TD*%
D12*
%TO.C,ISO*%
X305593750Y-77787500D03*
X297338750Y-65849500D03*
D15*
X305593750Y-72707500D03*
D14*
X312578750Y-89725500D03*
D15*
X305593750Y-82867500D03*
D14*
X312578750Y-65849500D03*
D12*
X297338750Y-89725500D03*
D13*
X308133750Y-73977500D03*
X310673750Y-80327500D03*
%TD*%
D12*
%TO.C,1u*%
X69850000Y-125412500D03*
D11*
X64770000Y-125412500D03*
X74930000Y-125412500D03*
D13*
X66040000Y-122872500D03*
X72390000Y-120332500D03*
%TD*%
D11*
%TO.C,N*%
X174307500Y-106362500D03*
X184467500Y-106362500D03*
D12*
X179387500Y-106362500D03*
D13*
X175577500Y-103822500D03*
X181927500Y-101282500D03*
%TD*%
D11*
%TO.C,3*%
X93345000Y-49212500D03*
X103505000Y-49212500D03*
D12*
X98425000Y-49212500D03*
D13*
X94615000Y-46672500D03*
X100965000Y-44132500D03*
%TD*%
D11*
%TO.C,6*%
X160655000Y-49212500D03*
D12*
X155575000Y-49212500D03*
D11*
X150495000Y-49212500D03*
D13*
X151765000Y-46672500D03*
X158115000Y-44132500D03*
%TD*%
D12*
%TO.C,"*%
X265112500Y-87312500D03*
D11*
X260032500Y-87312500D03*
X270192500Y-87312500D03*
D13*
X261302500Y-84772500D03*
X267652500Y-82232500D03*
%TD*%
D11*
%TO.C,Esc*%
X36195000Y-49212500D03*
X46355000Y-49212500D03*
D12*
X41275000Y-49212500D03*
D13*
X37465000Y-46672500D03*
X43815000Y-44132500D03*
%TD*%
D11*
%TO.C,1.50u*%
X98742500Y-125412500D03*
D12*
X93662500Y-125412500D03*
D11*
X88582500Y-125412500D03*
D13*
X89852500Y-122872500D03*
X96202500Y-120332500D03*
%TD*%
D12*
%TO.C,=*%
X269875000Y-49212500D03*
D11*
X264795000Y-49212500D03*
X274955000Y-49212500D03*
D13*
X266065000Y-46672500D03*
X272415000Y-44132500D03*
%TD*%
D11*
%TO.C,Split*%
X294005000Y-49212500D03*
D12*
X288925000Y-49212500D03*
D11*
X283845000Y-49212500D03*
D13*
X285115000Y-46672500D03*
X291465000Y-44132500D03*
%TD*%
D12*
%TO.C,K*%
X207962500Y-87312500D03*
D11*
X202882500Y-87312500D03*
X213042500Y-87312500D03*
D13*
X204152500Y-84772500D03*
X210502500Y-82232500D03*
%TD*%
D12*
%TO.C,ISO*%
X43656250Y-106362500D03*
D11*
X48736250Y-106362500D03*
X38576250Y-106362500D03*
D13*
X39846250Y-103822500D03*
X46196250Y-101282500D03*
%TD*%
D11*
%TO.C,2*%
X84455000Y-49212500D03*
D12*
X79375000Y-49212500D03*
D11*
X74295000Y-49212500D03*
D13*
X75565000Y-46672500D03*
X81915000Y-44132500D03*
%TD*%
D11*
%TO.C,ANSI*%
X308292500Y-68262500D03*
D12*
X303212500Y-68262500D03*
D11*
X298132500Y-68262500D03*
D13*
X299402500Y-65722500D03*
X305752500Y-63182500D03*
%TD*%
D11*
%TO.C,Full*%
X53498750Y-87312500D03*
D12*
X48418750Y-87312500D03*
D11*
X43338750Y-87312500D03*
D13*
X44608750Y-84772500D03*
X50958750Y-82232500D03*
%TD*%
D12*
%TO.C,7*%
X174625000Y-49212500D03*
D11*
X169545000Y-49212500D03*
X179705000Y-49212500D03*
D13*
X170815000Y-46672500D03*
X177165000Y-44132500D03*
%TD*%
D11*
%TO.C,O*%
X217170000Y-68262500D03*
D12*
X222250000Y-68262500D03*
D11*
X227330000Y-68262500D03*
D13*
X218440000Y-65722500D03*
X224790000Y-63182500D03*
%TD*%
D12*
%TO.C,1.50u*%
X303212500Y-125412500D03*
D11*
X298132500Y-125412500D03*
X308292500Y-125412500D03*
D13*
X299402500Y-122872500D03*
X305752500Y-120332500D03*
%TD*%
D11*
%TO.C,ANSI*%
X48101250Y-106362500D03*
D14*
X41243000Y-99377500D03*
D11*
X58261250Y-106362500D03*
D12*
X41243000Y-114617500D03*
D14*
X65119500Y-99377500D03*
D12*
X53181250Y-106362500D03*
X65119500Y-114617500D03*
D13*
X49371250Y-103822500D03*
X55721250Y-101282500D03*
%TD*%
D14*
%TO.C,MX42*%
X231775000Y-132397500D03*
D11*
X169545000Y-125412500D03*
D12*
X117475000Y-117157500D03*
X231775000Y-117157500D03*
X174625000Y-125412500D03*
D14*
X117475000Y-132397500D03*
D11*
X179705000Y-125412500D03*
D13*
X170815000Y-122872500D03*
X177165000Y-120332500D03*
%TD*%
D11*
%TO.C,4*%
X112395000Y-49212500D03*
D12*
X117475000Y-49212500D03*
D11*
X122555000Y-49212500D03*
D13*
X113665000Y-46672500D03*
X120015000Y-44132500D03*
%TD*%
D12*
%TO.C,U*%
X184150000Y-68262500D03*
D11*
X189230000Y-68262500D03*
X179070000Y-68262500D03*
D13*
X180340000Y-65722500D03*
X186690000Y-63182500D03*
%TD*%
D16*
%TO.C,J2*%
X34550000Y-81925000D03*
D17*
X34550000Y-84465000D03*
X34550000Y-87005000D03*
X34550000Y-89545000D03*
X34550000Y-92085000D03*
%TD*%
D16*
%TO.C,boot*%
X79375000Y-61960000D03*
D17*
X79375000Y-64500000D03*
%TD*%
D18*
X199525000Y-47125000D03*
X278725000Y-51275000D03*
X44750000Y-99000000D03*
X51150000Y-88025000D03*
D19*
X299780000Y-85340000D03*
D18*
X80725000Y-69800000D03*
X82575000Y-84575000D03*
X54700000Y-74650000D03*
X78175000Y-69700000D03*
X286400000Y-61300000D03*
X104050000Y-47225000D03*
X60400000Y-90525000D03*
X237300000Y-46625000D03*
X52275000Y-93550000D03*
X51689000Y-55118000D03*
X57300000Y-95375000D03*
X50200000Y-65850000D03*
X93530000Y-82600000D03*
X75275000Y-73025000D03*
D19*
X64650000Y-79625000D03*
D18*
X165300000Y-130925000D03*
X50725000Y-78075000D03*
X55753000Y-56007000D03*
X300750000Y-104275000D03*
X81450000Y-90575000D03*
X247225000Y-126050000D03*
X62600000Y-54475000D03*
X109100000Y-42525000D03*
X44400000Y-78700000D03*
X68675000Y-83275000D03*
X74549000Y-82042000D03*
X63375000Y-92000000D03*
X164465000Y-127254000D03*
X53250000Y-112075000D03*
X275250000Y-46450000D03*
X239775000Y-42650000D03*
X127300000Y-48750000D03*
D19*
X301610000Y-80260000D03*
D18*
X249700000Y-75125000D03*
X236650000Y-118650000D03*
X307725000Y-86625000D03*
X60000000Y-101500000D03*
X101220000Y-82350000D03*
X295950000Y-41700000D03*
D19*
X183700000Y-126660000D03*
D18*
X79800000Y-45500000D03*
X203454000Y-131375000D03*
X259475000Y-47900000D03*
X164875000Y-45600000D03*
X177400000Y-61975000D03*
D19*
X53475000Y-72825000D03*
D18*
X231025000Y-75900000D03*
D19*
X82770000Y-65710000D03*
D18*
X133650000Y-74275000D03*
X228550000Y-126300000D03*
X155200000Y-43375000D03*
X89950000Y-48025000D03*
D19*
X51450000Y-74550000D03*
D18*
X286650000Y-54325000D03*
X117425000Y-44275000D03*
X93525000Y-74050000D03*
X200800000Y-90875000D03*
X248250000Y-131275000D03*
X37680000Y-88680000D03*
X221125000Y-47950000D03*
X279725000Y-45050000D03*
X65600000Y-87350000D03*
X144500000Y-42650000D03*
X212450000Y-43650000D03*
X250800000Y-45450000D03*
X52875000Y-83300000D03*
X37500000Y-90500000D03*
X211500000Y-77475000D03*
X142275000Y-46850000D03*
X52070000Y-76835000D03*
X183450000Y-47525000D03*
D19*
X52842941Y-81532074D03*
X48000000Y-76250000D03*
D18*
X57625000Y-72750000D03*
X49075000Y-72325000D03*
D19*
X52851390Y-82331532D03*
X49202294Y-76245025D03*
D18*
X83675000Y-70800000D03*
X79650000Y-70800000D03*
D19*
X49199500Y-74900000D03*
D18*
X52125000Y-92300000D03*
X54300000Y-85799500D03*
X75650000Y-90025000D03*
X62800000Y-95125000D03*
X67500000Y-95600000D03*
X52175000Y-88625000D03*
X73152000Y-108900000D03*
X73152000Y-91059000D03*
X68925000Y-91075000D03*
X55626000Y-127950000D03*
X53250511Y-90125296D03*
X42300000Y-89575000D03*
X53950011Y-90892878D03*
X41350000Y-89900000D03*
X40825000Y-90875000D03*
X53059821Y-91600500D03*
D19*
X58500000Y-85350000D03*
X58225000Y-81150000D03*
D18*
X55425000Y-90175000D03*
X59406334Y-77357910D03*
X52450960Y-75599040D03*
X64950000Y-75100000D03*
X59225000Y-75600000D03*
X292325000Y-91100000D03*
M02*
