M48
; DRILL file {KiCad (6.0.11)} date Fri Feb 10 12:21:56 2023
; FORMAT={-:-/ absolute / inch / decimal}
; #@! TF.CreationDate,2023-02-10T12:21:56+01:00
; #@! TF.GenerationSoftware,Kicad,Pcbnew,(6.0.11)
; #@! TF.FileFunction,Plated,1,2,PTH
FMAT,2
INCH
; #@! TA.AperFunction,Plated,PTH,ViaDrill
T1C0.0138
; #@! TA.AperFunction,Plated,PTH,ComponentDrill
T2C0.0138
; #@! TA.AperFunction,Plated,PTH,ViaDrill
T3C0.0157
; #@! TA.AperFunction,Plated,PTH,ComponentDrill
T4C0.0394
; #@! TA.AperFunction,Plated,PTH,ComponentDrill
T5C0.0600
%
G90
G05
T1
X1.8898Y-3.002
X1.937Y-2.9488
X1.9371Y-3.0018
X2.0256Y-2.935
X2.0804Y-3.2099
X2.0808Y-3.2414
X2.1053Y-2.8671
X2.2923Y-3.1949
X2.3031Y-3.3602
X2.5453Y-3.1348
X3.2587Y-2.587
X7.2323Y-4.9866
X11.8024Y-3.3598
X11.8744Y-3.1598
T2
X2.2766Y-3.2274
X2.2766Y-3.2776
X2.2766Y-3.3278
X2.3268Y-3.2274
X2.3268Y-3.2776
X2.3268Y-3.3278
X2.377Y-3.2274
X2.377Y-3.2776
X2.377Y-3.3278
T3
X1.4764Y-3.563
X1.4835Y-3.4913
X1.6073Y-3.5778
X1.628Y-3.5394
X1.6654Y-3.5266
X1.748Y-3.0984
X1.7618Y-3.8976
X1.9321Y-2.8474
X1.9764Y-2.5925
X1.997Y-3.0738
X2.0138Y-3.4656
X2.035Y-2.17
X2.05Y-3.025
X2.0522Y-3.6339
X2.0541Y-3.4892
X2.0581Y-3.6831
X2.065Y-2.9763
X2.0817Y-3.2795
X2.089Y-3.6063
X2.0965Y-4.4124
X2.0965Y-3.5482
X2.124Y-3.5785
X2.1378Y-3.3779
X2.1535Y-2.939
X2.1821Y-3.5502
X2.19Y-5.0374
X2.195Y-2.205
X2.2559Y-3.7549
X2.2687Y-2.8642
X2.3317Y-2.9764
X2.3388Y-3.0456
X2.3622Y-3.9961
X2.378Y-3.564
X2.4646Y-2.1447
X2.4724Y-3.7451
X2.4951Y-3.622
X2.5571Y-2.9567
X2.5827Y-3.439
X2.6575Y-3.7638
X2.7037Y-3.2785
X2.7136Y-3.5856
X2.88Y-3.585
X2.88Y-4.2874
X2.935Y-3.23
X2.9636Y-2.875
X2.9783Y-3.5443
X3.0778Y-2.7441
X3.1358Y-2.7874
X3.1417Y-1.7913
X3.1781Y-2.748
X3.2067Y-3.5659
X3.251Y-3.3297
X3.2943Y-2.7874
X3.5413Y-1.8907
X3.6821Y-2.9154
X3.6823Y-3.252
X3.985Y-3.2421
X4.0965Y-1.8593
X4.2953Y-1.6742
X4.623Y-1.7431
X5.0118Y-1.9193
X5.2618Y-2.9242
X5.6014Y-1.8445
X5.689Y-1.6791
X6.1102Y-1.7077
X6.475Y-5.01
X6.4911Y-1.7953
X6.5079Y-5.1545
X6.9843Y-2.44
X7.2224Y-1.8711
X7.8553Y-1.8553
X7.9055Y-3.5778
X8.01Y-5.1722
X8.3268Y-3.0502
X8.3642Y-1.7185
X8.7057Y-1.8878
X8.998Y-4.9724
X9.0955Y-2.9882
X9.3169Y-4.6713
X9.3425Y-1.8356
X9.44Y-1.6791
X9.7333Y-4.9626
X9.7736Y-5.1683
X9.8307Y-2.9577
X9.874Y-1.7894
X10.2156Y-1.8858
X10.8366Y-1.8287
X10.9734Y-2.0187
X11.0128Y-1.7736
X11.2756Y-2.4134
X11.2854Y-2.1388
X11.5089Y-3.5866
X11.6516Y-1.6417
X11.8406Y-4.1053
X12.1152Y-3.4104
T4
X1.3602Y-3.2254
X1.3602Y-3.3254
X1.3602Y-3.4254
X1.3602Y-3.5254
X1.3602Y-3.6254
X3.125Y-2.4394
X3.125Y-2.5394
T5
X1.475Y-1.8375
X1.5687Y-3.3375
X1.5687Y-4.0875
X1.6625Y-2.5875
X1.6625Y-4.8375
X1.725Y-1.7375
X1.7562Y-3.3375
X1.8187Y-3.2375
X1.8187Y-3.9875
X1.9125Y-2.4875
X1.9125Y-4.7375
X1.9437Y-4.0875
X2.0063Y-3.2375
X2.1938Y-3.9875
X2.225Y-1.8375
X2.4125Y-4.0875
X2.475Y-1.7375
X2.6Y-2.5875
X2.6Y-4.8375
X2.6625Y-3.9875
X2.7875Y-3.3375
X2.85Y-2.4875
X2.85Y-4.7375
X2.975Y-1.8375
X3.0375Y-3.2375
X3.1625Y-4.0875
X3.225Y-1.7375
X3.35Y-2.5875
X3.4125Y-3.9875
X3.5375Y-3.3375
X3.5375Y-4.8375
X3.6Y-2.4875
X3.725Y-1.8375
X3.7875Y-3.2375
X3.7875Y-4.7375
X3.9125Y-4.0875
X3.975Y-1.7375
X4.1Y-2.5875
X4.1625Y-3.9875
X4.2875Y-3.3375
X4.35Y-2.4875
X4.475Y-1.8375
X4.5375Y-3.2375
X4.6625Y-4.0875
X4.725Y-1.7375
X4.85Y-2.5875
X4.9125Y-3.9875
X5.0375Y-3.3375
X5.1Y-2.4875
X5.225Y-1.8375
X5.2875Y-3.2375
X5.4125Y-4.0875
X5.475Y-1.7375
X5.6Y-2.5875
X5.6625Y-3.9875
X5.7875Y-3.3375
X5.85Y-2.4875
X5.975Y-1.8375
X6.0375Y-3.2375
X6.1625Y-4.0875
X6.225Y-1.7375
X6.35Y-2.5875
X6.4125Y-3.9875
X6.5375Y-3.3375
X6.6Y-2.4875
X6.725Y-1.8375
X6.725Y-4.8375
X6.7875Y-3.2375
X6.9125Y-4.0875
X6.975Y-1.7375
X6.975Y-4.7375
X7.1Y-2.5875
X7.1625Y-3.9875
X7.2875Y-3.3375
X7.35Y-2.4875
X7.475Y-1.8375
X7.5375Y-3.2375
X7.6625Y-4.0875
X7.725Y-1.7375
X7.85Y-2.5875
X7.9125Y-3.9875
X8.0375Y-3.3375
X8.1Y-2.4875
X8.225Y-1.8375
X8.2875Y-3.2375
X8.4125Y-4.0875
X8.475Y-1.7375
X8.6Y-2.5875
X8.6625Y-3.9875
X8.7875Y-3.3375
X8.85Y-2.4875
X8.975Y-1.8375
X9.0375Y-3.2375
X9.1625Y-4.0875
X9.225Y-1.7375
X9.35Y-2.5875
X9.4125Y-3.9875
X9.5375Y-3.3375
X9.6Y-2.4875
X9.725Y-1.8375
X9.7875Y-3.2375
X9.9125Y-4.0875
X9.9125Y-4.8375
X9.975Y-1.7375
X10.1Y-2.5875
X10.1625Y-3.9875
X10.1625Y-4.7375
X10.2875Y-3.3375
X10.35Y-2.4875
X10.475Y-1.8375
X10.5375Y-3.2375
X10.725Y-1.7375
X10.85Y-2.5875
X10.85Y-4.8375
X10.9437Y-4.0875
X11.0375Y-3.3375
X11.1Y-2.4875
X11.1Y-4.7375
X11.1937Y-3.9875
X11.225Y-1.8375
X11.2875Y-3.2375
X11.3187Y-4.0875
X11.475Y-1.7375
X11.5062Y-3.3375
X11.5687Y-3.9875
X11.6Y-1.8375
X11.7562Y-3.2375
X11.7875Y-2.5875
X11.7875Y-4.8375
X11.85Y-1.7375
X11.975Y-1.8375
X11.975Y-4.0875
X12.0375Y-2.4875
X12.0375Y-4.7375
X12.1312Y-2.9125
X12.225Y-1.7375
X12.225Y-3.9875
X12.2312Y-3.1625
T0
M30
